<?xml version="1.0" encoding="UTF-8"?>
<svg version="1.1" xmlns="http://www.w3.org/2000/svg" width="284" height="91" >
<path d="M13.338,32.233c3.597-8.12,13.689-14.497,21.824-16.992c3.624-1.111,1.804,2.15,0.753,3.868 c-1.736,2.837-4.015,5.382-6.37,7.716c-0.688,0.682-4.912,3.173-4.839,3.04c1.58-2.896,5.359-4.863,8.046-6.534 c3.184-1.979,14.057-6.929,9.486,1.141c-3.125,5.516-8.425,10.299-12.464,15.193c-3.362,4.075-6.693,8.181-10.294,12.05 c-1.416,1.522-2.914,2.993-4.604,4.209c-3.29,2.367-3.273-2.125-2.315-4.24c1.923-4.246,7.963-6.501,11.938-8.153 c5.084-2.114,10.373-3.72,15.547-5.594c9.326-3.377,17.33-9.092,25.015-15.261c3.588-2.88,7.054-5.923,10.359-9.124 c1.186-1.149,4.341-3.611,4.048-5.574c-0.808-5.406-12.148,3.4-13.517,4.895c-7.918,8.643-15.577,18.441-21.201,28.737 c-1.001,1.833-3.913,6.734-1.755,8.747c0.859,0.802,2,0.915,3.127,0.696c4.538-0.883,9.104-3.441,13.115-5.636 c2.244-1.227,11.063-5.9,9.953-9.712c-1.408-4.834-8.104,3.413-8.928,4.726c-2.778,4.428-2.534,12.031,3.896,7.659 c2.573-1.75,5.115-3.289,7.898-4.672c0.373-0.185,4.302-2.288,3.953-0.161c-0.437,2.658-2.437,5.354-3.808,7.594 c-0.55,0.898,0.645,1.665,1.374,1.06c2.003-1.662,4.065-3.254,6.166-4.791c1.438-1.051,2.915-2.045,4.451-2.946 c2.052-1.203,2.481-1.415,1.259,0.927c-0.368,0.705-3.39,5.4-0.832,5.653c2.491,0.247,5.991-4.14,7.79-5.408 c1.772-1.25,4.925-3.144,2.557,0.352c-0.5,0.737-0.961,1.498-1.344,2.302c-0.479,1.006-0.757,2.159,0.047,3.063 c1.043,1.173,3.494,0.279,4.652-0.077c5.716-1.758,11.113-4.977,16.328-7.814c-0.353-0.458-0.707-0.916-1.06-1.374 c-3.207,3.446-7,10.05,0.761,7.599c2.661-0.84,19.692-8.101,17.456-12.199c-0.188-0.345-0.616-0.5-0.987-0.402 c-3.211,0.852-5.856,5.872-7.366,8.43c-2.256,3.824-4.628,7.562-7.093,11.256c-3.163,4.738-6.453,9.393-9.869,13.952 c-2.457,3.279-5.099,7.284-8.474,9.728c-0.812,0.587-7.557,3.908-7.82,1.779c-0.319-2.576,3.745-6.083,5.218-7.691 c2.3-2.51,4.85-4.785,7.445-6.982c5.021-4.249,10.559-7.994,16.418-10.984c2.226-1.136,4.664-2.184,7.167-2.497 c3.691-0.46,1.968,3.622,1.133,5.438c-0.468,1.018,1.041,1.907,1.512,0.883c1.421-3.093,2.777-7.798-2.03-8.096 c-6.648-0.413-14.663,5.985-19.649,9.53c-3.892,2.767-7.549,5.864-10.987,9.174c-2.666,2.568-6.151,5.806-7.533,9.378 c-1.425,3.684,1.567,4.571,4.644,3.913c4.907-1.05,7.971-4.526,11.008-8.243c5.279-6.458,10.016-13.391,14.619-20.339 c1.901-2.871,3.762-5.774,5.486-8.754c1.326-2.292,2.73-4.417,4.504-6.398c0.244-0.246,0.487-0.491,0.73-0.736 c0.829-0.412,0.944-1.056,0.344-1.93c-0.42,0.929-1.61,1.795-2.351,2.472c-3.589,3.28-8.578,5.563-13.056,7.301 c-1.113,0.432-4.262,2.077-3.168-0.196c0.74-1.538,2.018-2.901,3.177-4.147c0.68-0.731-0.178-1.854-1.06-1.374 c-5.302,2.884-10.732,6.044-16.532,7.829c-2.889,0.889-2.435-0.233-1.205-2.221c0.427-0.69,3.609-4.864,1.197-5.369 c-2.696-0.565-5.735,1.879-7.705,3.463c-1.179,0.948-3.778,2.765-4.01,3.599c0.543-1.955,2.04-3.519,2.496-5.516 c0.306-1.34-0.808-2.271-2.092-1.925c-4.989,1.345-9.667,5.909-13.576,9.152c0.458,0.354,0.916,0.707,1.374,1.06 c1.074-1.754,7.846-12.215,0.996-11.188c-2.193,0.329-4.374,1.777-6.299,2.788c-1.817,0.954-3.469,2.047-5.135,3.246 c-2.14,1.54-3.045-1.355-2.493-3.173c0.667-2.197,2.296-4.16,3.879-5.747c-0.177,0.178,3.551-2.827,2.547-0.847 c-0.325,0.64-0.856,1.167-1.339,1.686c-1.51,1.621-3.407,2.868-5.253,4.064c-4.277,2.771-10.41,6.685-15.597,6.839 c-3.283,0.098,5.396-13.692,6.156-14.81c4.24-6.237,8.92-12.2,13.797-17.949c1.949-2.297,3.83-4.367,6.352-6.085 c0.874-0.596,7.304-3.126,5.397-0.884c-1.196,1.408-2.566,2.679-3.902,3.949c-7.848,7.459-16.62,14.451-26.17,19.596 c-8.915,4.803-19.191,6.537-28.209,11.192c-4.18,2.157-11.15,7.755-7.383,13.198c2.925,4.225,10.697-5.763,12.059-7.296 c3.665-4.126,7.096-8.461,10.624-12.703c3.584-4.31,7.768-8.294,10.546-13.201c3.266-5.767-1.477-7.288-6.32-5.62 c-2.489,0.857-17.731,8.082-15.119,12.541c2.624,4.48,12.928-8.986,13.895-10.319c3.036-4.185,3.658-9.206-2.897-7.195 c-8.287,2.542-16.898,8.942-21.414,16.391c-0.222,0.367-0.428,0.75-0.602,1.143C11.375,32.372,12.882,33.263,13.338,32.233 L13.338,32.233z"/>
<path d="M215.149,18.547c1.747-0.904,5.434-2.941,5.021-5.385c-0.67-3.97-8.01-3.615-11.027-3.662 c-13.649-0.213-27.757,2.061-40.993,5.22c-5.503,1.314-11.097,2.931-16.085,5.658c-2.833,1.548-9.771,6.829-7.489,10.86 c4.347,7.676,19.207-5.058,15.764-12.514c-0.473-1.024-1.981-0.134-1.512,0.883c2.435,5.271-5.449,11.576-10.17,12.003 c-5.446,0.493-0.384-5.982,0.809-7.158c1.429-1.408,3.11-2.4,4.878-3.302c7.271-3.708,15.854-5.277,23.805-6.752 c8.737-1.622,17.619-2.685,26.499-3.072c2.91-0.127,5.842-0.148,8.744,0.143c0.544,0.055,5.697,0.643,4.877,2.448 c-0.335,0.738-1.351,1.435-1.967,1.886c-0.638,0.465-1.335,0.869-2.035,1.232C213.264,17.555,214.149,19.065,215.149,18.547 L215.149,18.547z"/>
<path d="M178.726,26.198c-6.084,1.8-7.995,7.897-10.584,12.938c-1.639,3.191-12.752,21.152-15.965,12.673 c-0.396-1.045-2.088-0.592-1.688,0.465c2.866,7.566,9.431,1.485,12.706-2.44c2.88-3.453,5.284-7.37,7.254-11.403 c2.03-4.159,3.801-9.083,8.741-10.545C180.271,27.566,179.811,25.877,178.726,26.198L178.726,26.198z"/>
<path d="M162.083,41.292c8.1-0.665,16.383-1.156,24.357-2.781c1.105-0.225,0.637-1.912-0.465-1.688 c-7.817,1.593-15.95,2.066-23.893,2.719C160.967,39.633,160.958,41.384,162.083,41.292L162.083,41.292z"/>
<path d="M182.214,42.298c-1.477,1.573-9.392,9.952-5.688,12.081c3.819,2.196,8.827-4.75,6.688-8.154 c-0.512-0.814-1.931-0.296-1.6,0.674c0.73,2.145,3.772,2.049,5.546,1.945c0.958-0.057,12.895-3.096,10.417,1.756 c-0.753,1.475-2.164,3.054-2.158,4.803c0.001,0.298,0.164,0.613,0.434,0.755c0.879,0.463,1.659-0.067,2.369-0.656 c2.469-2.051,4.648-4.477,8.085-4.608c2.003-0.076,4.023,1.436,5.585,2.528c0.927,0.649,1.8-0.869,0.883-1.511 c-3.365-2.355-6.47-3.531-10.421-1.869c-1.737,0.731-4.062,2.535-4.816,4.217c0.704-1.57,1.781-2.906,2.294-4.561 c2.3-7.433-15.772-1.044-16.529-3.265c-0.533,0.225-1.066,0.449-1.6,0.674c1.462,2.326-1.345,4.604-2.945,5.59 c-2.551,1.571-0.063-3.065,0.26-3.596c1.226-2.014,2.823-3.85,4.436-5.566C184.223,42.713,182.988,41.474,182.214,42.298 L182.214,42.298z"/>
<path d="M225.839,50.975c-2.553-5.348-10.192-2.539-13.501,0.267c-5.158,4.375,1.387,6.529,5.551,5.934 c6.049-0.864,7.452-4.541,10.6-9.203c2.214-3.278,4.48-6.521,6.83-9.704c1.366-1.852,4.014-6.572,6.497-7.259 c-0.283-0.487-0.567-0.975-0.852-1.462c-3.996,4.576-7.804,9.33-11.429,14.205c-2.599,3.493-10.313,12.017-8.3,17.016 c0.81,2.01,3.689,1.554,5.378,1.614c5.299,0.188,10.597,0.416,15.896,0.585c9.361,0.3,20.244,1.685,29.431-0.708 c1.092-0.284,0.628-1.972-0.465-1.688c-7.893,2.055-17.203,0.956-25.255,0.752c-2.412-0.061-23.318,0.417-23.482-1.772 c-0.188-2.511,2.011-5.489,3.237-7.516c2.028-3.351,4.377-6.513,6.744-9.628c3.023-3.978,6.195-7.86,9.482-11.624 c0.557-0.638,0.034-1.708-0.852-1.462c-2.438,0.674-4.417,3.972-5.843,5.822c-3.345,4.338-6.454,8.852-9.509,13.397 c-2.322,3.456-3.234,5.896-7.651,6.815c-1.53,0.318-3.187,0.247-4.71-0.052c-3.553-0.695,1.34-3.721,2.309-4.287 c2.446-1.43,6.85-2.37,8.381,0.839C224.813,52.876,226.322,51.988,225.839,50.975L225.839,50.975z"/>
</svg>