<?xml version="1.0" encoding="UTF-8"?>
<!DOCTYPE svg PUBLIC "-//W3C//DTD SVG 1.1//EN" "http://www.w3.org/Graphics/SVG/1.1/DTD/svg11.dtd">
<!-- Creator: CorelDRAW -->
<svg xmlns="http://www.w3.org/2000/svg" xml:space="preserve" width="129.279mm" height="128.381mm" style="shape-rendering:geometricPrecision; text-rendering:geometricPrecision; image-rendering:optimizeQuality; fill-rule:evenodd; clip-rule:evenodd"
viewBox="0 0 131.8 130.884"
 xmlns:xlink="http://www.w3.org/1999/xlink">
 <defs>
  <style type="text/css">
   <![CDATA[
    .str1 {stroke:#72706F;stroke-width:0.132535}
    .str0 {stroke:#72706F;stroke-width:2.03899}
    .str3 {stroke:#1F1A17;stroke-width:2.54874}
    .str2 {stroke:#1F1A17;stroke-width:3.05849}
    .fil3 {fill:none}
    .fil2 {fill:none;fill-rule:nonzero}
    .fil0 {fill:#FFF500}
    .fil1 {fill:#1F1A17;fill-rule:nonzero}
   ]]>
  </style>
 </defs>
 <g id="Capa_x0020_1">
  <metadata id="CorelCorpID_0Corel-Layer"/>
  <ellipse class="fil0 str0" cx="65.9" cy="65.442" rx="64.8805" ry="64.4225"/>
  <path class="fil1" d="M41.9971 69.4327l0 7.13505c0,2.00219 -0.532382,3.60403 -1.60183,4.81437 -1.06476,1.20586 -2.45719,1.81114 -4.18177,1.81114 -0.782668,0 -1.51987,-0.150172 -2.20701,-0.44603 -0.687141,-0.300242 -1.29231,-0.732611 -1.80655,-1.30139 -0.532382,0.559704 -1.13307,0.991971 -1.79737,1.29231 -0.668892,0.304932 -1.35145,0.455104 -2.05684,0.455104 -1.79289,0 -3.23079,-0.5961 -4.31839,-1.79289 -1.08301,-1.19679 -1.62447,-2.8077 -1.62447,-4.83262l0 -7.13505 4.1728 0 0 7.79039c0,0.550529 0.168319,1.00104 0.505059,1.35145 0.33674,0.350401 0.759933,0.527794 1.26499,0.527794 0.518822,0 0.937428,-0.177393 1.26958,-0.527794 0.327666,-0.350401 0.4915,-0.800917 0.4915,-1.35145l0 -7.79039 4.20002 0 0 7.79039c0,0.550529 0.163833,1.00104 0.491398,1.35145 0.332254,0.350401 0.746272,0.527794 1.25602,0.527794 0.514133,0 0.937326,-0.177393 1.26948,-0.527794 0.332254,-0.350401 0.500573,-0.800917 0.500573,-1.35145l0 -7.79039 4.1728 0z"/>
  <path id="1" class="fil1" d="M44.0538 65.7787c0,-0.682553 0.241213,-1.26509 0.728023,-1.74742 0.482426,-0.477736 1.06935,-0.71895 1.75201,-0.71895 0.682553,0 1.26958,0.241213 1.7519,0.71895 0.486912,0.482324 0.728023,1.06486 0.728023,1.74742 0,0.682553 -0.241111,1.26958 -0.728023,1.7519 -0.482324,0.486912 -1.06935,0.728023 -1.7519,0.728023 -0.682655,0 -1.26958,-0.241111 -1.75201,-0.728023 -0.48681,-0.482324 -0.728023,-1.06935 -0.728023,-1.7519zm0.318491 17.1733l0 -13.5194 4.31839 0 0 13.5194 -4.31839 0z"/>
  <polygon id="12" class="fil1" points="51.1979,82.952 51.1979,63.8629 55.5163,63.8629 55.5163,82.952 "/>
  <polygon id="123" class="fil1" points="58.0236,82.952 58.0236,63.8629 62.342,63.8629 62.342,82.952 "/>
  <path id="1234" class="fil1" d="M64.5307 65.7787c0,-0.682553 0.241213,-1.26509 0.728023,-1.74742 0.482426,-0.477736 1.06935,-0.71895 1.75201,-0.71895 0.682553,0 1.26958,0.241213 1.7519,0.71895 0.486912,0.482324 0.728023,1.06486 0.728023,1.74742 0,0.682553 -0.241111,1.26958 -0.728023,1.7519 -0.482324,0.486912 -1.06935,0.728023 -1.7519,0.728023 -0.682655,0 -1.26958,-0.241111 -1.75201,-0.728023 -0.48681,-0.482324 -0.728023,-1.06935 -0.728023,-1.7519zm0.318491 17.1733l0 -13.5194 4.31839 0 0 13.5194 -4.31839 0z"/>
  <path id="12345" class="fil1" d="M79.6745 82.952l0 -7.53103c0,-0.632496 -0.18198,-1.14663 -0.546043,-1.5426 -0.364063,-0.395871 -0.837313,-0.591512 -1.41516,-0.591512 -0.573365,0 -1.04662,0.195642 -1.41516,0.591512 -0.36865,0.395973 -0.555218,0.910105 -0.555218,1.5426l0 7.53103 -4.22735 0 0 -6.85296c0,-2.11597 0.568778,-3.79967 1.70185,-5.051 1.13307,-1.25133 2.6302,-1.87934 4.50047,-1.87934 1.01012,0 1.96121,0.222964 2.84399,0.67348 0.882783,0.450516 1.62905,1.0876 2.23423,1.91115 0.391385,0.550631 0.67348,1.16039 0.850974,1.82928 0.177494,0.664406 0.268434,1.50621 0.268434,2.51643l0 6.85296 -4.24101 0z"/>
  <path id="123456" class="fil1" d="M99.883 77.9283c-0.709876,1.67911 -1.70643,2.97601 -2.98509,3.89061 -1.27865,0.914693 -2.7348,1.37428 -4.35927,1.37428 -0.896444,0 -1.76108,-0.177494 -2.59381,-0.527896 -0.828138,-0.350401 -1.56534,-0.85546 -2.20691,-1.51069 -0.664406,-0.678068 -1.16947,-1.438 -1.51079,-2.2798 -0.341226,-0.846387 -0.514234,-1.74283 -0.514234,-2.69392 0,-0.950987 0.173009,-1.84743 0.514234,-2.69382 0.341328,-0.841799 0.846387,-1.60173 1.51079,-2.2798 0.64157,-0.646157 1.36969,-1.14673 2.19324,-1.49254 0.823652,-0.345813 1.69277,-0.51872 2.60747,-0.51872 1.36969,0 2.59829,0.364063 3.69038,1.0875 1.09209,0.723537 1.99312,1.77923 2.69382,3.16717l-6.54344 4.45031 -1.63823 -2.48003 3.54031 -2.46178c-0.23214,-0.154658 -0.468765,-0.268434 -0.719051,-0.341226 -0.250185,-0.0773798 -0.505059,-0.113776 -0.773493,-0.113776 -0.832725,0 -1.5426,0.318491 -2.12963,0.950987 -0.587027,0.637084 -0.878297,1.41527 -0.878297,2.33893 0,0.942016 0.286683,1.73376 0.864636,2.37084 0.577851,0.64157 1.28324,0.960163 2.12045,0.960163 0.78277,0 1.50621,-0.236625 2.17969,-0.70539 0.668892,-0.473251 1.23777,-1.1558 1.71102,-2.05225l3.2262 1.56085z"/>
  <path id="1234567" class="fil1" d="M101.389 82.952l0 -13.5194 3.90437 0 0 2.02493c0.427679,-0.700802 0.97831,-1.21493 1.65179,-1.53801 0.677966,-0.323079 1.53801,-0.486912 2.58922,-0.486912l0.505059 0 0 4.09084 -0.186568 0c-1.53801,0 -2.64386,0.341328 -3.32642,1.01929 -0.677966,0.682553 -1.01929,1.7883 -1.01929,3.32642l0 5.08281 -4.11816 0z"/>
  <path class="fil1" d="M21.6583 91.5845l0.433796 0 0.0262011 -0.20186 -0.433796 0 0.105416 -0.780017 0.433796 0 0.0262011 -0.20186 -0.433796 0 0.140589 -1.01634 -0.219804 0 -0.144361 1.01634 -0.591512 0 0.139875 -1.01634 -0.218376 0 -0.145074 1.01634 -0.381394 0 -0.0262011 0.20186 0.381394 0 -0.0964444 0.780017 -0.381394 0 -0.0262011 0.20186 0.376908 0 -0.136103 1.02531 0.215318 0 0.144361 -1.02531 0.587027 0 -0.131617 1.02531 0.214604 0 0.140589 -1.02531zm-0.0919587 -0.981878l-0.0964444 0.780017 -0.600484 0 0.105416 -0.780017 0.591512 0z"/>
  <polygon id="1" class="fil1" points="24.5846,92.6098 24.8478,92.6098 24.8478,90.068 25.3736,92.6098 25.6271,92.6098 26.1528,90.068 26.1528,92.6098 26.416,92.6098 26.416,89.3799 26.0518,89.3799 25.8985,90.059 25.5045,91.9697 25.0931,90.0418 24.9525,89.3799 24.5846,89.3799 "/>
  <polygon id="12" class="fil1" points="28.8644,92.6098 30.6921,92.6098 30.6921,92.3428 29.1583,92.3428 29.1583,91.0851 30.4775,91.0851 30.4775,90.818 29.1583,90.818 29.1583,89.647 30.6353,89.647 30.6353,89.3799 28.8644,89.3799 "/>
  <path id="123" class="fil1" d="M33.1577 92.6098l0.293921 0 0 -1.44177 0.60864 0c0.178004,0 0.299222,0.0441442 0.363451,0.131617 0.0613737,0.0874729 0.103989,0.27139 0.127131,0.551854l0.0306869 0.425538c0.00897158,0.0785013 0.0194724,0.144361 0.0306869,0.196661 0.0119281,0.0560724 0.0269147,0.10093 0.0441442,0.136103l0.328278 0 0 -0.0441442c-0.0291576,-0.0260991 -0.0524022,-0.062801 -0.0703453,-0.109188 -0.0171276,-0.0523002 -0.0291576,-0.115101 -0.0343571,-0.188403l-0.0396584 -0.48681c-0.020186,-0.239378 -0.0508729,-0.40158 -0.0919587,-0.486096 -0.0524022,-0.122646 -0.156289,-0.208691 -0.311151,-0.258748 0.16679,-0.0613737 0.294635,-0.159347 0.38588,-0.293207 0.0905314,-0.13753 0.135389,-0.305849 0.135389,-0.503938 0,-0.266293 -0.0964444,-0.479368 -0.289435,-0.640142 -0.174946,-0.14589 -0.386593,-0.219192 -0.634841,-0.219192l-0.876462 0 0 3.22987zm0.293921 -1.70878l0 -1.25408 0.643813 0c0.137632,0 0.260278,0.0508729 0.367937,0.153332 0.125602,0.117344 0.188505,0.266191 0.188505,0.447152 0,0.225105 -0.062903,0.393424 -0.188505,0.504753 -0.110615,0.0995029 -0.274449,0.148847 -0.490582,0.148847l-0.521167 0z"/>
  <path id="1234" class="fil1" d="M38.993 91.5539c-0.020186,0.263234 -0.0950172,0.477838 -0.223576,0.644628 -0.116732,0.157716 -0.251306,0.236319 -0.403109,0.236319 -0.222148,0 -0.400051,-0.125704 -0.534726,-0.376908 -0.139773,-0.263234 -0.210118,-0.620772 -0.210118,-1.07394 0,-0.450108 0.0672868,-0.802344 0.201962,-1.05661 0.13386,-0.242335 0.312578,-0.363451 0.533911,-0.363451 0.134574,0 0.260278,0.0672868 0.376908,0.20186 0.128559,0.14589 0.206346,0.331337 0.232547,0.556442l0.289435 0c-0.0172295,-0.30065 -0.115203,-0.548897 -0.293921,-0.744845 -0.171989,-0.186976 -0.373952,-0.280464 -0.604256,-0.280464 -0.309621,0 -0.559296,0.147317 -0.749331,0.442768 -0.195845,0.306563 -0.293819,0.723129 -0.293819,1.24878 0,0.528711 0.0964444,0.947521 0.289333,1.25786 0.186976,0.303606 0.436753,0.455409 0.749331,0.455409 0.242335,0 0.449496,-0.102459 0.622199,-0.306563 0.180961,-0.213177 0.28495,-0.493539 0.311151,-0.841289l-0.293921 0z"/>
  <path id="12345" class="fil1" d="M43.0238 91.6234l0.271492 0.986364 0.284848 0 -0.893589 -3.29491 -0.280464 0 -0.871976 3.29491 0.280464 0 0.249777 -0.986364 0.959449 0zm-0.889206 -0.249777l0.406881 -1.61601 0.416465 1.61601 -0.823346 0z"/>
  <path id="123456" class="fil1" d="M46.603 89.3799l-0.709774 0 0 3.22987 0.775532 0c0.326851,0 0.591512,-0.137632 0.792659,-0.412081 0.213177,-0.289333 0.320122,-0.692443 0.320122,-1.20923 0,-0.505467 -0.106945,-0.90409 -0.320122,-1.19648 -0.204103,-0.274449 -0.468867,-0.412081 -0.792659,-0.412081l-0.0657576 0zm-0.415853 2.96286l0 -2.69586 0.407595 0c0.277405,0 0.492009,0.112145 0.643813,0.33725 0.157818,0.23112 0.236319,0.56837 0.236319,1.01256 0,0.453167 -0.0785013,0.793475 -0.236319,1.02154 -0.146502,0.216133 -0.361106,0.324506 -0.643813,0.324506l-0.407595 0z"/>
  <path id="1234567" class="fil1" d="M50.1334 90.9975c0,0.522798 0.0845163,0.937836 0.254263,1.2444 0.171989,0.306665 0.403109,0.459895 0.692545,0.459895 0.292392,0 0.525653,-0.15323 0.701414,-0.459895 0.178004,-0.306563 0.267006,-0.7216 0.267006,-1.2444 0,-0.526468 -0.0890021,-0.942219 -0.267006,-1.24878 -0.175761,-0.301363 -0.409022,-0.451739 -0.701414,-0.451739 -0.289435,0 -0.520555,0.150376 -0.692545,0.451739 -0.169746,0.306563 -0.254263,0.722314 -0.254263,1.24878zm0.293921 0c0,-0.447152 0.0598445,-0.800917 0.179533,-1.06038 0.11663,-0.251204 0.274449,-0.376908 0.473353,-0.376908 0.201147,0 0.363451,0.125704 0.486096,0.376908 0.125602,0.257219 0.188403,0.610271 0.188403,1.06038 0,0.446438 -0.062801,0.800203 -0.188403,1.05967 -0.122646,0.254263 -0.28495,0.381394 -0.486096,0.381394 -0.201962,0 -0.360494,-0.127131 -0.477838,-0.381394 -0.116732,-0.259462 -0.175048,-0.613228 -0.175048,-1.05967z"/>
  <path id="12345678" class="fil1" d="M59.3908 89.3799l-0.709774 0 0 3.22987 0.775532 0c0.326851,0 0.591512,-0.137632 0.792659,-0.412081 0.213177,-0.289333 0.320122,-0.692443 0.320122,-1.20923 0,-0.505467 -0.106945,-0.90409 -0.320122,-1.19648 -0.204103,-0.274449 -0.468867,-0.412081 -0.792659,-0.412081l-0.0657576 0zm-0.415853 2.96286l0 -2.69586 0.407595 0c0.277405,0 0.492009,0.112145 0.643813,0.33725 0.157818,0.23112 0.236319,0.56837 0.236319,1.01256 0,0.453167 -0.0785013,0.793475 -0.236319,1.02154 -0.146502,0.216133 -0.361106,0.324506 -0.643813,0.324506l-0.407595 0z"/>
  <polygon id="123456789" class="fil1" points="62.9654,92.6098 64.793,92.6098 64.793,92.3428 63.2593,92.3428 63.2593,91.0851 64.5784,91.0851 64.5784,90.818 63.2593,90.818 63.2593,89.647 64.7362,89.647 64.7362,89.3799 62.9654,89.3799 "/>
  <path id="12345678910" class="fil1" d="M72.8621 91.6234l0.271492 0.986364 0.284848 0 -0.893589 -3.29491 -0.280464 0 -0.871976 3.29491 0.280464 0 0.249777 -0.986364 0.959449 0zm-0.889206 -0.249777l0.406881 -1.61601 0.416465 1.61601 -0.823346 0z"/>
  <path id="1234567891011" class="fil1" d="M75.7488 89.3799l0 2.41478c0,0.289333 0.0890021,0.515254 0.267006,0.678985 0.163731,0.151803 0.375379,0.228062 0.635657,0.228062 0.257219,0 0.468867,-0.0762584 0.635657,-0.228062 0.177902,-0.163731 0.266904,-0.389652 0.266904,-0.678985l0 -2.41478 -0.293819 0 0 2.41478c0,0.210832 -0.0584172,0.371607 -0.175048,0.482324 -0.108373,0.105416 -0.252733,0.157818 -0.433694,0.157818 -0.180961,0 -0.325322,-0.0524022 -0.433796,-0.157818 -0.11663,-0.113674 -0.174946,-0.274449 -0.174946,-0.482324l0 -2.41478 -0.293921 0z"/>
  <polygon id="123456789101112" class="fil1" points="80.7742,92.6098 81.0681,92.6098 81.0681,89.647 81.8742,89.647 81.8742,89.3799 79.9725,89.3799 79.9725,89.647 80.7742,89.647 "/>
  <path id="12345678910111213" class="fil1" d="M84.2343 90.9975c0,0.522798 0.0845163,0.937836 0.254263,1.2444 0.171989,0.306665 0.403109,0.459895 0.692545,0.459895 0.292392,0 0.525653,-0.15323 0.701414,-0.459895 0.178004,-0.306563 0.267006,-0.7216 0.267006,-1.2444 0,-0.526468 -0.0890021,-0.942219 -0.267006,-1.24878 -0.175761,-0.301363 -0.409022,-0.451739 -0.701414,-0.451739 -0.289435,0 -0.520555,0.150376 -0.692545,0.451739 -0.169746,0.306563 -0.254263,0.722314 -0.254263,1.24878zm0.293921 0c0,-0.447152 0.0598445,-0.800917 0.179533,-1.06038 0.11663,-0.251204 0.274449,-0.376908 0.473353,-0.376908 0.201147,0 0.363451,0.125704 0.486096,0.376908 0.125602,0.257219 0.188403,0.610271 0.188403,1.06038 0,0.446438 -0.062801,0.800203 -0.188403,1.05967 -0.122646,0.254263 -0.28495,0.381394 -0.486096,0.381394 -0.201962,0 -0.360494,-0.127131 -0.477838,-0.381394 -0.116732,-0.259462 -0.175048,-0.613228 -0.175048,-1.05967z"/>
  <path id="1234567891011121314" class="fil1" d="M88.5546 92.6098l0.293921 0 0 -1.39763 0.503326 0c0.33572,0 0.59294,-0.0777876 0.770944,-0.232649 0.186976,-0.15476 0.280464,-0.383637 0.280464,-0.687957 0,-0.30065 -0.0845163,-0.528711 -0.254263,-0.683471 -0.160775,-0.151803 -0.392608,-0.228164 -0.696215,-0.228164l-0.898177 0 0 3.22987zm0.293921 -1.66464l0 -1.29823 0.591512 0c0.213177,0 0.374665,0.0508729 0.486096,0.153332 0.11663,0.105416 0.174946,0.266191 0.174946,0.482324 0,0.23112 -0.0672868,0.402294 -0.201147,0.513725 -0.122646,0.0995029 -0.303606,0.148847 -0.543596,0.148847l-0.507812 0z"/>
  <path id="123456789101112131415" class="fil1" d="M94.1753 91.6234l0.271492 0.986364 0.284848 0 -0.893589 -3.29491 -0.280464 0 -0.871976 3.29491 0.280464 0 0.249777 -0.986364 0.959449 0zm-0.889206 -0.249777l0.406881 -1.61601 0.416465 1.61601 -0.823346 0z"/>
  <path id="12345678910111213141516" class="fil1" d="M97.097 92.6098l0.293921 0 0 -1.44177 0.60864 0c0.178004,0 0.299222,0.0441442 0.363451,0.131617 0.0613737,0.0874729 0.103989,0.27139 0.127131,0.551854l0.0306869 0.425538c0.00897158,0.0785013 0.0194724,0.144361 0.0306869,0.196661 0.0119281,0.0560724 0.0269147,0.10093 0.0441442,0.136103l0.328278 0 0 -0.0441442c-0.0291576,-0.0260991 -0.0524022,-0.062801 -0.0703453,-0.109188 -0.0171276,-0.0523002 -0.0291576,-0.115101 -0.0343571,-0.188403l-0.0396584 -0.48681c-0.020186,-0.239378 -0.0508729,-0.40158 -0.0919587,-0.486096 -0.0524022,-0.122646 -0.156289,-0.208691 -0.311151,-0.258748 0.16679,-0.0613737 0.294635,-0.159347 0.38588,-0.293207 0.0905314,-0.13753 0.135389,-0.305849 0.135389,-0.503938 0,-0.266293 -0.0964444,-0.479368 -0.289435,-0.640142 -0.174946,-0.14589 -0.386593,-0.219192 -0.634841,-0.219192l-0.876462 0 0 3.22987zm0.293921 -1.70878l0 -1.25408 0.643813 0c0.137632,0 0.260278,0.0508729 0.367937,0.153332 0.125602,0.117344 0.188505,0.266191 0.188505,0.447152 0,0.225105 -0.062903,0.393424 -0.188505,0.504753 -0.110615,0.0995029 -0.274449,0.148847 -0.490582,0.148847l-0.521167 0z"/>
  <polygon id="1234567891011121314151617" class="fil1" points="102.087,92.6098 102.381,92.6098 102.381,89.647 103.187,89.647 103.187,89.3799 101.286,89.3799 101.286,89.647 102.087,89.647 "/>
  <polygon id="123456789101112131415161718" class="fil1" points="105.592,92.6098 107.419,92.6098 107.419,92.3428 105.886,92.3428 105.886,91.0851 107.205,91.0851 107.205,90.818 105.886,90.818 105.886,89.647 107.362,89.647 107.362,89.3799 105.592,89.3799 "/>
  <path id="12345678910111213141516171819" class="fil1" d="M109.776 91.6279l0 0.0224289c0,0.326749 0.0964444,0.585497 0.289435,0.775532 0.186976,0.183917 0.434408,0.275876 0.744029,0.275876 0.263234,0 0.483853,-0.0845163 0.661858,-0.254263 0.183917,-0.174946 0.275978,-0.403007 0.275978,-0.683471 0,-0.257219 -0.0718746,-0.461424 -0.214706,-0.613941 -0.131617,-0.136918 -0.340206,-0.24835 -0.626685,-0.332764 -0.0844144,-0.0291576 -0.169746,-0.0598445 -0.254263,-0.0920606 -0.119587,-0.0260991 -0.233261,-0.0874729 -0.341736,-0.183917 -0.102459,-0.0934879 -0.15323,-0.217663 -0.15323,-0.372422 0,-0.183917 0.056786,-0.333478 0.171174,-0.447152 0.104702,-0.105518 0.237849,-0.157818 0.398623,-0.157818 0.171989,0 0.315534,0.0612718 0.429208,0.183917 0.125704,0.131617 0.190034,0.308908 0.192991,0.530954l0.306563 0c-0.00591308,-0.303606 -0.0964444,-0.545125 -0.27139,-0.723129 -0.169746,-0.172703 -0.382923,-0.258748 -0.640142,-0.258748 -0.24835,0 -0.458468,0.0800305 -0.630457,0.240805 -0.175761,0.163833 -0.263234,0.372422 -0.263234,0.626685 0,0.242335 0.0717726,0.432267 0.214604,0.569797 0.116732,0.110717 0.321651,0.211648 0.614043,0.302179 0.294635,0.0904294 0.494966,0.186976 0.599668,0.289435 0.111431,0.105416 0.16679,0.263234 0.16679,0.473353 0,0.186874 -0.0643303,0.340206 -0.192889,0.460609 -0.119689,0.11663 -0.265477,0.175048 -0.438282,0.175048 -0.210118,0 -0.382108,-0.0718746 -0.516681,-0.214706 -0.142832,-0.14956 -0.214706,-0.346935 -0.214706,-0.592226l-0.306563 0z"/>
  <path id="1234567891011121314151617181920" class="fil2 str1" d="M21.6583 91.5845l0.433796 0 0.0262011 -0.20186 -0.433796 0 0.105416 -0.780017 0.433796 0 0.0262011 -0.20186 -0.433796 0 0.140589 -1.01634 -0.219804 0 -0.144361 1.01634 -0.591512 0 0.139875 -1.01634 -0.218376 0 -0.145074 1.01634 -0.381394 0 -0.0262011 0.20186 0.381394 0 -0.0964444 0.780017 -0.381394 0 -0.0262011 0.20186 0.376908 0 -0.136103 1.02531 0.215318 0 0.144361 -1.02531 0.587027 0 -0.131617 1.02531 0.214604 0 0.140589 -1.02531zm-0.0919587 -0.981878l-0.0964444 0.780017 -0.600484 0 0.105416 -0.780017 0.591512 0z"/>
  <polygon id="123456789101112131415161718192021" class="fil2 str1" points="24.5846,92.6098 24.8478,92.6098 24.8478,90.068 25.3736,92.6098 25.6271,92.6098 26.1528,90.068 26.1528,92.6098 26.416,92.6098 26.416,89.3799 26.0518,89.3799 25.8985,90.059 25.5045,91.9697 25.0931,90.0418 24.9525,89.3799 24.5846,89.3799 "/>
  <polygon id="12345678910111213141516171819202122" class="fil2 str1" points="28.8644,92.6098 30.6921,92.6098 30.6921,92.3428 29.1583,92.3428 29.1583,91.0851 30.4775,91.0851 30.4775,90.818 29.1583,90.818 29.1583,89.647 30.6353,89.647 30.6353,89.3799 28.8644,89.3799 "/>
  <path id="1234567891011121314151617181920212223" class="fil2 str1" d="M33.1577 92.6098l0.293921 0 0 -1.44177 0.60864 0c0.178004,0 0.299222,0.0441442 0.363451,0.131617 0.0613737,0.0874729 0.103989,0.27139 0.127131,0.551854l0.0306869 0.425538c0.00897158,0.0785013 0.0194724,0.144361 0.0306869,0.196661 0.0119281,0.0560724 0.0269147,0.10093 0.0441442,0.136103l0.328278 0 0 -0.0441442c-0.0291576,-0.0260991 -0.0524022,-0.062801 -0.0703453,-0.109188 -0.0171276,-0.0523002 -0.0291576,-0.115101 -0.0343571,-0.188403l-0.0396584 -0.48681c-0.020186,-0.239378 -0.0508729,-0.40158 -0.0919587,-0.486096 -0.0524022,-0.122646 -0.156289,-0.208691 -0.311151,-0.258748 0.16679,-0.0613737 0.294635,-0.159347 0.38588,-0.293207 0.0905314,-0.13753 0.135389,-0.305849 0.135389,-0.503938 0,-0.266293 -0.0964444,-0.479368 -0.289435,-0.640142 -0.174946,-0.14589 -0.386593,-0.219192 -0.634841,-0.219192l-0.876462 0 0 3.22987zm0.293921 -1.70878l0 -1.25408 0.643813 0c0.137632,0 0.260278,0.0508729 0.367937,0.153332 0.125602,0.117344 0.188505,0.266191 0.188505,0.447152 0,0.225105 -0.062903,0.393424 -0.188505,0.504753 -0.110615,0.0995029 -0.274449,0.148847 -0.490582,0.148847l-0.521167 0z"/>
  <path id="123456789101112131415161718192021222324" class="fil2 str1" d="M38.993 91.5539c-0.020186,0.263234 -0.0950172,0.477838 -0.223576,0.644628 -0.116732,0.157716 -0.251306,0.236319 -0.403109,0.236319 -0.222148,0 -0.400051,-0.125704 -0.534726,-0.376908 -0.139773,-0.263234 -0.210118,-0.620772 -0.210118,-1.07394 0,-0.450108 0.0672868,-0.802344 0.201962,-1.05661 0.13386,-0.242335 0.312578,-0.363451 0.533911,-0.363451 0.134574,0 0.260278,0.0672868 0.376908,0.20186 0.128559,0.14589 0.206346,0.331337 0.232547,0.556442l0.289435 0c-0.0172295,-0.30065 -0.115203,-0.548897 -0.293921,-0.744845 -0.171989,-0.186976 -0.373952,-0.280464 -0.604256,-0.280464 -0.309621,0 -0.559296,0.147317 -0.749331,0.442768 -0.195845,0.306563 -0.293819,0.723129 -0.293819,1.24878 0,0.528711 0.0964444,0.947521 0.289333,1.25786 0.186976,0.303606 0.436753,0.455409 0.749331,0.455409 0.242335,0 0.449496,-0.102459 0.622199,-0.306563 0.180961,-0.213177 0.28495,-0.493539 0.311151,-0.841289l-0.293921 0z"/>
  <path id="12345678910111213141516171819202122232425" class="fil2 str1" d="M43.0238 91.6234l0.271492 0.986364 0.284848 0 -0.893589 -3.29491 -0.280464 0 -0.871976 3.29491 0.280464 0 0.249777 -0.986364 0.959449 0zm-0.889206 -0.249777l0.406881 -1.61601 0.416465 1.61601 -0.823346 0z"/>
  <path id="1234567891011121314151617181920212223242526" class="fil2 str1" d="M46.603 89.3799l-0.709774 0 0 3.22987 0.775532 0c0.326851,0 0.591512,-0.137632 0.792659,-0.412081 0.213177,-0.289333 0.320122,-0.692443 0.320122,-1.20923 0,-0.505467 -0.106945,-0.90409 -0.320122,-1.19648 -0.204103,-0.274449 -0.468867,-0.412081 -0.792659,-0.412081l-0.0657576 0zm-0.415853 2.96286l0 -2.69586 0.407595 0c0.277405,0 0.492009,0.112145 0.643813,0.33725 0.157818,0.23112 0.236319,0.56837 0.236319,1.01256 0,0.453167 -0.0785013,0.793475 -0.236319,1.02154 -0.146502,0.216133 -0.361106,0.324506 -0.643813,0.324506l-0.407595 0z"/>
  <path id="123456789101112131415161718192021222324252627" class="fil2 str1" d="M50.1334 90.9975c0,0.522798 0.0845163,0.937836 0.254263,1.2444 0.171989,0.306665 0.403109,0.459895 0.692545,0.459895 0.292392,0 0.525653,-0.15323 0.701414,-0.459895 0.178004,-0.306563 0.267006,-0.7216 0.267006,-1.2444 0,-0.526468 -0.0890021,-0.942219 -0.267006,-1.24878 -0.175761,-0.301363 -0.409022,-0.451739 -0.701414,-0.451739 -0.289435,0 -0.520555,0.150376 -0.692545,0.451739 -0.169746,0.306563 -0.254263,0.722314 -0.254263,1.24878zm0.293921 0c0,-0.447152 0.0598445,-0.800917 0.179533,-1.06038 0.11663,-0.251204 0.274449,-0.376908 0.473353,-0.376908 0.201147,0 0.363451,0.125704 0.486096,0.376908 0.125602,0.257219 0.188403,0.610271 0.188403,1.06038 0,0.446438 -0.062801,0.800203 -0.188403,1.05967 -0.122646,0.254263 -0.28495,0.381394 -0.486096,0.381394 -0.201962,0 -0.360494,-0.127131 -0.477838,-0.381394 -0.116732,-0.259462 -0.175048,-0.613228 -0.175048,-1.05967z"/>
  <path id="12345678910111213141516171819202122232425262728" class="fil2 str1" d="M59.3908 89.3799l-0.709774 0 0 3.22987 0.775532 0c0.326851,0 0.591512,-0.137632 0.792659,-0.412081 0.213177,-0.289333 0.320122,-0.692443 0.320122,-1.20923 0,-0.505467 -0.106945,-0.90409 -0.320122,-1.19648 -0.204103,-0.274449 -0.468867,-0.412081 -0.792659,-0.412081l-0.0657576 0zm-0.415853 2.96286l0 -2.69586 0.407595 0c0.277405,0 0.492009,0.112145 0.643813,0.33725 0.157818,0.23112 0.236319,0.56837 0.236319,1.01256 0,0.453167 -0.0785013,0.793475 -0.236319,1.02154 -0.146502,0.216133 -0.361106,0.324506 -0.643813,0.324506l-0.407595 0z"/>
  <polygon id="1234567891011121314151617181920212223242526272829" class="fil2 str1" points="62.9654,92.6098 64.793,92.6098 64.793,92.3428 63.2593,92.3428 63.2593,91.0851 64.5784,91.0851 64.5784,90.818 63.2593,90.818 63.2593,89.647 64.7362,89.647 64.7362,89.3799 62.9654,89.3799 "/>
  <path id="123456789101112131415161718192021222324252627282930" class="fil2 str1" d="M72.8621 91.6234l0.271492 0.986364 0.284848 0 -0.893589 -3.29491 -0.280464 0 -0.871976 3.29491 0.280464 0 0.249777 -0.986364 0.959449 0zm-0.889206 -0.249777l0.406881 -1.61601 0.416465 1.61601 -0.823346 0z"/>
  <path id="12345678910111213141516171819202122232425262728293031" class="fil2 str1" d="M75.7488 89.3799l0 2.41478c0,0.289333 0.0890021,0.515254 0.267006,0.678985 0.163731,0.151803 0.375379,0.228062 0.635657,0.228062 0.257219,0 0.468867,-0.0762584 0.635657,-0.228062 0.177902,-0.163731 0.266904,-0.389652 0.266904,-0.678985l0 -2.41478 -0.293819 0 0 2.41478c0,0.210832 -0.0584172,0.371607 -0.175048,0.482324 -0.108373,0.105416 -0.252733,0.157818 -0.433694,0.157818 -0.180961,0 -0.325322,-0.0524022 -0.433796,-0.157818 -0.11663,-0.113674 -0.174946,-0.274449 -0.174946,-0.482324l0 -2.41478 -0.293921 0z"/>
  <polygon id="1234567891011121314151617181920212223242526272829303132" class="fil2 str1" points="80.7742,92.6098 81.0681,92.6098 81.0681,89.647 81.8742,89.647 81.8742,89.3799 79.9725,89.3799 79.9725,89.647 80.7742,89.647 "/>
  <path id="123456789101112131415161718192021222324252627282930313233" class="fil2 str1" d="M84.2343 90.9975c0,0.522798 0.0845163,0.937836 0.254263,1.2444 0.171989,0.306665 0.403109,0.459895 0.692545,0.459895 0.292392,0 0.525653,-0.15323 0.701414,-0.459895 0.178004,-0.306563 0.267006,-0.7216 0.267006,-1.2444 0,-0.526468 -0.0890021,-0.942219 -0.267006,-1.24878 -0.175761,-0.301363 -0.409022,-0.451739 -0.701414,-0.451739 -0.289435,0 -0.520555,0.150376 -0.692545,0.451739 -0.169746,0.306563 -0.254263,0.722314 -0.254263,1.24878zm0.293921 0c0,-0.447152 0.0598445,-0.800917 0.179533,-1.06038 0.11663,-0.251204 0.274449,-0.376908 0.473353,-0.376908 0.201147,0 0.363451,0.125704 0.486096,0.376908 0.125602,0.257219 0.188403,0.610271 0.188403,1.06038 0,0.446438 -0.062801,0.800203 -0.188403,1.05967 -0.122646,0.254263 -0.28495,0.381394 -0.486096,0.381394 -0.201962,0 -0.360494,-0.127131 -0.477838,-0.381394 -0.116732,-0.259462 -0.175048,-0.613228 -0.175048,-1.05967z"/>
  <path id="12345678910111213141516171819202122232425262728293031323334" class="fil2 str1" d="M88.5546 92.6098l0.293921 0 0 -1.39763 0.503326 0c0.33572,0 0.59294,-0.0777876 0.770944,-0.232649 0.186976,-0.15476 0.280464,-0.383637 0.280464,-0.687957 0,-0.30065 -0.0845163,-0.528711 -0.254263,-0.683471 -0.160775,-0.151803 -0.392608,-0.228164 -0.696215,-0.228164l-0.898177 0 0 3.22987zm0.293921 -1.66464l0 -1.29823 0.591512 0c0.213177,0 0.374665,0.0508729 0.486096,0.153332 0.11663,0.105416 0.174946,0.266191 0.174946,0.482324 0,0.23112 -0.0672868,0.402294 -0.201147,0.513725 -0.122646,0.0995029 -0.303606,0.148847 -0.543596,0.148847l-0.507812 0z"/>
  <path id="1234567891011121314151617181920212223242526272829303132333435" class="fil2 str1" d="M94.1753 91.6234l0.271492 0.986364 0.284848 0 -0.893589 -3.29491 -0.280464 0 -0.871976 3.29491 0.280464 0 0.249777 -0.986364 0.959449 0zm-0.889206 -0.249777l0.406881 -1.61601 0.416465 1.61601 -0.823346 0z"/>
  <path id="123456789101112131415161718192021222324252627282930313233343536" class="fil2 str1" d="M97.097 92.6098l0.293921 0 0 -1.44177 0.60864 0c0.178004,0 0.299222,0.0441442 0.363451,0.131617 0.0613737,0.0874729 0.103989,0.27139 0.127131,0.551854l0.0306869 0.425538c0.00897158,0.0785013 0.0194724,0.144361 0.0306869,0.196661 0.0119281,0.0560724 0.0269147,0.10093 0.0441442,0.136103l0.328278 0 0 -0.0441442c-0.0291576,-0.0260991 -0.0524022,-0.062801 -0.0703453,-0.109188 -0.0171276,-0.0523002 -0.0291576,-0.115101 -0.0343571,-0.188403l-0.0396584 -0.48681c-0.020186,-0.239378 -0.0508729,-0.40158 -0.0919587,-0.486096 -0.0524022,-0.122646 -0.156289,-0.208691 -0.311151,-0.258748 0.16679,-0.0613737 0.294635,-0.159347 0.38588,-0.293207 0.0905314,-0.13753 0.135389,-0.305849 0.135389,-0.503938 0,-0.266293 -0.0964444,-0.479368 -0.289435,-0.640142 -0.174946,-0.14589 -0.386593,-0.219192 -0.634841,-0.219192l-0.876462 0 0 3.22987zm0.293921 -1.70878l0 -1.25408 0.643813 0c0.137632,0 0.260278,0.0508729 0.367937,0.153332 0.125602,0.117344 0.188505,0.266191 0.188505,0.447152 0,0.225105 -0.062903,0.393424 -0.188505,0.504753 -0.110615,0.0995029 -0.274449,0.148847 -0.490582,0.148847l-0.521167 0z"/>
  <polygon id="12345678910111213141516171819202122232425262728293031323334353637" class="fil2 str1" points="102.087,92.6098 102.381,92.6098 102.381,89.647 103.187,89.647 103.187,89.3799 101.286,89.3799 101.286,89.647 102.087,89.647 "/>
  <polygon id="1234567891011121314151617181920212223242526272829303132333435363738" class="fil2 str1" points="105.592,92.6098 107.419,92.6098 107.419,92.3428 105.886,92.3428 105.886,91.0851 107.205,91.0851 107.205,90.818 105.886,90.818 105.886,89.647 107.362,89.647 107.362,89.3799 105.592,89.3799 "/>
  <path id="123456789101112131415161718192021222324252627282930313233343536373839" class="fil2 str1" d="M109.776 91.6279l0 0.0224289c0,0.326749 0.0964444,0.585497 0.289435,0.775532 0.186976,0.183917 0.434408,0.275876 0.744029,0.275876 0.263234,0 0.483853,-0.0845163 0.661858,-0.254263 0.183917,-0.174946 0.275978,-0.403007 0.275978,-0.683471 0,-0.257219 -0.0718746,-0.461424 -0.214706,-0.613941 -0.131617,-0.136918 -0.340206,-0.24835 -0.626685,-0.332764 -0.0844144,-0.0291576 -0.169746,-0.0598445 -0.254263,-0.0920606 -0.119587,-0.0260991 -0.233261,-0.0874729 -0.341736,-0.183917 -0.102459,-0.0934879 -0.15323,-0.217663 -0.15323,-0.372422 0,-0.183917 0.056786,-0.333478 0.171174,-0.447152 0.104702,-0.105518 0.237849,-0.157818 0.398623,-0.157818 0.171989,0 0.315534,0.0612718 0.429208,0.183917 0.125704,0.131617 0.190034,0.308908 0.192991,0.530954l0.306563 0c-0.00591308,-0.303606 -0.0964444,-0.545125 -0.27139,-0.723129 -0.169746,-0.172703 -0.382923,-0.258748 -0.640142,-0.258748 -0.24835,0 -0.458468,0.0800305 -0.630457,0.240805 -0.175761,0.163833 -0.263234,0.372422 -0.263234,0.626685 0,0.242335 0.0717726,0.432267 0.214604,0.569797 0.116732,0.110717 0.321651,0.211648 0.614043,0.302179 0.294635,0.0904294 0.494966,0.186976 0.599668,0.289435 0.111431,0.105416 0.16679,0.263234 0.16679,0.473353 0,0.186874 -0.0643303,0.340206 -0.192889,0.460609 -0.119689,0.11663 -0.265477,0.175048 -0.438282,0.175048 -0.210118,0 -0.382108,-0.0718746 -0.516681,-0.214706 -0.142832,-0.14956 -0.214706,-0.346935 -0.214706,-0.592226l-0.306563 0z"/>
  <ellipse class="fil3 str2" cx="78.4855" cy="53.5954" rx="6.03855" ry="6.0493"/>
  <path class="fil3 str3" d="M70.5184 44.1151l-1.20321 1.09239 0 11.0743c0.322161,1.44993 0.930189,2.49206 1.9554,2.93799"/>
  <line class="fil3 str3" x1="70.7818" y1="45.2055" x2="86.3487" y2= "45.2055" />
  <polyline class="fil3 str3" points="45.363,38.2389 50.6649,38.2389 58.0725,45.2075 69.3152,45.2075 70.5184,44.1151 "/>
  <path class="fil3 str3" d="M58.6607 45.5557c-2.73246,3.07042 -5.88556,5.66953 -9.32514,7.9478 4.99391,4.31207 10.7738,6.88721 17.5975,7.15697 -2.49451,-4.01315 -3.87603,-8.29698 -4.02426,-12.8807l-4.45327 -1.99679 -0.17097 -0.0766662 -6.84348 -4.18116 -4.39933 0"/>
  <polyline class="fil3 str2" points="58.0725,45.2075 50.6649,38.2389 45.363,38.2389 "/>
 </g>
</svg>
