<?xml version="1.0" encoding="UTF-8"?>
<!DOCTYPE svg PUBLIC "-//W3C//DTD SVG 1.1//EN" "http://www.w3.org/Graphics/SVG/1.1/DTD/svg11.dtd">
<!-- Creator: CorelDRAW -->
<svg xmlns="http://www.w3.org/2000/svg" xml:space="preserve" width="87.0588mm" height="45.5946mm" style="shape-rendering:geometricPrecision; text-rendering:geometricPrecision; image-rendering:optimizeQuality; fill-rule:evenodd; clip-rule:evenodd"
viewBox="0 0 89.1106 46.6692"
 xmlns:xlink="http://www.w3.org/1999/xlink">
 <defs>
  <style type="text/css">
   <![CDATA[
    .str1 {stroke:#1F1A17;stroke-width:2.55892}
    .str0 {stroke:#1F1A17;stroke-width:3.07071}
    .fil1 {fill:none}
    .fil0 {fill:#1F1A17;fill-rule:nonzero}
   ]]>
  </style>
 </defs>
 <g id="Capa_x0020_1">
  <metadata id="CorelCorpID_0Corel-Layer"/>
  <path class="fil0" d="M20.7964 32.8537l0 7.16355c0,2.01019 -0.534507,3.61842 -1.60823,4.8336 -1.06901,1.21068 -2.467,1.81837 -4.19847,1.81837 -0.785794,0 -1.52594,-0.150772 -2.21582,-0.447811 -0.689885,-0.301441 -1.29748,-0.735536 -1.81376,-1.30659 -0.534507,0.561939 -1.13759,0.995932 -1.80455,1.29748 -0.671563,0.306149 -1.35684,0.456921 -2.06505,0.456921 -1.80005,0 -3.24369,-0.598481 -4.33563,-1.80005 -1.08734,-1.20157 -1.63095,-2.81891 -1.63095,-4.85192l0 -7.16355 4.18947 0 0 7.8215c0,0.552727 0.168991,1.00504 0.507076,1.35684 0.338085,0.3518 0.762968,0.529901 1.27004,0.529901 0.520894,0 0.941171,-0.178101 1.27465,-0.529901 0.328975,-0.3518 0.493462,-0.804115 0.493462,-1.35684l0 -7.8215 4.2168 0 0 7.8215c0,0.552727 0.164487,1.00504 0.49336,1.35684 0.333581,0.3518 0.749252,0.529901 1.26104,0.529901 0.516186,0 0.941069,-0.178101 1.27455,-0.529901 0.333581,-0.3518 0.502572,-0.804115 0.502572,-1.35684l0 -7.8215 4.18947 0z"/>
  <path id="1" class="fil0" d="M22.8613 29.1851c0,-0.685279 0.242176,-1.27015 0.73093,-1.7544 0.484353,-0.479644 1.07362,-0.721821 1.759,-0.721821 0.685279,0 1.27465,0.242176 1.7589,0.721821 0.488856,0.48425 0.73093,1.06912 0.73093,1.7544 0,0.685279 -0.242074,1.27465 -0.73093,1.7589 -0.48425,0.488856 -1.07362,0.73093 -1.7589,0.73093 -0.685381,0 -1.27465,-0.242074 -1.759,-0.73093 -0.488754,-0.48425 -0.73093,-1.07362 -0.73093,-1.7589zm0.319763 17.2419l0 -13.5733 4.33563 0 0 13.5733 -4.33563 0z"/>
  <polygon id="12" class="fil0" points="30.034,46.427 30.034,27.2617 34.3696,27.2617 34.3696,46.427 "/>
  <polygon id="123" class="fil0" points="36.8868,46.427 36.8868,27.2617 41.2225,27.2617 41.2225,46.427 "/>
  <path id="1234" class="fil0" d="M43.42 29.1851c0,-0.685279 0.242176,-1.27015 0.73093,-1.7544 0.484353,-0.479644 1.07362,-0.721821 1.759,-0.721821 0.685279,0 1.27465,0.242176 1.7589,0.721821 0.488856,0.48425 0.73093,1.06912 0.73093,1.7544 0,0.685279 -0.242074,1.27465 -0.73093,1.7589 -0.48425,0.488856 -1.07362,0.73093 -1.7589,0.73093 -0.685381,0 -1.27465,-0.242074 -1.759,-0.73093 -0.488754,-0.48425 -0.73093,-1.07362 -0.73093,-1.7589zm0.319763 17.2419l0 -13.5733 4.33563 0 0 13.5733 -4.33563 0z"/>
  <path id="12345" class="fil0" d="M58.6243 46.427l0 -7.5611c0,-0.635022 -0.182707,-1.15121 -0.548223,-1.54876 -0.365516,-0.397452 -0.840657,-0.593874 -1.42082,-0.593874 -0.575655,0 -1.0508,0.196423 -1.42082,0.593874 -0.370122,0.397554 -0.557435,0.91374 -0.557435,1.54876l0 7.5611 -4.24423 0 0 -6.88033c0,-2.12442 0.571049,-3.81484 1.70864,-5.07117 1.13759,-1.25633 2.6407,-1.88685 4.51844,-1.88685 1.01415,0 1.96904,0.223854 2.85535,0.676169 0.886308,0.452315 1.63556,1.09194 2.24315,1.91878 0.392948,0.552829 0.676169,1.16503 0.854373,1.83659 0.178203,0.66706 0.269506,1.51222 0.269506,2.52647l0 6.88033 -4.25794 0z"/>
  <path id="123456" class="fil0" d="M78.9134 41.3833c-0.712711,1.68582 -1.71325,2.9879 -2.99701,3.90614 -1.28376,0.918346 -2.74572,1.37977 -4.37668,1.37977 -0.900024,0 -1.76811,-0.178203 -2.60416,-0.530004 -0.831445,-0.3518 -1.57159,-0.858876 -2.21572,-1.51672 -0.66706,-0.680775 -1.17414,-1.44374 -1.51683,-2.2889 -0.342588,-0.849767 -0.516288,-1.74979 -0.516288,-2.70468 0,-0.954785 0.1737,-1.85481 0.516288,-2.70458 0.342691,-0.845161 0.849767,-1.60813 1.51683,-2.2889 0.644132,-0.648738 1.37516,-1.15131 2.202,-1.4985 0.826941,-0.347194 1.69953,-0.520792 2.61788,-0.520792 1.37516,0 2.60867,0.365516 3.70511,1.09184 1.09645,0.726427 2.00108,1.78633 2.70458,3.17982l-6.56957 4.46808 -1.64477 -2.48993 3.55444 -2.47161c-0.233067,-0.155275 -0.470637,-0.269506 -0.721923,-0.342588 -0.251184,-0.0776888 -0.507076,-0.11423 -0.776581,-0.11423 -0.836051,0 -1.54876,0.319763 -2.13813,0.954785 -0.589371,0.639628 -0.881804,1.42092 -0.881804,2.34827 0,0.945777 0.287827,1.74068 0.868088,2.38031 0.580159,0.644132 1.28837,0.963997 2.12892,0.963997 0.785896,0 1.51222,-0.23757 2.18839,-0.708207 0.671563,-0.47514 1.24271,-1.16042 1.71786,-2.06044l3.23908 1.56708z"/>
  <path id="1234567" class="fil0" d="M80.4257 46.427l0 -13.5733 3.91996 0 0 2.03301c0.429387,-0.703601 0.982216,-1.21979 1.65839,-1.54416 0.680673,-0.324369 1.54416,-0.488856 2.59956,-0.488856l0.507076 0 0 4.10717 -0.187313 0c-1.54416,0 -2.65442,0.342691 -3.3397,1.02336 -0.680673,0.685279 -1.02336,1.79544 -1.02336,3.3397l0 5.1031 -4.1346 0z"/>
  <ellipse class="fil1 str0" cx="57.4305" cy="16.9532" rx="6.06267" ry="6.07346"/>
  <path class="fil1 str1" d="M49.4316 7.435l-1.20802 1.09675 0 11.1185c0.323448,1.45572 0.933904,2.50201 1.9632,2.94972"/>
  <line class="fil1 str1" x1="49.696" y1="8.52981" x2="65.3251" y2= "8.52981" />
  <polyline class="fil1 str1" points="24.1758,1.53535 29.4988,1.53535 36.936,8.53175 48.2236,8.53175 49.4316,7.435 "/>
  <path class="fil1 str1" d="M37.5265 8.8814c-2.74337,3.08268 -5.90906,5.69217 -9.36238,7.97954 5.01385,4.32929 10.8169,6.91472 17.6678,7.18555 -2.50447,-4.02918 -3.89151,-8.33011 -4.04033,-12.9322l-4.47105 -2.00476 -0.171652 -0.0769724 -6.87081 -4.19786 -4.4169 0"/>
  <polyline class="fil1 str0" points="36.936,8.53175 29.4988,1.53535 24.1758,1.53535 "/>
 </g>
</svg>
