<?xml version="1.0" encoding="UTF-8"?>
<!DOCTYPE svg PUBLIC "-//W3C//DTD SVG 1.1//EN" "http://www.w3.org/Graphics/SVG/1.1/DTD/svg11.dtd">
<!-- Creator: CorelDRAW -->
<svg xmlns="http://www.w3.org/2000/svg" xml:space="preserve" width="90.0696mm" height="55.0513mm" style="shape-rendering:geometricPrecision; text-rendering:geometricPrecision; image-rendering:optimizeQuality; fill-rule:evenodd; clip-rule:evenodd"
viewBox="0 0 92.7503 56.6898"
 xmlns:xlink="http://www.w3.org/1999/xlink">
 <defs>
  <style type="text/css">
   <![CDATA[
    .str0 {stroke:#72706F;stroke-width:0.133869}
    .str2 {stroke:white;stroke-width:2.57441}
    .str1 {stroke:white;stroke-width:3.08929}
    .fil3 {fill:none}
    .fil2 {fill:none;fill-rule:nonzero}
    .fil1 {fill:#DEDEDD;fill-rule:nonzero}
    .fil0 {fill:white;fill-rule:nonzero}
   ]]>
  </style>
 </defs>
 <g id="Capa_x0020_1">
  <metadata id="CorelCorpID_0Corel-Layer"/>
  <path class="fil0" d="M22.1642 33.0525l0 7.20689c0,2.02235 -0.537742,3.64031 -1.61796,4.86285 -1.07548,1.218 -2.48193,1.82937 -4.22388,1.82937 -0.790549,0 -1.53517,-0.151684 -2.22923,-0.450521 -0.69406,-0.303265 -1.30533,-0.739987 -1.82474,-1.31449 -0.537742,0.565339 -1.14448,1.00196 -1.81547,1.30533 -0.675627,0.308002 -1.36505,0.459686 -2.07755,0.459686 -1.81094,0 -3.26332,-0.602102 -4.36187,-1.81094 -1.09392,-1.20884 -1.64082,-2.83597 -1.64082,-4.88128l0 -7.20689 4.21482 0 0 7.86883c0,0.556072 0.170014,1.01112 0.510144,1.36505 0.34013,0.353929 0.767585,0.533108 1.27773,0.533108 0.524046,0 0.946866,-0.179179 1.28236,-0.533108 0.330966,-0.353929 0.496448,-0.808981 0.496448,-1.36505l0 -7.86883 4.24231 0 0 7.86883c0,0.556072 0.165483,1.01112 0.496345,1.36505 0.3356,0.353929 0.753786,0.533108 1.26867,0.533108 0.519309,0 0.946763,-0.179179 1.28226,-0.533108 0.3356,-0.353929 0.505613,-0.808981 0.505613,-1.36505l0 -7.86883 4.21482 0z"/>
  <path id="1" class="fil0" d="M24.2416 29.3617c0,-0.689426 0.243642,-1.27783 0.735353,-1.76501 0.487284,-0.482547 1.08012,-0.726188 1.76965,-0.726188 0.689426,0 1.28236,0.243642 1.76954,0.726188 0.491814,0.487181 0.735353,1.07559 0.735353,1.76501 0,0.689426 -0.243539,1.28236 -0.735353,1.76954 -0.487181,0.491814 -1.08012,0.735353 -1.76954,0.735353 -0.689529,0 -1.28236,-0.243539 -1.76965,-0.735353 -0.491711,-0.487181 -0.735353,-1.08012 -0.735353,-1.76954zm0.321698 17.3462l0 -13.6555 4.36187 0 0 13.6555 -4.36187 0z"/>
  <polygon id="12" class="fil0" points="31.4577,46.708 31.4577,27.4267 35.8196,27.4267 35.8196,46.708 "/>
  <polygon id="123" class="fil0" points="38.3521,46.708 38.3521,27.4267 42.7139,27.4267 42.7139,46.708 "/>
  <path id="1234" class="fil0" d="M44.9247 29.3617c0,-0.689426 0.243642,-1.27783 0.735353,-1.76501 0.487284,-0.482547 1.08012,-0.726188 1.76965,-0.726188 0.689426,0 1.28236,0.243642 1.76954,0.726188 0.491814,0.487181 0.735353,1.07559 0.735353,1.76501 0,0.689426 -0.243539,1.28236 -0.735353,1.76954 -0.487181,0.491814 -1.08012,0.735353 -1.76954,0.735353 -0.689529,0 -1.28236,-0.243539 -1.76965,-0.735353 -0.491711,-0.487181 -0.735353,-1.08012 -0.735353,-1.76954zm0.321698 17.3462l0 -13.6555 4.36187 0 0 13.6555 -4.36187 0z"/>
  <path id="12345" class="fil0" d="M60.221 46.708l0 -7.60685c0,-0.638865 -0.183813,-1.15817 -0.551541,-1.55813 -0.367728,-0.399857 -0.845744,-0.597468 -1.42941,-0.597468 -0.579138,0 -1.05715,0.197611 -1.42941,0.597468 -0.372362,0.39996 -0.560809,0.919269 -0.560809,1.55813l0 7.60685 -4.26991 0 0 -6.92196c0,-2.13727 0.574504,-3.83792 1.71898,-5.10185 1.14448,-1.26393 2.65668,-1.89826 4.54578,-1.89826 1.02029,0 1.98095,0.225209 2.87262,0.680261 0.891671,0.455052 1.64546,1.09855 2.25672,1.93039 0.395326,0.556175 0.680261,1.17208 0.859543,1.8477 0.179282,0.671096 0.271136,1.52137 0.271136,2.54176l0 6.92196 -4.28371 0z"/>
  <path id="123456" class="fil0" d="M80.633 41.6337c-0.717023,1.69602 -1.72362,3.00598 -3.01514,3.92978 -1.29153,0.923903 -2.76234,1.38812 -4.40316,1.38812 -0.90547,0 -1.77881,-0.179282 -2.61992,-0.533211 -0.836476,-0.353929 -1.5811,-0.864074 -2.22913,-1.5259 -0.671096,-0.684895 -1.18124,-1.45248 -1.526,-2.30275 -0.344661,-0.854909 -0.519412,-1.76038 -0.519412,-2.72104 0,-0.960562 0.174751,-1.86603 0.519412,-2.72094 0.344764,-0.850275 0.854909,-1.61786 1.526,-2.30275 0.648029,-0.652663 1.38349,-1.15828 2.21533,-1.50757 0.831945,-0.349295 1.70982,-0.523943 2.63372,-0.523943 1.38349,0 2.62445,0.367728 3.72753,1.09845 1.10308,0.730822 2.01319,1.79714 2.72094,3.19906l-6.60932 4.49512 -1.65473 -2.505 3.57595 -2.48657c-0.234477,-0.156215 -0.473485,-0.271136 -0.726291,-0.344661 -0.252704,-0.078159 -0.510144,-0.114921 -0.781281,-0.114921 -0.84111,0 -1.55813,0.321698 -2.15107,0.960562 -0.592937,0.643498 -0.88714,1.42952 -0.88714,2.36248 0,0.9515 0.289569,1.75121 0.873341,2.39471 0.583669,0.648029 1.29616,0.96983 2.1418,0.96983 0.790651,0 1.52137,-0.239008 2.20163,-0.712493 0.675627,-0.478016 1.25023,-1.16744 1.72825,-2.07291l3.25868 1.57657z"/>
  <path id="1234567" class="fil0" d="M82.1543 46.708l0 -13.6555 3.94368 0 0 2.04531c0.431985,-0.707859 0.98816,-1.22717 1.66842,-1.5535 0.684792,-0.326332 1.5535,-0.491814 2.61529,-0.491814l0.510144 0 0 4.13202 -0.188446 0c-1.5535,0 -2.67048,0.344764 -3.35991,1.02956 -0.684792,0.689426 -1.02956,1.80631 -1.02956,3.35991l0 5.13398 -4.15962 0z"/>
  <path class="fil1" d="M1.62064 55.4274l0.438164 0 0.0264649 -0.203893 -0.438164 0 0.106477 -0.787871 0.438164 0 0.0264649 -0.203893 -0.438164 0 0.142004 -1.02657 -0.222017 0 -0.145814 1.02657 -0.597468 0 0.141283 -1.02657 -0.220575 0 -0.146535 1.02657 -0.385234 0 -0.0264649 0.203893 0.385234 0 -0.0974155 0.787871 -0.385234 0 -0.0264649 0.203893 0.380703 0 -0.137473 1.03563 0.217486 0 0.145814 -1.03563 0.592937 0 -0.132942 1.03563 0.216765 0 0.142004 -1.03563zm-0.0928846 -0.991764l-0.0974155 0.787871 -0.60653 0 0.106477 -0.787871 0.597468 0z"/>
  <polygon id="1" class="fil1" points="4.57637,56.463 4.84225,56.463 4.84225,53.8956 5.3733,56.463 5.6294,56.463 6.16035,53.8956 6.16035,56.463 6.42623,56.463 6.42623,53.2006 6.0584,53.2006 5.90352,53.8865 5.50552,55.8164 5.09001,53.8691 4.94801,53.2006 4.57637,53.2006 "/>
  <polygon id="12" class="fil1" points="8.89931,56.463 10.7454,56.463 10.7454,56.1933 9.19619,56.1933 9.19619,54.9229 10.5286,54.9229 10.5286,54.6532 9.19619,54.6532 9.19619,53.4703 10.688,53.4703 10.688,53.2006 8.89931,53.2006 "/>
  <path id="123" class="fil1" d="M13.2358 56.463l0.29688 0 0 -1.45629 0.614768 0c0.179796,0 0.302235,0.0445887 0.36711,0.132942 0.0619917,0.0883536 0.105036,0.274123 0.128411,0.55741l0.0309958 0.429823c0.00906191,0.0792917 0.0196685,0.145814 0.0309958,0.198641 0.0120482,0.0566369 0.0271857,0.101946 0.0445887,0.137473l0.331583 0 0 -0.0445887c-0.0294512,-0.0263619 -0.0529298,-0.0634334 -0.0710536,-0.110288 -0.0173,-0.0528268 -0.0294512,-0.11626 -0.034703,-0.1903l-0.0400578 -0.491711c-0.0203893,-0.241788 -0.0513851,-0.405623 -0.0928846,-0.490991 -0.0529298,-0.12388 -0.157863,-0.210792 -0.314283,-0.261354 0.168469,-0.0619917 0.297601,-0.160952 0.389765,-0.29616 0.0914429,-0.138915 0.136752,-0.308929 0.136752,-0.509011 0,-0.268974 -0.0974155,-0.484194 -0.29235,-0.646588 -0.176707,-0.147359 -0.390486,-0.221399 -0.641233,-0.221399l-0.885287 0 0 3.26239zm0.29688 -1.72598l0 -1.26671 0.650295 0c0.139018,0 0.262898,0.0513851 0.371641,0.154876 0.126867,0.118526 0.190403,0.268871 0.190403,0.451654 0,0.227372 -0.0635363,0.397385 -0.190403,0.509835 -0.111729,0.100505 -0.277212,0.150345 -0.495522,0.150345l-0.526414 0z"/>
  <path id="1234" class="fil1" d="M19.1299 55.3965c-0.0203893,0.265885 -0.0959738,0.48265 -0.225827,0.651119 -0.117908,0.159304 -0.253836,0.238699 -0.407168,0.238699 -0.224385,0 -0.404079,-0.12697 -0.54011,-0.380703 -0.14118,-0.265885 -0.212234,-0.627022 -0.212234,-1.08475 0,-0.45464 0.0679643,-0.810423 0.203996,-1.06725 0.135208,-0.244774 0.315725,-0.36711 0.539287,-0.36711 0.135929,0 0.262898,0.0679643 0.380703,0.203893 0.129853,0.147359 0.208424,0.334673 0.234889,0.562044l0.29235 0c-0.017403,-0.303677 -0.116363,-0.554424 -0.29688,-0.752344 -0.173721,-0.188858 -0.377717,-0.283288 -0.61034,-0.283288 -0.312739,0 -0.564928,0.148801 -0.756875,0.447226 -0.197817,0.30965 -0.296777,0.73041 -0.296777,1.26136 0,0.534035 0.0974155,0.957061 0.292247,1.27052 0.188858,0.306663 0.44115,0.459995 0.756875,0.459995 0.244774,0 0.454022,-0.103491 0.628464,-0.30965 0.182783,-0.215323 0.287819,-0.498508 0.314283,-0.84976l-0.29688 0z"/>
  <path id="12345" class="fil1" d="M23.2013 55.4667l0.274226 0.996295 0.287716 0 -0.902587 -3.32809 -0.283288 0 -0.880756 3.32809 0.283288 0 0.252292 -0.996295 0.969109 0zm-0.898159 -0.252292l0.410978 -1.63228 0.420658 1.63228 -0.831636 0z"/>
  <path id="123456" class="fil1" d="M26.8165 53.2006l-0.716921 0 0 3.26239 0.78334 0c0.330142,0 0.597468,-0.139018 0.80064,-0.41623 0.215323,-0.292247 0.323345,-0.699415 0.323345,-1.2214 0,-0.510556 -0.108022,-0.913193 -0.323345,-1.20853 -0.206158,-0.277212 -0.473588,-0.41623 -0.80064,-0.41623l-0.0664197 0zm-0.42004 2.9927l0 -2.723 0.411699 0c0.280198,0 0.496963,0.113274 0.650295,0.340645 0.159407,0.233447 0.238699,0.574092 0.238699,1.02276 0,0.457729 -0.0792917,0.801464 -0.238699,1.03182 -0.147977,0.21831 -0.364742,0.327773 -0.650295,0.327773l-0.411699 0z"/>
  <path id="1234567" class="fil1" d="M30.3824 54.8344c0,0.528062 0.0853673,0.947278 0.256823,1.25693 0.173721,0.309752 0.407168,0.464526 0.699518,0.464526 0.295336,0 0.530945,-0.154773 0.708476,-0.464526 0.179796,-0.30965 0.269695,-0.728866 0.269695,-1.25693 0,-0.531769 -0.0898982,-0.951706 -0.269695,-1.26136 -0.177531,-0.304398 -0.413141,-0.456288 -0.708476,-0.456288 -0.29235,0 -0.525797,0.15189 -0.699518,0.456288 -0.171455,0.30965 -0.256823,0.729587 -0.256823,1.26136zm0.29688 0c0,-0.451654 0.060447,-0.808981 0.181341,-1.07106 0.117805,-0.253733 0.277212,-0.380703 0.478119,-0.380703 0.203172,0 0.36711,0.12697 0.490991,0.380703 0.126867,0.259809 0.1903,0.616416 0.1903,1.07106 0,0.450933 -0.0634334,0.80826 -0.1903,1.07033 -0.12388,0.256823 -0.287819,0.385234 -0.490991,0.385234 -0.203996,0 -0.364124,-0.128411 -0.48265,-0.385234 -0.117908,-0.262075 -0.17681,-0.619402 -0.17681,-1.07033z"/>
  <path id="12345678" class="fil1" d="M39.7331 53.2006l-0.716921 0 0 3.26239 0.78334 0c0.330142,0 0.597468,-0.139018 0.80064,-0.41623 0.215323,-0.292247 0.323345,-0.699415 0.323345,-1.2214 0,-0.510556 -0.108022,-0.913193 -0.323345,-1.20853 -0.206158,-0.277212 -0.473588,-0.41623 -0.80064,-0.41623l-0.0664197 0zm-0.42004 2.9927l0 -2.723 0.411699 0c0.280198,0 0.496963,0.113274 0.650295,0.340645 0.159407,0.233447 0.238699,0.574092 0.238699,1.02276 0,0.457729 -0.0792917,0.801464 -0.238699,1.03182 -0.147977,0.21831 -0.364742,0.327773 -0.650295,0.327773l-0.411699 0z"/>
  <polygon id="123456789" class="fil1" points="43.3436,56.463 45.1897,56.463 45.1897,56.1933 43.6405,56.1933 43.6405,54.9229 44.9729,54.9229 44.9729,54.6532 43.6405,54.6532 43.6405,53.4703 45.1323,53.4703 45.1323,53.2006 43.3436,53.2006 "/>
  <path id="12345678910" class="fil1" d="M53.34 55.4667l0.274226 0.996295 0.287716 0 -0.902587 -3.32809 -0.283288 0 -0.880756 3.32809 0.283288 0 0.252292 -0.996295 0.969109 0zm-0.898159 -0.252292l0.410978 -1.63228 0.420658 1.63228 -0.831636 0z"/>
  <path id="1234567891011" class="fil1" d="M56.2557 53.2006l0 2.43909c0,0.292247 0.0898982,0.520442 0.269695,0.685822 0.16538,0.153332 0.379158,0.230358 0.642057,0.230358 0.259809,0 0.473588,-0.0770262 0.642057,-0.230358 0.179694,-0.16538 0.269592,-0.393575 0.269592,-0.685822l0 -2.43909 -0.296777 0 0 2.43909c0,0.212955 -0.0590054,0.375348 -0.17681,0.487181 -0.109464,0.106477 -0.255278,0.159407 -0.438061,0.159407 -0.182783,0 -0.328597,-0.0529298 -0.438164,-0.159407 -0.117805,-0.114818 -0.176707,-0.277212 -0.176707,-0.487181l0 -2.43909 -0.29688 0z"/>
  <polygon id="123456789101112" class="fil1" points="61.3317,56.463 61.6286,56.463 61.6286,53.4703 62.4428,53.4703 62.4428,53.2006 60.522,53.2006 60.522,53.4703 61.3317,53.4703 "/>
  <path id="12345678910111213" class="fil1" d="M64.8267 54.8344c0,0.528062 0.0853673,0.947278 0.256823,1.25693 0.173721,0.309752 0.407168,0.464526 0.699518,0.464526 0.295336,0 0.530945,-0.154773 0.708476,-0.464526 0.179796,-0.30965 0.269695,-0.728866 0.269695,-1.25693 0,-0.531769 -0.0898982,-0.951706 -0.269695,-1.26136 -0.177531,-0.304398 -0.413141,-0.456288 -0.708476,-0.456288 -0.29235,0 -0.525797,0.15189 -0.699518,0.456288 -0.171455,0.30965 -0.256823,0.729587 -0.256823,1.26136zm0.29688 0c0,-0.451654 0.060447,-0.808981 0.181341,-1.07106 0.117805,-0.253733 0.277212,-0.380703 0.478119,-0.380703 0.203172,0 0.36711,0.12697 0.490991,0.380703 0.126867,0.259809 0.1903,0.616416 0.1903,1.07106 0,0.450933 -0.0634334,0.80826 -0.1903,1.07033 -0.12388,0.256823 -0.287819,0.385234 -0.490991,0.385234 -0.203996,0 -0.364124,-0.128411 -0.48265,-0.385234 -0.117908,-0.262075 -0.17681,-0.619402 -0.17681,-1.07033z"/>
  <path id="1234567891011121314" class="fil1" d="M69.1904 56.463l0.29688 0 0 -1.4117 0.508394 0c0.339101,0 0.59891,-0.0785709 0.778706,-0.234992 0.188858,-0.156318 0.283288,-0.3875 0.283288,-0.694884 0,-0.303677 -0.0853673,-0.534035 -0.256823,-0.690353 -0.162394,-0.153332 -0.396561,-0.230461 -0.703225,-0.230461l-0.907221 0 0 3.26239zm0.29688 -1.6814l0 -1.3113 0.597468 0c0.215323,0 0.378438,0.0513851 0.490991,0.154876 0.117805,0.106477 0.176707,0.268871 0.176707,0.487181 0,0.233447 -0.0679643,0.406344 -0.203172,0.518897 -0.12388,0.100505 -0.306663,0.150345 -0.549069,0.150345l-0.512925 0z"/>
  <path id="123456789101112131415" class="fil1" d="M74.8677 55.4667l0.274226 0.996295 0.287716 0 -0.902587 -3.32809 -0.283288 0 -0.880756 3.32809 0.283288 0 0.252292 -0.996295 0.969109 0zm-0.898159 -0.252292l0.410978 -1.63228 0.420658 1.63228 -0.831636 0z"/>
  <path id="12345678910111213141516" class="fil1" d="M77.8189 56.463l0.29688 0 0 -1.45629 0.614768 0c0.179796,0 0.302235,0.0445887 0.36711,0.132942 0.0619917,0.0883536 0.105036,0.274123 0.128411,0.55741l0.0309958 0.429823c0.00906191,0.0792917 0.0196685,0.145814 0.0309958,0.198641 0.0120482,0.0566369 0.0271857,0.101946 0.0445887,0.137473l0.331583 0 0 -0.0445887c-0.0294512,-0.0263619 -0.0529298,-0.0634334 -0.0710536,-0.110288 -0.0173,-0.0528268 -0.0294512,-0.11626 -0.034703,-0.1903l-0.0400578 -0.491711c-0.0203893,-0.241788 -0.0513851,-0.405623 -0.0928846,-0.490991 -0.0529298,-0.12388 -0.157863,-0.210792 -0.314283,-0.261354 0.168469,-0.0619917 0.297601,-0.160952 0.389765,-0.29616 0.0914429,-0.138915 0.136752,-0.308929 0.136752,-0.509011 0,-0.268974 -0.0974155,-0.484194 -0.29235,-0.646588 -0.176707,-0.147359 -0.390486,-0.221399 -0.641233,-0.221399l-0.885287 0 0 3.26239zm0.29688 -1.72598l0 -1.26671 0.650295 0c0.139018,0 0.262898,0.0513851 0.371641,0.154876 0.126867,0.118526 0.190403,0.268871 0.190403,0.451654 0,0.227372 -0.0635363,0.397385 -0.190403,0.509835 -0.111729,0.100505 -0.277212,0.150345 -0.495522,0.150345l-0.526414 0z"/>
  <polygon id="1234567891011121314151617" class="fil1" points="82.8594,56.463 83.1563,56.463 83.1563,53.4703 83.9705,53.4703 83.9705,53.2006 82.0497,53.2006 82.0497,53.4703 82.8594,53.4703 "/>
  <polygon id="123456789101112131415161718" class="fil1" points="86.399,56.463 88.2451,56.463 88.2451,56.1933 86.6959,56.1933 86.6959,54.9229 88.0283,54.9229 88.0283,54.6532 86.6959,54.6532 86.6959,53.4703 88.1877,53.4703 88.1877,53.2006 86.399,53.2006 "/>
  <path id="12345678910111213141516171819" class="fil1" d="M90.6253 55.4712l0 0.0226548c0,0.330039 0.0974155,0.591392 0.29235,0.78334 0.188858,0.185769 0.438782,0.278654 0.751521,0.278654 0.265885,0 0.488725,-0.0853673 0.668522,-0.256823 0.185769,-0.176707 0.278757,-0.407065 0.278757,-0.690353 0,-0.259809 -0.0725982,-0.46607 -0.216868,-0.620123 -0.132942,-0.138297 -0.343632,-0.25085 -0.632995,-0.336114 -0.0852643,-0.0294512 -0.171455,-0.060447 -0.256823,-0.0929875 -0.120791,-0.0263619 -0.23561,-0.0883536 -0.345176,-0.185769 -0.103491,-0.0944292 -0.154773,-0.219854 -0.154773,-0.376172 0,-0.185769 0.0573578,-0.336835 0.172897,-0.451654 0.105757,-0.10658 0.240244,-0.159407 0.402637,-0.159407 0.173721,0 0.318711,0.0618887 0.43353,0.185769 0.12697,0.132942 0.191948,0.312018 0.194934,0.5363l0.30965 0c-0.00597262,-0.306663 -0.0974155,-0.550614 -0.274123,-0.73041 -0.171455,-0.174442 -0.386779,-0.261354 -0.646588,-0.261354 -0.25085,0 -0.463084,0.0808363 -0.636805,0.24323 -0.177531,0.165483 -0.265885,0.376172 -0.265885,0.632995 0,0.244774 0.0724953,0.436619 0.216765,0.575534 0.117908,0.111832 0.32489,0.213779 0.620226,0.305222 0.297601,0.0913399 0.49995,0.188858 0.605706,0.29235 0.112553,0.106477 0.168469,0.265885 0.168469,0.478119 0,0.188755 -0.064978,0.343632 -0.194831,0.465247 -0.120894,0.117805 -0.26815,0.17681 -0.442695,0.17681 -0.212234,0 -0.385955,-0.0725982 -0.521884,-0.216868 -0.14427,-0.151066 -0.216868,-0.350428 -0.216868,-0.598189l-0.30965 0z"/>
  <path id="1234567891011121314151617181920" class="fil2 str0" d="M1.62064 55.4274l0.438164 0 0.0264649 -0.203893 -0.438164 0 0.106477 -0.787871 0.438164 0 0.0264649 -0.203893 -0.438164 0 0.142004 -1.02657 -0.222017 0 -0.145814 1.02657 -0.597468 0 0.141283 -1.02657 -0.220575 0 -0.146535 1.02657 -0.385234 0 -0.0264649 0.203893 0.385234 0 -0.0974155 0.787871 -0.385234 0 -0.0264649 0.203893 0.380703 0 -0.137473 1.03563 0.217486 0 0.145814 -1.03563 0.592937 0 -0.132942 1.03563 0.216765 0 0.142004 -1.03563zm-0.0928846 -0.991764l-0.0974155 0.787871 -0.60653 0 0.106477 -0.787871 0.597468 0z"/>
  <polygon id="123456789101112131415161718192021" class="fil2 str0" points="4.57637,56.463 4.84225,56.463 4.84225,53.8956 5.3733,56.463 5.6294,56.463 6.16035,53.8956 6.16035,56.463 6.42623,56.463 6.42623,53.2006 6.0584,53.2006 5.90352,53.8865 5.50552,55.8164 5.09001,53.8691 4.94801,53.2006 4.57637,53.2006 "/>
  <polygon id="12345678910111213141516171819202122" class="fil2 str0" points="8.89931,56.463 10.7454,56.463 10.7454,56.1933 9.19619,56.1933 9.19619,54.9229 10.5286,54.9229 10.5286,54.6532 9.19619,54.6532 9.19619,53.4703 10.688,53.4703 10.688,53.2006 8.89931,53.2006 "/>
  <path id="1234567891011121314151617181920212223" class="fil2 str0" d="M13.2358 56.463l0.29688 0 0 -1.45629 0.614768 0c0.179796,0 0.302235,0.0445887 0.36711,0.132942 0.0619917,0.0883536 0.105036,0.274123 0.128411,0.55741l0.0309958 0.429823c0.00906191,0.0792917 0.0196685,0.145814 0.0309958,0.198641 0.0120482,0.0566369 0.0271857,0.101946 0.0445887,0.137473l0.331583 0 0 -0.0445887c-0.0294512,-0.0263619 -0.0529298,-0.0634334 -0.0710536,-0.110288 -0.0173,-0.0528268 -0.0294512,-0.11626 -0.034703,-0.1903l-0.0400578 -0.491711c-0.0203893,-0.241788 -0.0513851,-0.405623 -0.0928846,-0.490991 -0.0529298,-0.12388 -0.157863,-0.210792 -0.314283,-0.261354 0.168469,-0.0619917 0.297601,-0.160952 0.389765,-0.29616 0.0914429,-0.138915 0.136752,-0.308929 0.136752,-0.509011 0,-0.268974 -0.0974155,-0.484194 -0.29235,-0.646588 -0.176707,-0.147359 -0.390486,-0.221399 -0.641233,-0.221399l-0.885287 0 0 3.26239zm0.29688 -1.72598l0 -1.26671 0.650295 0c0.139018,0 0.262898,0.0513851 0.371641,0.154876 0.126867,0.118526 0.190403,0.268871 0.190403,0.451654 0,0.227372 -0.0635363,0.397385 -0.190403,0.509835 -0.111729,0.100505 -0.277212,0.150345 -0.495522,0.150345l-0.526414 0z"/>
  <path id="123456789101112131415161718192021222324" class="fil2 str0" d="M19.1299 55.3965c-0.0203893,0.265885 -0.0959738,0.48265 -0.225827,0.651119 -0.117908,0.159304 -0.253836,0.238699 -0.407168,0.238699 -0.224385,0 -0.404079,-0.12697 -0.54011,-0.380703 -0.14118,-0.265885 -0.212234,-0.627022 -0.212234,-1.08475 0,-0.45464 0.0679643,-0.810423 0.203996,-1.06725 0.135208,-0.244774 0.315725,-0.36711 0.539287,-0.36711 0.135929,0 0.262898,0.0679643 0.380703,0.203893 0.129853,0.147359 0.208424,0.334673 0.234889,0.562044l0.29235 0c-0.017403,-0.303677 -0.116363,-0.554424 -0.29688,-0.752344 -0.173721,-0.188858 -0.377717,-0.283288 -0.61034,-0.283288 -0.312739,0 -0.564928,0.148801 -0.756875,0.447226 -0.197817,0.30965 -0.296777,0.73041 -0.296777,1.26136 0,0.534035 0.0974155,0.957061 0.292247,1.27052 0.188858,0.306663 0.44115,0.459995 0.756875,0.459995 0.244774,0 0.454022,-0.103491 0.628464,-0.30965 0.182783,-0.215323 0.287819,-0.498508 0.314283,-0.84976l-0.29688 0z"/>
  <path id="12345678910111213141516171819202122232425" class="fil2 str0" d="M23.2013 55.4667l0.274226 0.996295 0.287716 0 -0.902587 -3.32809 -0.283288 0 -0.880756 3.32809 0.283288 0 0.252292 -0.996295 0.969109 0zm-0.898159 -0.252292l0.410978 -1.63228 0.420658 1.63228 -0.831636 0z"/>
  <path id="1234567891011121314151617181920212223242526" class="fil2 str0" d="M26.8165 53.2006l-0.716921 0 0 3.26239 0.78334 0c0.330142,0 0.597468,-0.139018 0.80064,-0.41623 0.215323,-0.292247 0.323345,-0.699415 0.323345,-1.2214 0,-0.510556 -0.108022,-0.913193 -0.323345,-1.20853 -0.206158,-0.277212 -0.473588,-0.41623 -0.80064,-0.41623l-0.0664197 0zm-0.42004 2.9927l0 -2.723 0.411699 0c0.280198,0 0.496963,0.113274 0.650295,0.340645 0.159407,0.233447 0.238699,0.574092 0.238699,1.02276 0,0.457729 -0.0792917,0.801464 -0.238699,1.03182 -0.147977,0.21831 -0.364742,0.327773 -0.650295,0.327773l-0.411699 0z"/>
  <path id="123456789101112131415161718192021222324252627" class="fil2 str0" d="M30.3824 54.8344c0,0.528062 0.0853673,0.947278 0.256823,1.25693 0.173721,0.309752 0.407168,0.464526 0.699518,0.464526 0.295336,0 0.530945,-0.154773 0.708476,-0.464526 0.179796,-0.30965 0.269695,-0.728866 0.269695,-1.25693 0,-0.531769 -0.0898982,-0.951706 -0.269695,-1.26136 -0.177531,-0.304398 -0.413141,-0.456288 -0.708476,-0.456288 -0.29235,0 -0.525797,0.15189 -0.699518,0.456288 -0.171455,0.30965 -0.256823,0.729587 -0.256823,1.26136zm0.29688 0c0,-0.451654 0.060447,-0.808981 0.181341,-1.07106 0.117805,-0.253733 0.277212,-0.380703 0.478119,-0.380703 0.203172,0 0.36711,0.12697 0.490991,0.380703 0.126867,0.259809 0.1903,0.616416 0.1903,1.07106 0,0.450933 -0.0634334,0.80826 -0.1903,1.07033 -0.12388,0.256823 -0.287819,0.385234 -0.490991,0.385234 -0.203996,0 -0.364124,-0.128411 -0.48265,-0.385234 -0.117908,-0.262075 -0.17681,-0.619402 -0.17681,-1.07033z"/>
  <path id="12345678910111213141516171819202122232425262728" class="fil2 str0" d="M39.7331 53.2006l-0.716921 0 0 3.26239 0.78334 0c0.330142,0 0.597468,-0.139018 0.80064,-0.41623 0.215323,-0.292247 0.323345,-0.699415 0.323345,-1.2214 0,-0.510556 -0.108022,-0.913193 -0.323345,-1.20853 -0.206158,-0.277212 -0.473588,-0.41623 -0.80064,-0.41623l-0.0664197 0zm-0.42004 2.9927l0 -2.723 0.411699 0c0.280198,0 0.496963,0.113274 0.650295,0.340645 0.159407,0.233447 0.238699,0.574092 0.238699,1.02276 0,0.457729 -0.0792917,0.801464 -0.238699,1.03182 -0.147977,0.21831 -0.364742,0.327773 -0.650295,0.327773l-0.411699 0z"/>
  <polygon id="1234567891011121314151617181920212223242526272829" class="fil2 str0" points="43.3436,56.463 45.1897,56.463 45.1897,56.1933 43.6405,56.1933 43.6405,54.9229 44.9729,54.9229 44.9729,54.6532 43.6405,54.6532 43.6405,53.4703 45.1323,53.4703 45.1323,53.2006 43.3436,53.2006 "/>
  <path id="123456789101112131415161718192021222324252627282930" class="fil2 str0" d="M53.34 55.4667l0.274226 0.996295 0.287716 0 -0.902587 -3.32809 -0.283288 0 -0.880756 3.32809 0.283288 0 0.252292 -0.996295 0.969109 0zm-0.898159 -0.252292l0.410978 -1.63228 0.420658 1.63228 -0.831636 0z"/>
  <path id="12345678910111213141516171819202122232425262728293031" class="fil2 str0" d="M56.2557 53.2006l0 2.43909c0,0.292247 0.0898982,0.520442 0.269695,0.685822 0.16538,0.153332 0.379158,0.230358 0.642057,0.230358 0.259809,0 0.473588,-0.0770262 0.642057,-0.230358 0.179694,-0.16538 0.269592,-0.393575 0.269592,-0.685822l0 -2.43909 -0.296777 0 0 2.43909c0,0.212955 -0.0590054,0.375348 -0.17681,0.487181 -0.109464,0.106477 -0.255278,0.159407 -0.438061,0.159407 -0.182783,0 -0.328597,-0.0529298 -0.438164,-0.159407 -0.117805,-0.114818 -0.176707,-0.277212 -0.176707,-0.487181l0 -2.43909 -0.29688 0z"/>
  <polygon id="1234567891011121314151617181920212223242526272829303132" class="fil2 str0" points="61.3317,56.463 61.6286,56.463 61.6286,53.4703 62.4428,53.4703 62.4428,53.2006 60.522,53.2006 60.522,53.4703 61.3317,53.4703 "/>
  <path id="123456789101112131415161718192021222324252627282930313233" class="fil2 str0" d="M64.8267 54.8344c0,0.528062 0.0853673,0.947278 0.256823,1.25693 0.173721,0.309752 0.407168,0.464526 0.699518,0.464526 0.295336,0 0.530945,-0.154773 0.708476,-0.464526 0.179796,-0.30965 0.269695,-0.728866 0.269695,-1.25693 0,-0.531769 -0.0898982,-0.951706 -0.269695,-1.26136 -0.177531,-0.304398 -0.413141,-0.456288 -0.708476,-0.456288 -0.29235,0 -0.525797,0.15189 -0.699518,0.456288 -0.171455,0.30965 -0.256823,0.729587 -0.256823,1.26136zm0.29688 0c0,-0.451654 0.060447,-0.808981 0.181341,-1.07106 0.117805,-0.253733 0.277212,-0.380703 0.478119,-0.380703 0.203172,0 0.36711,0.12697 0.490991,0.380703 0.126867,0.259809 0.1903,0.616416 0.1903,1.07106 0,0.450933 -0.0634334,0.80826 -0.1903,1.07033 -0.12388,0.256823 -0.287819,0.385234 -0.490991,0.385234 -0.203996,0 -0.364124,-0.128411 -0.48265,-0.385234 -0.117908,-0.262075 -0.17681,-0.619402 -0.17681,-1.07033z"/>
  <path id="12345678910111213141516171819202122232425262728293031323334" class="fil2 str0" d="M69.1904 56.463l0.29688 0 0 -1.4117 0.508394 0c0.339101,0 0.59891,-0.0785709 0.778706,-0.234992 0.188858,-0.156318 0.283288,-0.3875 0.283288,-0.694884 0,-0.303677 -0.0853673,-0.534035 -0.256823,-0.690353 -0.162394,-0.153332 -0.396561,-0.230461 -0.703225,-0.230461l-0.907221 0 0 3.26239zm0.29688 -1.6814l0 -1.3113 0.597468 0c0.215323,0 0.378438,0.0513851 0.490991,0.154876 0.117805,0.106477 0.176707,0.268871 0.176707,0.487181 0,0.233447 -0.0679643,0.406344 -0.203172,0.518897 -0.12388,0.100505 -0.306663,0.150345 -0.549069,0.150345l-0.512925 0z"/>
  <path id="1234567891011121314151617181920212223242526272829303132333435" class="fil2 str0" d="M74.8677 55.4667l0.274226 0.996295 0.287716 0 -0.902587 -3.32809 -0.283288 0 -0.880756 3.32809 0.283288 0 0.252292 -0.996295 0.969109 0zm-0.898159 -0.252292l0.410978 -1.63228 0.420658 1.63228 -0.831636 0z"/>
  <path id="123456789101112131415161718192021222324252627282930313233343536" class="fil2 str0" d="M77.8189 56.463l0.29688 0 0 -1.45629 0.614768 0c0.179796,0 0.302235,0.0445887 0.36711,0.132942 0.0619917,0.0883536 0.105036,0.274123 0.128411,0.55741l0.0309958 0.429823c0.00906191,0.0792917 0.0196685,0.145814 0.0309958,0.198641 0.0120482,0.0566369 0.0271857,0.101946 0.0445887,0.137473l0.331583 0 0 -0.0445887c-0.0294512,-0.0263619 -0.0529298,-0.0634334 -0.0710536,-0.110288 -0.0173,-0.0528268 -0.0294512,-0.11626 -0.034703,-0.1903l-0.0400578 -0.491711c-0.0203893,-0.241788 -0.0513851,-0.405623 -0.0928846,-0.490991 -0.0529298,-0.12388 -0.157863,-0.210792 -0.314283,-0.261354 0.168469,-0.0619917 0.297601,-0.160952 0.389765,-0.29616 0.0914429,-0.138915 0.136752,-0.308929 0.136752,-0.509011 0,-0.268974 -0.0974155,-0.484194 -0.29235,-0.646588 -0.176707,-0.147359 -0.390486,-0.221399 -0.641233,-0.221399l-0.885287 0 0 3.26239zm0.29688 -1.72598l0 -1.26671 0.650295 0c0.139018,0 0.262898,0.0513851 0.371641,0.154876 0.126867,0.118526 0.190403,0.268871 0.190403,0.451654 0,0.227372 -0.0635363,0.397385 -0.190403,0.509835 -0.111729,0.100505 -0.277212,0.150345 -0.495522,0.150345l-0.526414 0z"/>
  <polygon id="12345678910111213141516171819202122232425262728293031323334353637" class="fil2 str0" points="82.8594,56.463 83.1563,56.463 83.1563,53.4703 83.9705,53.4703 83.9705,53.2006 82.0497,53.2006 82.0497,53.4703 82.8594,53.4703 "/>
  <polygon id="1234567891011121314151617181920212223242526272829303132333435363738" class="fil2 str0" points="86.399,56.463 88.2451,56.463 88.2451,56.1933 86.6959,56.1933 86.6959,54.9229 88.0283,54.9229 88.0283,54.6532 86.6959,54.6532 86.6959,53.4703 88.1877,53.4703 88.1877,53.2006 86.399,53.2006 "/>
  <path id="123456789101112131415161718192021222324252627282930313233343536373839" class="fil2 str0" d="M90.6253 55.4712l0 0.0226548c0,0.330039 0.0974155,0.591392 0.29235,0.78334 0.188858,0.185769 0.438782,0.278654 0.751521,0.278654 0.265885,0 0.488725,-0.0853673 0.668522,-0.256823 0.185769,-0.176707 0.278757,-0.407065 0.278757,-0.690353 0,-0.259809 -0.0725982,-0.46607 -0.216868,-0.620123 -0.132942,-0.138297 -0.343632,-0.25085 -0.632995,-0.336114 -0.0852643,-0.0294512 -0.171455,-0.060447 -0.256823,-0.0929875 -0.120791,-0.0263619 -0.23561,-0.0883536 -0.345176,-0.185769 -0.103491,-0.0944292 -0.154773,-0.219854 -0.154773,-0.376172 0,-0.185769 0.0573578,-0.336835 0.172897,-0.451654 0.105757,-0.10658 0.240244,-0.159407 0.402637,-0.159407 0.173721,0 0.318711,0.0618887 0.43353,0.185769 0.12697,0.132942 0.191948,0.312018 0.194934,0.5363l0.30965 0c-0.00597262,-0.306663 -0.0974155,-0.550614 -0.274123,-0.73041 -0.171455,-0.174442 -0.386779,-0.261354 -0.646588,-0.261354 -0.25085,0 -0.463084,0.0808363 -0.636805,0.24323 -0.177531,0.165483 -0.265885,0.376172 -0.265885,0.632995 0,0.244774 0.0724953,0.436619 0.216765,0.575534 0.117908,0.111832 0.32489,0.213779 0.620226,0.305222 0.297601,0.0913399 0.49995,0.188858 0.605706,0.29235 0.112553,0.106477 0.168469,0.265885 0.168469,0.478119 0,0.188755 -0.064978,0.343632 -0.194831,0.465247 -0.120894,0.117805 -0.26815,0.17681 -0.442695,0.17681 -0.212234,0 -0.385955,-0.0725982 -0.521884,-0.216868 -0.14427,-0.151066 -0.216868,-0.350428 -0.216868,-0.598189l-0.30965 0z"/>
  <ellipse class="fil3 str1" cx="59.02" cy="17.0557" rx="6.09935" ry="6.11021"/>
  <path class="fil3 str2" d="M50.9727 7.47999l-1.21533 1.10339 0 11.1858c0.325405,1.46453 0.939555,2.51715 1.97508,2.96757"/>
  <line class="fil3 str2" x1="51.2387" y1="8.58142" x2="66.9624" y2= "8.58142" />
  <polyline class="fil3 str2" points="25.5641,1.54464 30.9193,1.54464 38.4015,8.58338 49.7574,8.58338 50.9727,7.47999 "/>
  <path class="fil3 str2" d="M38.9956 8.93514c-2.75997,3.10134 -5.94482,5.72661 -9.41903,8.02782 5.04419,4.35548 10.8823,6.95656 17.7747,7.22903 -2.51962,-4.05356 -3.91505,-8.38051 -4.06478,-13.0104l-4.4981 -2.01689 -0.172691 -0.0774381 -6.91238 -4.22326 -4.44363 0"/>
  <polyline class="fil3 str1" points="38.4015,8.58338 30.9193,1.54464 25.5641,1.54464 "/>
 </g>
</svg>
