<?xml version="1.0" encoding="UTF-8"?>
<!DOCTYPE svg PUBLIC "-//W3C//DTD SVG 1.1//EN" "http://www.w3.org/Graphics/SVG/1.1/DTD/svg11.dtd">
<!-- Creator: CorelDRAW -->
<svg xmlns="http://www.w3.org/2000/svg" xml:space="preserve" width="229.587mm" height="41.5605mm" style="shape-rendering:geometricPrecision; text-rendering:geometricPrecision; image-rendering:optimizeQuality; fill-rule:evenodd; clip-rule:evenodd"
viewBox="0 0 235.938 42.7102"
 xmlns:xlink="http://www.w3.org/1999/xlink">
 <defs>
  <style type="text/css">
   <![CDATA[
    .str1 {stroke:#1F1A17;stroke-width:0.513831}
    .str0 {stroke:#1F1A17;stroke-width:2.05533}
    .str2 {stroke:#DA251D;stroke-width:2.05533}
    .fil2 {fill:none}
    .fil0 {fill:white}
    .fil1 {fill:#1F1A17;fill-rule:nonzero}
   ]]>
  </style>
 </defs>
 <g id="Capa_x0020_1">
  <metadata id="CorelCorpID_0Corel-Layer"/>
  <rect class="fil0" width="235.938" height="42.7102" rx="11.0507" ry="11.0507"/>
  <g id="_100436432">
   <path id="_99732904" class="fil1" d="M74.4745 18.7102l0 5.61484c0,1.57551 -0.418978,2.83604 -1.26053,3.78858 -0.837853,0.948841 -1.93365,1.42516 -3.29078,1.42516 -0.615878,0 -1.19599,-0.118181 -1.73675,-0.350947 -0.540653,-0.236362 -1.01697,-0.576519 -1.42157,-1.02417 -0.418978,0.440456 -0.891703,0.780715 -1.41447,1.01697 -0.526369,0.239959 -1.06353,0.35814 -1.61857,0.35814 -1.41088,0 -2.54244,-0.469128 -3.39827,-1.41088 -0.852241,-0.94175 -1.27831,-2.20937 -1.27831,-3.80287l0 -5.61484 3.28369 0 0 6.13042c0,0.433365 0.132466,0.787806 0.397397,1.06353 0.265034,0.275722 0.597997,0.415381 0.995497,0.415381 0.408188,0 0.737656,-0.139659 0.999093,-0.415381 0.257841,-0.275722 0.386709,-0.630163 0.386709,-1.06353l0 -6.13042 3.30517 0 0 6.13042c0,0.433365 0.128869,0.787806 0.386709,1.06353 0.261437,0.275722 0.587309,0.415381 0.988303,0.415381 0.404693,0 0.737656,-0.139659 0.999093,-0.415381 0.261437,-0.275722 0.393903,-0.630163 0.393903,-1.06353l0 -6.13042 3.28369 0z"/>
   <path id="_997329041" class="fil1" d="M76.093 15.8348c0,-0.537159 0.189809,-0.995497 0.572922,-1.37512 0.379619,-0.376022 0.841553,-0.565728 1.37871,-0.565728 0.537056,0 0.998991,0.189707 1.37861,0.565728 0.383113,0.379619 0.572922,0.837956 0.572922,1.37512 0,0.537056 -0.189809,0.998991 -0.572922,1.37861 -0.379619,0.383113 -0.841553,0.572922 -1.37861,0.572922 -0.537159,0 -0.999093,-0.189809 -1.37871,-0.572922 -0.383113,-0.379619 -0.572922,-0.841553 -0.572922,-1.37861zm0.250647 13.5142l0 -10.6388 3.39827 0 0 10.6388 -3.39827 0z"/>
   <polygon id="_9973290412" class="fil1" points="81.7149,29.349 81.7149,14.3273 85.1132,14.3273 85.1132,29.349 "/>
   <polygon id="_99732904123" class="fil1" points="87.0862,29.349 87.0862,14.3273 90.4845,14.3273 90.4845,29.349 "/>
   <path id="_997329041234" class="fil1" d="M92.2068 15.8348c0,-0.537159 0.189809,-0.995497 0.572922,-1.37512 0.379619,-0.376022 0.841553,-0.565728 1.37871,-0.565728 0.537056,0 0.998991,0.189707 1.37861,0.565728 0.383113,0.379619 0.572922,0.837956 0.572922,1.37512 0,0.537056 -0.189809,0.998991 -0.572922,1.37861 -0.379619,0.383113 -0.841553,0.572922 -1.37861,0.572922 -0.537159,0 -0.999093,-0.189809 -1.37871,-0.572922 -0.383113,-0.379619 -0.572922,-0.841553 -0.572922,-1.37861zm0.250647 13.5142l0 -10.6388 3.39827 0 0 10.6388 -3.39827 0z"/>
   <path id="_9973290412345" class="fil1" d="M104.124 29.349l0 -5.92632c0,-0.4978 -0.143256,-0.90239 -0.429768,-1.21398 -0.28641,-0.311485 -0.658834,-0.465428 -1.11368,-0.465428 -0.451144,0 -0.823569,0.153944 -1.11358,0.465428 -0.290109,0.311587 -0.436859,0.716178 -0.436859,1.21398l0 5.92632 -3.32665 0 0 -5.39276c0,-1.66512 0.447547,-2.99009 1.33925,-3.97479 0.8916,-0.984706 2.06971,-1.47891 3.54143,-1.47891 0.795,0 1.54334,0.175422 2.23804,0.529966 0.6947,0.354544 1.28201,0.855837 1.75823,1.50398 0.30799,0.433263 0.529966,0.913078 0.669625,1.43945 0.139659,0.522875 0.211287,1.18531 0.211287,1.98031l0 5.39276 -3.33733 0z"/>
   <path id="_99732904123456" class="fil1" d="M120.027 25.3957c-0.558637,1.32137 -1.34285,2.34194 -2.34913,3.06171 -1.00618,0.719672 -2.15203,1.08141 -3.43044,1.08141 -0.705388,0 -1.3858,-0.139659 -2.04104,-0.415381 -0.651744,-0.275722 -1.23186,-0.673222 -1.73675,-1.1889 -0.522875,-0.533562 -0.920272,-1.13156 -1.1889,-1.79399 -0.268528,-0.666028 -0.404591,-1.37152 -0.404591,-2.11986 0,-0.748447 0.136063,-1.45383 0.404591,-2.11986 0.268631,-0.662534 0.666028,-1.26053 1.1889,-1.79409 0.504891,-0.508385 1.07781,-0.902288 1.72596,-1.17452 0.648147,-0.272125 1.33206,-0.408188 2.05183,-0.408188 1.07781,0 2.04474,0.286512 2.90407,0.855837 0.859434,0.569325 1.56842,1.40009 2.11986,2.49229l-5.14921 3.50207 -1.2892 -1.95153 2.78599 -1.93725c-0.182616,-0.121778 -0.368828,-0.211287 -0.565831,-0.268631 -0.1969,-0.0608376 -0.3975,-0.0895094 -0.608685,-0.0895094 -0.65534,0 -1.21398,0.250647 -1.67591,0.748447 -0.461934,0.501294 -0.691103,1.11368 -0.691103,1.84054 0,0.741253 0.225572,1.36432 0.680415,1.86562 0.454741,0.504891 1.00978,0.755537 1.66862,0.755537 0.615981,0 1.18531,-0.18611 1.71527,-0.554938 0.526369,-0.372425 0.974019,-0.909584 1.34644,-1.61497l2.53884 1.22816z"/>
   <path id="_997329041234567" class="fil1" d="M121.212 29.349l0 -10.6388 3.0724 0 0 1.59349c0.336662,-0.551444 0.769925,-0.956137 1.29989,-1.21038 0.533562,-0.254244 1.21028,-0.383113 2.03755,-0.383113l0.397397 0 0 3.21926 -0.14675 0c-1.21038,0 -2.0805,0.268528 -2.61766,0.802091 -0.533562,0.537056 -0.802091,1.40728 -0.802091,2.61756l0 3.99987 -3.24073 0z"/>
   <path id="_89777792" class="fil1" d="M134.807 18.7184l1.86922 0 0 1.00978c0.028569,-0.0142845 0.053644,-0.0357627 0.0751221,-0.0644344 0.0215809,-0.0286718 0.0537467,-0.0644344 0.096703,-0.107391 0.0286718,-0.0430591 0.0644344,-0.0860154 0.107493,-0.128972 0.0429563,-0.0429563 0.0859126,-0.0859126 0.128869,-0.128869 0.114584,-0.114584 0.239959,-0.222078 0.376022,-0.322275 0.136063,-0.1003 0.2972,-0.193406 0.483412,-0.279319 0.171825,-0.0859126 0.365231,-0.154047 0.580115,-0.204094 0.214781,-0.0501499 0.44395,-0.0752249 0.687506,-0.0752249l0.687506 -0.0429563 0 1.86922 -0.515681 0c-0.400994,0.0716281 -0.744747,0.179019 -1.03126,0.322275 -0.286512,0.143256 -0.529966,0.322275 -0.730463,0.537159 -0.186212,0.214781 -0.340259,0.440353 -0.461934,0.676716 -0.121778,0.236362 -0.218481,0.476322 -0.290109,0.719775 -0.0572408,0.186212 -0.100197,0.365231 -0.128869,0.537159 -0.0286718,0.171825 -0.0429563,0.336559 -0.0429563,0.4941 -0.0143873,0.171928 -0.0214781,0.322275 -0.0214781,0.451247 0,0.128869 0,0.250647 0,0.365231l0 4.68378 -1.86922 0 0 -10.3129 0 0z"/>
   <path id="_897777921" class="fil1" d="M142.949 24.3045l5.07049 -2.879c-0.0286718,-0.0143873 -0.0572408,-0.0322686 -0.0859126,-0.0537467 -0.0286718,-0.0214781 -0.0573436,-0.0537467 -0.0859126,-0.096703 -0.0286718,-0.0286718 -0.0609404,-0.0644344 -0.096703,-0.107391 -0.0358654,-0.0429563 -0.0752249,-0.0860154 -0.118181,-0.128972 -0.0429563,-0.028569 -0.0895094,-0.0608376 -0.139659,-0.0966003 -0.0501499,-0.0358654 -0.096703,-0.0752249 -0.139659,-0.118181 -0.0573436,-0.0286718 -0.114584,-0.0609404 -0.171928,-0.096703 -0.0572408,-0.0358654 -0.121675,-0.0680313 -0.193303,-0.096703 -0.143256,-0.0716281 -0.311587,-0.121778 -0.504891,-0.150347 -0.193406,-0.0286718 -0.411887,-0.0430591 -0.65534,-0.0430591 -0.558637,0 -1.04914,0.1003 -1.47172,0.300797 -0.422575,0.2006 -0.777118,0.494203 -1.06353,0.880912 -0.286512,0.386709 -0.501294,0.795 -0.64455,1.22467 -0.143256,0.429768 -0.214884,0.873719 -0.214884,1.33206 0,0.0143873 0,0.025075 0,0.0322686 0,0.00719364 0,0.0107905 0,0.0107905 0,0 0,0 0,0 0,0 0,0 0,0 0,0.0142845 0,0.0214781 0,0.0214781 0,0 0,0 0,0 0,0.415381 0.0752249,0.812778 0.225572,1.1924 0.15045,0.379516 0.368828,0.741253 0.65534,1.08501 0.286512,0.343753 0.640953,0.601594 1.06353,0.773419 0.422575,0.171928 0.905987,0.257841 1.45024,0.257841 0.587309,0 1.07781,-0.0680313 1.47172,-0.204094 0.393903,-0.136063 0.691103,-0.340156 0.891703,-0.612281 0.200497,-0.286512 0.383113,-0.623072 0.547847,-1.00988 0.164734,-0.386709 0.311485,-0.823569 0.440456,-1.31058 0,0 0,0 0,0 0,0 0,-0.00719364 0,-0.0214781 0,0 0,0 0,0 0,0 0,0 0,0 0,0 0,0 0,0 0,0 0.00709087,-0.00719364 0.0214781,-0.0214781 0,0 0,-0.00359682 0,-0.0107905 0,-0.00709087 0,-0.0106877 0,-0.0106877l1.86922 0.107391c0,0.0286718 0,0.0537467 0,0.0752249 0,0.0214781 0.00719364,0.0393595 0.0214781,0.0537467 0,0.028569 0,0.0501499 0,0.0644344 0,0.0142845 0,0.0357627 0,0.0644344 0,0.0143873 0,0.0322686 0,0.0537467 0,0.0214781 0.00719364,0.0393595 0.0214781,0.053644 0,0.0286718 0,0.0501499 0,0.0645372 0,0.0142845 0,0.028569 0,0.0429563 0,0.114584 -0.00719364,0.232766 -0.0214781,0.354441 -0.0142845,0.121778 -0.0357627,0.247153 -0.0644344,0.376022 -0.0143873,0.0573436 -0.0322686,0.121778 -0.0537467,0.193406 -0.0214781,0.0716281 -0.0393595,0.136063 -0.0537467,0.193303 -0.028569,0.0716281 -0.053644,0.139659 -0.0751221,0.204197 -0.0214781,0.0644344 -0.0465531,0.132466 -0.0752249,0.204094 -0.171928,0.358038 -0.401097,0.708984 -0.687506,1.05274 -0.286512,0.343753 -0.637459,0.666028 -1.05284,0.966825 -0.400994,0.300797 -0.870122,0.526369 -1.40728,0.676819 -0.537056,0.150347 -1.13516,0.225572 -1.79399,0.225572 -0.759134,0 -1.46103,-0.118181 -2.10558,-0.354544 -0.64455,-0.23626 -1.22467,-0.597997 -1.74024,-1.08501 -0.529966,-0.501294 -0.923869,-1.06343 -1.18171,-1.6865 -0.257841,-0.623072 -0.386709,-1.31417 -0.386709,-2.07341 0,-0.802091 0.107391,-1.51107 0.322275,-2.12695 0.214781,-0.615981 0.537056,-1.14595 0.966825,-1.59 0.429666,-0.44395 0.880912,-0.809181 1.35353,-1.09569 0.472725,-0.286512 0.966825,-0.494203 1.48251,-0.623072 0.0572408,-0.0142845 0.110988,-0.025075 0.161137,-0.0322686 0.0501499,-0.00709087 0.103794,-0.0178813 0.161137,-0.0321658 0.0572408,0 0.110988,-0.00359682 0.161137,-0.0107905 0.0501499,-0.00709087 0.103794,-0.0178813 0.161137,-0.0321658 0.114584,-0.0143873 0.225572,-0.025075 0.333065,-0.0322686 0.107391,-0.00719364 0.211185,-0.0107905 0.311485,-0.0107905 0.587309,0 1.13516,0.0824185 1.64364,0.247153 0.508487,0.164734 0.977513,0.411784 1.40728,0.741253 0.415381,0.329366 0.791403,0.6947 1.12796,1.09569 0.336559,0.401097 0.633862,0.830762 0.8916,1.2891l-7.11163 3.84592 -0.837853 -1.50398 0 0z"/>
   <path id="_99320872" class="fil1" d="M164.291 18.6791l1.86922 0 0 6.2522c0,0.401097 0.0573436,0.755537 0.171928,1.06353 0.114584,0.30799 0.28641,0.583712 0.515578,0.827166 0.243556,0.229169 0.515681,0.401097 0.816478,0.515681 0.300797,0.114584 0.64455,0.171825 1.03126,0.171825 0.300797,0 0.580115,-0.0501499 0.837956,-0.150347 0.257841,-0.1003 0.479816,-0.257841 0.666028,-0.472725 0.2006,-0.214781 0.365231,-0.440456 0.494203,-0.676716 0.128869,-0.236362 0.221975,-0.483412 0.279319,-0.741253 0.0142845,-0.0573436 0.025075,-0.11109 0.0321658,-0.161137 0.00719364,-0.0501499 0.0179841,-0.103897 0.0322686,-0.161137 0,-0.0286718 0,-0.0573436 0,-0.0860154 0,-0.028569 0.00719364,-0.0572408 0.0214781,-0.0859126 0,-0.0286718 0,-0.0572408 0,-0.0859126 0,-0.0286718 0,-0.0573436 0,-0.0859126l0 -6.12333 1.86922 0 0 5.90844c0,0.0286718 0,0.0537467 0,0.0752249 0,0.0214781 0,0.0393595 0,0.053644 0,0.0143873 0,0.0286718 0,0.0429563 0,0.0143873 0.00719364,0.0286718 0.0214781,0.0430591 0,0.0142845 0,0.028569 0,0.0429563 0,0.0142845 0,0.028569 0,0.0429563 0,0.0142845 0,0.0286718 0,0.0429563 0,0.0142845 0,0.0286718 0,0.0429563 0,0.601594 -0.096703,1.16023 -0.290006,1.67581 -0.193406,0.515681 -0.483412,0.988406 -0.870225,1.41807 -0.386709,0.429666 -0.837853,0.748447 -1.35353,0.956137 -0.515681,0.207691 -1.0958,0.311485 -1.74035,0.311485 -0.630163,0 -1.21028,-0.0895094 -1.74024,-0.268528 -0.529966,-0.179122 -1.00269,-0.44765 -1.41807,-0.805687 -0.415381,-0.372425 -0.726866,-0.859434 -0.934556,-1.46103 -0.207691,-0.601594 -0.311587,-1.32497 -0.311587,-2.17001l0 -5.9514 0 0z"/>
   <path id="_993208721" class="fil1" d="M177.161 24.2653l5.07049 -2.879c-0.0286718,-0.0143873 -0.0572408,-0.0322686 -0.0859126,-0.0537467 -0.0286718,-0.0214781 -0.0573436,-0.0537467 -0.0859126,-0.096703 -0.0286718,-0.0286718 -0.0609404,-0.0644344 -0.096703,-0.107391 -0.0358654,-0.0429563 -0.0752249,-0.0860154 -0.118181,-0.128972 -0.0429563,-0.028569 -0.0895094,-0.0608376 -0.139659,-0.0966003 -0.0501499,-0.0358654 -0.096703,-0.0752249 -0.139659,-0.118181 -0.0573436,-0.0286718 -0.114584,-0.0609404 -0.171928,-0.096703 -0.0572408,-0.0358654 -0.121675,-0.0680313 -0.193303,-0.096703 -0.143256,-0.0716281 -0.311587,-0.121778 -0.504891,-0.150347 -0.193406,-0.0286718 -0.411887,-0.0430591 -0.65534,-0.0430591 -0.558637,0 -1.04914,0.1003 -1.47172,0.300797 -0.422575,0.2006 -0.777118,0.494203 -1.06353,0.880912 -0.286512,0.386709 -0.501294,0.795 -0.64455,1.22467 -0.143256,0.429768 -0.214884,0.873719 -0.214884,1.33206 0,0.0143873 0,0.025075 0,0.0322686 0,0.00719364 0,0.0107905 0,0.0107905 0,0 0,0 0,0 0,0 0,0 0,0 0,0.0142845 0,0.0214781 0,0.0214781 0,0 0,0 0,0 0,0.415381 0.0752249,0.812778 0.225572,1.1924 0.15045,0.379516 0.368828,0.741253 0.65534,1.08501 0.286512,0.343753 0.640953,0.601594 1.06353,0.773419 0.422575,0.171928 0.905987,0.257841 1.45024,0.257841 0.587309,0 1.07781,-0.0680313 1.47172,-0.204094 0.393903,-0.136063 0.691103,-0.340156 0.891703,-0.612281 0.200497,-0.286512 0.383113,-0.623072 0.547847,-1.00988 0.164734,-0.386709 0.311485,-0.823569 0.440456,-1.31058 0,0 0,0 0,0 0,0 0,-0.00719364 0,-0.0214781 0,0 0,0 0,0 0,0 0,0 0,0 0,0 0,0 0,0 0,0 0.00709087,-0.00719364 0.0214781,-0.0214781 0,0 0,-0.00359682 0,-0.0107905 0,-0.00709087 0,-0.0106877 0,-0.0106877l1.86922 0.107391c0,0.0286718 0,0.0537467 0,0.0752249 0,0.0214781 0.00719364,0.0393595 0.0214781,0.0537467 0,0.028569 0,0.0501499 0,0.0644344 0,0.0142845 0,0.0357627 0,0.0644344 0,0.0143873 0,0.0322686 0,0.0537467 0,0.0214781 0.00719364,0.0393595 0.0214781,0.053644 0,0.0286718 0,0.0501499 0,0.0645372 0,0.0142845 0,0.028569 0,0.0429563 0,0.114584 -0.00719364,0.232766 -0.0214781,0.354441 -0.0142845,0.121778 -0.0357627,0.247153 -0.0644344,0.376022 -0.0143873,0.0573436 -0.0322686,0.121778 -0.0537467,0.193406 -0.0214781,0.0716281 -0.0393595,0.136063 -0.0537467,0.193303 -0.028569,0.0716281 -0.053644,0.139659 -0.0751221,0.204197 -0.0214781,0.0644344 -0.0465531,0.132466 -0.0752249,0.204094 -0.171928,0.358038 -0.401097,0.708984 -0.687506,1.05274 -0.286512,0.343753 -0.637459,0.666028 -1.05284,0.966825 -0.400994,0.300797 -0.870122,0.526369 -1.40728,0.676819 -0.537056,0.150347 -1.13516,0.225572 -1.79399,0.225572 -0.759134,0 -1.46103,-0.118181 -2.10558,-0.354544 -0.64455,-0.23626 -1.22467,-0.597997 -1.74024,-1.08501 -0.529966,-0.501294 -0.923869,-1.06343 -1.18171,-1.6865 -0.257841,-0.623072 -0.386709,-1.31417 -0.386709,-2.07341 0,-0.802091 0.107391,-1.51107 0.322275,-2.12695 0.214781,-0.615981 0.537056,-1.14595 0.966825,-1.59 0.429666,-0.44395 0.880912,-0.809181 1.35353,-1.09569 0.472725,-0.286512 0.966825,-0.494203 1.48251,-0.623072 0.0572408,-0.0142845 0.110988,-0.025075 0.161137,-0.0322686 0.0501499,-0.00709087 0.103794,-0.0178813 0.161137,-0.0321658 0.0572408,0 0.110988,-0.00359682 0.161137,-0.0107905 0.0501499,-0.00709087 0.103794,-0.0178813 0.161137,-0.0321658 0.114584,-0.0143873 0.225572,-0.025075 0.333065,-0.0322686 0.107391,-0.00719364 0.211185,-0.0107905 0.311485,-0.0107905 0.587309,0 1.13516,0.0824185 1.64364,0.247153 0.508487,0.164734 0.977513,0.411784 1.40728,0.741253 0.415381,0.329366 0.791403,0.6947 1.12796,1.09569 0.336559,0.401097 0.633862,0.830762 0.8916,1.2891l-7.11163 3.84592 -0.837853 -1.50398 0 0z"/>
   <path id="_9932087212" class="fil1" d="M186.636 27.1228l4.38298 0c0.028569,0.0286718 0.0572408,0.0429563 0.0859126,0.0429563 0.0286718,0 0.0573436,0 0.0859126,0 0.0286718,0 0.0573436,0 0.0860154,0 0.028569,0 0.0572408,0 0.0859126,0 0.0286718,0.0143873 0.0572408,0.0214781 0.0859126,0.0214781 0.0286718,0 0.0573436,0 0.0859126,0 0.0286718,0 0.0573436,0 0.0860154,0 0.028569,0 0.0572408,0 0.0859126,0 0.171825,0 0.333065,-0.0106877 0.483412,-0.0321658 0.150347,-0.0214781 0.2972,-0.0609404 0.440456,-0.118181 0.143256,-0.0429563 0.250647,-0.125375 0.322275,-0.247153 0.0716281,-0.121675 0.107391,-0.275722 0.107391,-0.461934 0,-0.200497 -0.053644,-0.379516 -0.161137,-0.537056 -0.107391,-0.157541 -0.268528,-0.293706 -0.483412,-0.40829 -0.214781,-0.114584 -0.461934,-0.221975 -0.741253,-0.322275 -0.279319,-0.100197 -0.58361,-0.200497 -0.913078,-0.300797 -0.0429563,-0.0142845 -0.0859126,-0.025075 -0.128972,-0.0321658 -0.0429563,-0.00719364 -0.0859126,-0.0178813 -0.128869,-0.0322686 -0.0572408,-0.0142845 -0.107391,-0.025075 -0.150347,-0.0321658 -0.0430591,-0.00719364 -0.0860154,-0.0179841 -0.128972,-0.0322686 -0.100197,-0.0286718 -0.1969,-0.0573436 -0.290006,-0.0859126 -0.0931062,-0.0286718 -0.182616,-0.0573436 -0.268631,-0.0860154 -0.458337,-0.114584 -0.870122,-0.264931 -1.23535,-0.451144 -0.365231,-0.186212 -0.691103,-0.393903 -0.977615,-0.623072 -0.272125,-0.243453 -0.476219,-0.526369 -0.612281,-0.848644 -0.136063,-0.322275 -0.204094,-0.691103 -0.204094,-1.10648 0,-0.587309 0.100197,-1.07072 0.300797,-1.45024 0.200497,-0.379619 0.501294,-0.641056 0.90239,-0.784209 0.400994,-0.157643 0.837853,-0.275825 1.31058,-0.354544 0.472622,-0.0788217 0.988303,-0.118181 1.54694,-0.118181l3.88878 -0.0429563 0 1.67581 -4.06071 0c-0.257841,0.0286718 -0.497697,0.0573436 -0.719775,0.0860154 -0.221975,0.028569 -0.426069,0.0715253 -0.612281,0.128869 -0.186212,0.0572408 -0.322275,0.143256 -0.408188,0.257841 -0.0860154,0.114584 -0.128972,0.257841 -0.128972,0.429666 0,0.186212 0.0465531,0.354544 0.139659,0.504891 0.0931062,0.15045 0.232766,0.275722 0.418978,0.376022 0.186212,0.1003 0.383113,0.189809 0.590803,0.268528 0.207691,0.0788217 0.426172,0.154047 0.65534,0.225675 0.0716281,0.0142845 0.139659,0.028569 0.204094,0.0429563 0.0644344,0.0142845 0.125375,0.028569 0.182616,0.0429563 0.0286718,0.0142845 0.0573436,0.025075 0.0859126,0.0321658 0.0286718,0.00719364 0.0645372,0.0107905 0.107493,0.0107905 0.0286718,0.0142845 0.0572408,0.025075 0.0859126,0.0322686 0.0286718,0.00709087 0.0573436,0.0106877 0.0859126,0.0106877 0.0429563,0.0143873 0.0860154,0.0286718 0.128972,0.0429563 0.0429563,0.0143873 0.0859126,0.0286718 0.128869,0.0429563 0.0286718,0 0.0501499,0.00359682 0.0644344,0.0107905 0.0143873,0.00719364 0.0358654,0.0106877 0.0645372,0.0106877 0.0142845,0.0143873 0.0321658,0.025075 0.053644,0.0322686 0.0214781,0.00719364 0.0394622,0.0107905 0.0537467,0.0107905 0.630265,0.214781 1.16732,0.436859 1.61137,0.666028 0.444053,0.229169 0.787806,0.465531 1.03126,0.708984 0.243556,0.243453 0.426172,0.533562 0.54795,0.870122 0.121675,0.336662 0.182616,0.712581 0.182616,1.12796 -0.0143873,0.472725 -0.0895094,0.870225 -0.225572,1.1925 -0.136165,0.322275 -0.325872,0.576519 -0.569428,0.762731 -0.229169,0.186212 -0.476219,0.336559 -0.741253,0.451144 -0.264931,0.114584 -0.540653,0.193406 -0.827166,0.236362 -0.100197,0.0142845 -0.1969,0.0214781 -0.290006,0.0214781 -0.0931062,0 -0.182616,0 -0.268631,0 -0.0429563,0 -0.0859126,0 -0.128869,0 -0.0429563,0 -0.0859126,0.00719364 -0.128869,0.0214781 -0.0430591,0 -0.0824185,0 -0.118181,0 -0.0358654,0 -0.0752249,0 -0.118181,0 -0.0429563,0 -0.0824185,0 -0.118181,0 -0.0358654,0 -0.0680313,0 -0.096703,0 -0.0429563,0 -0.0823158,0 -0.118181,0 -0.0357627,0 -0.0680313,0 -0.096703,0 -0.0429563,-0.0142845 -0.0823158,-0.0214781 -0.118078,-0.0214781 -0.0358654,0 -0.068134,0 -0.096703,0 -0.0286718,0 -0.0573436,0 -0.0860154,0 -0.028569,0 -0.0572408,0 -0.0859126,0l-4.21105 0 0 -1.86922 0 0z"/>
   <path id="_99320872123" class="fil1" d="M196.949 25.6188l0 -9.47495 2.01967 0 0 2.53524 3.91026 0 0 1.84774 -3.91026 0 0 5.24241c0,0.200497 0.0142845,0.379516 0.0429563,0.537056 0.0286718,0.157643 0.0716281,0.30799 0.128869,0.451247 0.0573436,0.143256 0.182616,0.24705 0.376022,0.311485 0.193406,0.0645372 0.461934,0.096703 0.805687,0.096703l2.3849 -0.0429563 0 1.86922 -2.53524 0c-0.0143873,0 -0.0286718,0 -0.0429563,0 -0.0143873,0 -0.0286718,0 -0.0430591,0 -0.0142845,0 -0.0249722,0 -0.0321658,0 -0.00719364,0 -0.0178813,0.00719364 -0.0322686,0.0214781 -0.0142845,0 -0.0286718,0 -0.0429563,0 -0.0142845,0 -0.0286718,0 -0.0429563,0 -0.0142845,0 -0.025075,0 -0.0322686,0 -0.00709087,0 -0.0178813,0 -0.0321658,0 -0.487009,0 -0.909584,-0.0716281 -1.26762,-0.214884 -0.35814,-0.143153 -0.651744,-0.365231 -0.880912,-0.666028 -0.229169,-0.300797 -0.404693,-0.623072 -0.526369,-0.966825 -0.121778,-0.343753 -0.197003,-0.701791 -0.225675,-1.07422 -0.0142845,-0.0286718 -0.0214781,-0.0609404 -0.0214781,-0.096703 0,-0.0358654 0,-0.0752249 0,-0.118181 0,-0.0286718 0,-0.0608376 0,-0.096703 0,-0.0357627 0,-0.0752249 0,-0.118181l0 -0.0429563z"/>
   <path id="_993208721234" class="fil1" d="M203.373 23.5778c0,-0.787806 0.136063,-1.49689 0.408188,-2.12706 0.272228,-0.630265 0.673222,-1.18171 1.20319,-1.65443 0.544353,-0.472622 1.12087,-0.827166 1.72956,-1.06343 0.608787,-0.236362 1.24974,-0.354544 1.92296,-0.354544 0.0286718,0 0.0608376,0 0.096703,0 0.0357627,0 0.0680313,0 0.096703,0 0.028569,0.0142845 0.0608376,0.0214781 0.0966003,0.0214781 0.0358654,0 0.0752249,0 0.118181,0 0.0286718,0 0.0609404,0 0.096703,0 0.0358654,0 0.0752249,0 0.118181,0 0.0286718,0.0142845 0.0608376,0.0214781 0.096703,0.0214781 0.0357627,0 0.0680313,0 0.096703,0 0.572922,0.0859126 1.12077,0.254244 1.64354,0.504891 0.522875,0.250647 1.02777,0.583712 1.51477,0.999093 0.472622,0.429666 0.830762,0.966825 1.07422,1.61137 0.243556,0.64455 0.365231,1.39659 0.365231,2.25592 0,0.0573436 0,0.114584 0,0.171928 0,0.0572408 -0.00709087,0.107391 -0.0214781,0.150347 0,0.0573436 -0.00349405,0.114584 -0.0106877,0.171928 -0.00719364,0.0572408 -0.0107905,0.114584 -0.0107905,0.171825 -0.0142845,0.114584 -0.0321658,0.229272 -0.053644,0.343856 -0.0214781,0.114584 -0.0465531,0.229169 -0.0752249,0.343753 -0.128972,0.515578 -0.325872,1.00618 -0.590906,1.47172 -0.264931,0.465531 -0.605088,0.905987 -1.02047,1.32137 -0.401097,0.415381 -0.880912,0.723269 -1.43955,0.923869 -0.558637,0.200497 -1.18171,0.300797 -1.86922,0.300797 -0.974019,0 -1.81547,-0.132568 -2.52456,-0.3975 -0.708984,-0.265034 -1.2855,-0.669625 -1.72956,-1.21398 -0.44395,-0.54425 -0.777016,-1.14584 -0.998991,-1.80468 -0.222078,-0.658937 -0.333065,-1.36792 -0.333065,-2.12706l0 -0.0429563zm2.04114 0c0,0.114584 0,0.218378 0,0.311485 0,0.0931062 0.00709087,0.189809 0.0214781,0.290109 0.0142845,0.100197 0.0321658,0.1969 0.053644,0.290006 0.0215809,0.0931062 0.0394622,0.189809 0.0537467,0.290006 0.0716281,0.315184 0.186212,0.623072 0.343753,0.923869 0.157541,0.300797 0.350947,0.587309 0.580115,0.859434 0.243556,0.272125 0.54425,0.472725 0.90239,0.601594 0.358038,0.128869 0.780612,0.193406 1.26762,0.193406 0.458337,0 0.888106,-0.0645372 1.2891,-0.193406 0.401097,-0.128869 0.766328,-0.322275 1.0958,-0.580115 0.329366,-0.257841 0.576519,-0.633759 0.741253,-1.12796 0.164632,-0.494203 0.24705,-1.09929 0.24705,-1.81547 0,-0.501397 -0.0716281,-0.956137 -0.214884,-1.36432 -0.143256,-0.408188 -0.358038,-0.769925 -0.64455,-1.08501 -0.28641,-0.300797 -0.640953,-0.529966 -1.06353,-0.687506 -0.422472,-0.157541 -0.905987,-0.236362 -1.45024,-0.236362 -0.515681,0 -0.959631,0.0680313 -1.33206,0.204094 -0.372425,0.136063 -0.680415,0.34735 -0.923869,0.633862 -0.243556,0.272125 -0.440456,0.565728 -0.590906,0.88081 -0.150347,0.315184 -0.254244,0.637459 -0.311485,0.966928 -0.0142845,0.0572408 -0.0286718,0.114584 -0.0429563,0.171825 -0.0143873,0.0573436 -0.0214781,0.114584 -0.0214781,0.171928 0,0.0572408 0,0.114584 0,0.171825 0,0.0573436 0,0.114584 0,0.171928l0 -0.0429563z"/>
   <path id="_9932087212345" class="fil1" d="M215.233 27.1228l4.38298 0c0.028569,0.0286718 0.0572408,0.0429563 0.0859126,0.0429563 0.0286718,0 0.0573436,0 0.0859126,0 0.0286718,0 0.0573436,0 0.0860154,0 0.028569,0 0.0572408,0 0.0859126,0 0.0286718,0.0143873 0.0572408,0.0214781 0.0859126,0.0214781 0.0286718,0 0.0573436,0 0.0859126,0 0.0286718,0 0.0573436,0 0.0860154,0 0.028569,0 0.0572408,0 0.0859126,0 0.171825,0 0.333065,-0.0106877 0.483412,-0.0321658 0.150347,-0.0214781 0.2972,-0.0609404 0.440456,-0.118181 0.143256,-0.0429563 0.250647,-0.125375 0.322275,-0.247153 0.0716281,-0.121675 0.107391,-0.275722 0.107391,-0.461934 0,-0.200497 -0.053644,-0.379516 -0.161137,-0.537056 -0.107391,-0.157541 -0.268528,-0.293706 -0.483412,-0.40829 -0.214781,-0.114584 -0.461934,-0.221975 -0.741253,-0.322275 -0.279319,-0.100197 -0.58361,-0.200497 -0.913078,-0.300797 -0.0429563,-0.0142845 -0.0859126,-0.025075 -0.128972,-0.0321658 -0.0429563,-0.00719364 -0.0859126,-0.0178813 -0.128869,-0.0322686 -0.0572408,-0.0142845 -0.107391,-0.025075 -0.150347,-0.0321658 -0.0430591,-0.00719364 -0.0860154,-0.0179841 -0.128972,-0.0322686 -0.100197,-0.0286718 -0.1969,-0.0573436 -0.290006,-0.0859126 -0.0931062,-0.0286718 -0.182616,-0.0573436 -0.268631,-0.0860154 -0.458337,-0.114584 -0.870122,-0.264931 -1.23535,-0.451144 -0.365231,-0.186212 -0.691103,-0.393903 -0.977615,-0.623072 -0.272125,-0.243453 -0.476219,-0.526369 -0.612281,-0.848644 -0.136063,-0.322275 -0.204094,-0.691103 -0.204094,-1.10648 0,-0.587309 0.100197,-1.07072 0.300797,-1.45024 0.200497,-0.379619 0.501294,-0.641056 0.90239,-0.784209 0.400994,-0.157643 0.837853,-0.275825 1.31058,-0.354544 0.472622,-0.0788217 0.988303,-0.118181 1.54694,-0.118181l3.88878 -0.0429563 0 1.67581 -4.06071 0c-0.257841,0.0286718 -0.497697,0.0573436 -0.719775,0.0860154 -0.221975,0.028569 -0.426069,0.0715253 -0.612281,0.128869 -0.186212,0.0572408 -0.322275,0.143256 -0.408188,0.257841 -0.0860154,0.114584 -0.128972,0.257841 -0.128972,0.429666 0,0.186212 0.0465531,0.354544 0.139659,0.504891 0.0931062,0.15045 0.232766,0.275722 0.418978,0.376022 0.186212,0.1003 0.383113,0.189809 0.590803,0.268528 0.207691,0.0788217 0.426172,0.154047 0.65534,0.225675 0.0716281,0.0142845 0.139659,0.028569 0.204094,0.0429563 0.0644344,0.0142845 0.125375,0.028569 0.182616,0.0429563 0.0286718,0.0142845 0.0573436,0.025075 0.0859126,0.0321658 0.0286718,0.00719364 0.0645372,0.0107905 0.107493,0.0107905 0.0286718,0.0142845 0.0572408,0.025075 0.0859126,0.0322686 0.0286718,0.00709087 0.0573436,0.0106877 0.0859126,0.0106877 0.0429563,0.0143873 0.0860154,0.0286718 0.128972,0.0429563 0.0429563,0.0143873 0.0859126,0.0286718 0.128869,0.0429563 0.0286718,0 0.0501499,0.00359682 0.0644344,0.0107905 0.0143873,0.00719364 0.0358654,0.0106877 0.0645372,0.0106877 0.0142845,0.0143873 0.0321658,0.025075 0.053644,0.0322686 0.0214781,0.00719364 0.0394622,0.0107905 0.0537467,0.0107905 0.630265,0.214781 1.16732,0.436859 1.61137,0.666028 0.444053,0.229169 0.787806,0.465531 1.03126,0.708984 0.243556,0.243453 0.426172,0.533562 0.54795,0.870122 0.121675,0.336662 0.182616,0.712581 0.182616,1.12796 -0.0143873,0.472725 -0.0895094,0.870225 -0.225572,1.1925 -0.136165,0.322275 -0.325872,0.576519 -0.569428,0.762731 -0.229169,0.186212 -0.476219,0.336559 -0.741253,0.451144 -0.264931,0.114584 -0.540653,0.193406 -0.827166,0.236362 -0.100197,0.0142845 -0.1969,0.0214781 -0.290006,0.0214781 -0.0931062,0 -0.182616,0 -0.268631,0 -0.0429563,0 -0.0859126,0 -0.128869,0 -0.0429563,0 -0.0859126,0.00719364 -0.128869,0.0214781 -0.0430591,0 -0.0824185,0 -0.118181,0 -0.0358654,0 -0.0752249,0 -0.118181,0 -0.0429563,0 -0.0824185,0 -0.118181,0 -0.0358654,0 -0.0680313,0 -0.096703,0 -0.0429563,0 -0.0823158,0 -0.118181,0 -0.0357627,0 -0.0680313,0 -0.096703,0 -0.0429563,-0.0142845 -0.0823158,-0.0214781 -0.118078,-0.0214781 -0.0358654,0 -0.068134,0 -0.096703,0 -0.0286718,0 -0.0573436,0 -0.0860154,0 -0.028569,0 -0.0572408,0 -0.0859126,0l-4.21105 0 0 -1.86922 0 0z"/>
   <path id="_99320800" class="fil1" d="M152.934 29.3524l0 -5.50231c0,-0.787806 0.125889,-1.5007 0.376124,-2.13795 0.250236,-0.637048 0.626874,-1.1926 1.12817,-1.66543 0.501191,-0.472622 1.03845,-0.827371 1.61158,-1.06363 0.573025,-0.236362 1.17482,-0.354646 1.80499,-0.354646 0.128663,0 0.257841,0.00739917 0.386812,0.0215809 0.128663,0.0142845 0.264931,0.036071 0.408085,0.0645372 0.143153,0.0286718 0.286821,0.0644344 0.429871,0.107288 0.143153,0.042648 0.288876,0.0797466 0.429768,0.128972 0.431927,0.150964 0.838264,0.372528 1.22477,0.644653 0.386812,0.272022 0.792122,0.574052 1.11748,0.988509 1.07833,1.37275 1.05983,3.54934 0.039565,4.92189 -0.290109,0.390101 -0.677127,0.662431 -1.04236,0.913181 -0.365128,0.250441 -0.741253,0.434187 -1.12807,0.54795 -0.0999916,0.0291856 -0.204094,0.054055 -0.311382,0.0753277 -0.107391,0.0213754 -0.211698,0.0393595 -0.31169,0.0535412 -0.1003,0.0142845 -0.200497,0.0251777 -0.300797,0.0322686 -0.100197,0.00709087 -0.200702,0.0124347 -0.301002,0.0108932l-2.8793 -0.0431618 0 -1.84784 1.86952 0c0.0143873,0.0141817 0.0286718,0.0253833 0.0428535,0.0321658 0.0141817,0.00719364 0.0286718,0.0106877 0.0431618,0.0106877 0,0 0.00709087,0 0.0212726,0 0.01449,0 0.0286718,0 0.0431618,0 0.0141817,0 0.0286718,0 0.0428535,0 0.01449,0 0.0287746,0 0.0429563,0 0,0 0.0072964,0 0.0215809,0 0.0143873,0 0.0286718,0 0.0428535,0 0.429974,0 0.802502,-0.0393595 1.11748,-0.117976 0.315184,-0.0787189 0.569736,-0.208615 0.773522,-0.376124 0.197003,-0.161651 0.37263,-0.329674 0.515784,-0.515784 0.143153,-0.186212 0.249722,-0.380132 0.322275,-0.580115 0.0416203,-0.114995 0.0751221,-0.232766 0.096703,-0.354544 0.0611459,-0.351255 0.0497389,-0.579396 -0.0718336,-0.914414 -0.07913,-0.217556 -0.200702,-0.422575 -0.343856,-0.623072 -0.143153,-0.200291 -0.315184,-0.393903 -0.515681,-0.580218 -0.200497,-0.186007 -0.451349,-0.325872 -0.752043,-0.418978 -0.300797,-0.093209 -0.658834,-0.139865 -1.07432,-0.139865 -0.630471,0 -1.14615,0.100711 -1.54715,0.301002 -0.400994,0.200497 -0.674352,0.50376 -0.838059,0.902493 -0.165659,0.403563 -0.297406,0.841553 -0.376124,1.32147 -0.0786162,0.479918 -0.118284,0.231532 -0.118284,0.775166l0 5.38249 -2.04125 0z"/>
   <ellipse id="_99320728" class="fil2 str0" cx="43.5904" cy="25.985" rx="5.9979" ry="6.00858"/>
   <ellipse id="_99320656" class="fil2 str1" cx="43.5724" cy="25.9744" rx="4.62446" ry="4.63271"/>
   <g>
    <line id="_99320584" class="fil2 str2" x1="12.1633" y1="11.2878" x2="17.4249" y2= "11.2878" />
    <path id="_99320512" class="fil2 str2" d="M24.1387 17.854c-2.58755,2.8865 -5.53694,5.35916 -8.78662,7.48878 4.86608,4.23531 10.3926,6.48301 16.5812,6.74362 -1.92985,-3.23066 -3.56681,-6.81988 -3.79187,-12.1368"/>
    <path id="_99320440" class="fil2 str0" d="M35.8659 16.8246l-1.13382 1.02941 0 10.4346c0.303572,1.36628 0.876493,2.34821 1.8425,2.76842"/>
    <line id="_99320368" class="fil2 str0" x1="36.114" y1="17.852" x2="50.7818" y2= "17.852" />
    <polyline id="_99320296" class="fil2 str0" points="12.1633,11.2878 17.159,11.2878 24.1387,17.854 34.7321,17.854 35.8658,16.8246 "/>
    <path id="_99320224" class="fil2 str0" d="M34.7321 17.854l0 10.4346c0.278702,1.393 0.892833,2.31573 1.8425,2.76842"/>
    <path id="_99320152" class="fil2 str0" d="M24.1387 17.854c-2.5746,2.89308 -5.54568,5.342 -8.78662,7.48878 4.70556,4.06297 10.1517,6.48938 16.5812,6.74362 -2.35037,-3.78139 -3.65211,-7.81774 -3.79187,-12.1368l-4.19595 -1.88144 -0.161137 -0.0722447 -6.44827 -3.93975 -4.14528 0"/>
    <polyline id="_99320080" class="fil2 str0" points="24.1387,17.854 17.159,11.2878 12.1633,11.2878 "/>
   </g>
  </g>
 </g>
</svg>
