<?xml version="1.0" encoding="UTF-8"?>
<!DOCTYPE svg PUBLIC "-//W3C//DTD SVG 1.1//EN" "http://www.w3.org/Graphics/SVG/1.1/DTD/svg11.dtd">
<!-- Creator: CorelDRAW -->
<svg xmlns="http://www.w3.org/2000/svg" xml:space="preserve" width="161.047mm" height="50.6301mm" style="shape-rendering:geometricPrecision; text-rendering:geometricPrecision; image-rendering:optimizeQuality; fill-rule:evenodd; clip-rule:evenodd"
viewBox="0 0 220.534 69.3316"
 xmlns:xlink="http://www.w3.org/1999/xlink">
 <defs>
  <style type="text/css">
   <![CDATA[
    .str1 {stroke:white;stroke-width:0.479282}
    .str0 {stroke:white;stroke-width:2.73875}
    .fil1 {fill:none}
    .fil0 {fill:white;fill-rule:nonzero}
   ]]>
  </style>
 </defs>
 <g id="Capa_x0020_1">
  <metadata id="CorelCorpID_0Corel-Layer"/>
  <path class="fil0" d="M21.7202 54.9024l0 7.48186c0,2.09939 -0.558295,3.77907 -1.67968,5.04834 -1.11645,1.26434 -2.57662,1.89905 -4.38502,1.89905 -0.820667,0 -1.59368,-0.157478 -2.31425,-0.467642 -0.720429,-0.314956 -1.35513,-0.76822 -1.89426,-1.36472 -0.558295,0.586915 -1.18821,1.04031 -1.88481,1.35513 -0.701394,0.319749 -1.41717,0.477228 -2.15677,0.477228 -1.88002,0 -3.38784,-0.62512 -4.52825,-1.88002 -1.13562,-1.2549 -1.70337,-2.94402 -1.70337,-5.06738l0 -7.48186 4.37557 0 0 8.16888c0,0.577466 0.176513,1.04976 0.529538,1.41717 0.353162,0.367404 0.79684,0.553502 1.32651,0.553502 0.543916,0 0.982938,-0.186098 1.33131,-0.553502 0.343576,-0.367404 0.515296,-0.839701 0.515296,-1.41717l0 -8.16888 4.40419 0 0 8.16888c0,0.577466 0.17172,1.04976 0.515296,1.41717 0.348369,0.367404 0.782598,0.553502 1.31693,0.553502 0.53926,0 0.982938,-0.186098 1.33131,-0.553502 0.348369,-0.367404 0.524882,-0.839701 0.524882,-1.41717l0 -8.16888 4.37557 0z"/>
  <path id="1" class="fil0" d="M23.8768 51.0709c0,-0.715773 0.252924,-1.32651 0.763427,-1.83236 0.505847,-0.501055 1.12138,-0.753841 1.83715,-0.753841 0.715636,0 1.33117,0.252787 1.83702,0.753841 0.510503,0.505847 0.763427,1.11659 0.763427,1.83236 0,0.715636 -0.252924,1.33117 -0.763427,1.83702 -0.505847,0.510503 -1.12138,0.763427 -1.83702,0.763427 -0.715773,0 -1.33131,-0.252924 -1.83715,-0.763427 -0.510503,-0.505847 -0.763427,-1.12138 -0.763427,-1.83702zm0.333991 18.0078l0 -14.1763 4.52825 0 0 14.1763 -4.52825 0z"/>
  <polygon id="12" class="fil0" points="31.3682,69.0787 31.3682,49.062 35.8964,49.062 35.8964,69.0787 "/>
  <polygon id="123" class="fil0" points="38.5255,69.0787 38.5255,49.062 43.0537,49.062 43.0537,69.0787 "/>
  <path id="1234" class="fil0" d="M45.3488 51.0709c0,-0.715773 0.252924,-1.32651 0.763427,-1.83236 0.505847,-0.501055 1.12138,-0.753841 1.83715,-0.753841 0.715636,0 1.33117,0.252787 1.83702,0.753841 0.510503,0.505847 0.763427,1.11659 0.763427,1.83236 0,0.715636 -0.252924,1.33117 -0.763427,1.83702 -0.505847,0.510503 -1.12138,0.763427 -1.83702,0.763427 -0.715773,0 -1.33131,-0.252924 -1.83715,-0.763427 -0.510503,-0.505847 -0.763427,-1.12138 -0.763427,-1.83702zm0.333991 18.0078l0 -14.1763 4.52825 0 0 14.1763 -4.52825 0z"/>
  <path id="12345" class="fil0" d="M61.2286 69.0787l0 -7.89692c0,-0.663326 -0.190891,-1.20245 -0.572673,-1.61764 -0.381645,-0.415058 -0.877907,-0.62019 -1.48399,-0.62019 -0.601156,0 -1.09742,0.205133 -1.48386,0.62019 -0.386575,0.415195 -0.582122,0.954318 -0.582122,1.61764l0 7.89692 -4.43281 0 0 -7.18594c0,-2.2188 0.596363,-3.98434 1.78457,-5.29647 1.18807,-1.31214 2.75792,-1.97067 4.71901,-1.97067 1.05935,0 2.05653,0.233752 2.98223,0.706187 0.925698,0.472435 1.7083,1.14042 2.34287,2.00408 0.410402,0.577329 0.706187,1.21669 0.892285,1.91808 0.186098,0.696738 0.281544,1.57944 0.281544,2.63879l0 7.18594 -4.44705 0z"/>
  <path id="123456" class="fil0" d="M82.4192 63.8109c-0.744393,1.76074 -1.78936,3.12067 -3.13026,4.07978 -1.34076,0.958974 -2.86761,1.44099 -4.57111,1.44099 -0.93994,0 -1.8466,-0.186098 -2.71972,-0.553502 -0.868458,-0.367404 -1.64147,-0.897078 -2.31425,-1.58423 -0.696738,-0.71098 -1.22628,-1.50782 -1.58423,-2.39052 -0.357818,-0.887493 -0.539123,-1.82757 -0.539123,-2.82475 0,-0.997316 0.181305,-1.93726 0.539123,-2.82475 0.357955,-0.882837 0.887493,-1.67968 1.58423,-2.39066 0.672774,-0.67743 1.4362,-1.20231 2.29987,-1.56506 0.863665,-0.362611 1.77499,-0.543916 2.7341,-0.543916 1.4362,0 2.72465,0.381782 3.86972,1.14042 1.14521,0.758634 2.08994,1.86564 2.82475,3.32101l-6.8614 4.66656 -1.71788 -2.60044 3.71238 -2.58141c-0.243338,-0.162271 -0.491469,-0.281544 -0.753978,-0.357955 -0.262372,-0.0810671 -0.529675,-0.119273 -0.811081,-0.119273 -0.873251,0 -1.61764,0.333991 -2.23318,0.997316 -0.615534,0.667982 -0.920905,1.48399 -0.920905,2.45255 0,0.987731 0.300578,1.81798 0.906664,2.48597 0.605949,0.672774 1.34555,1.00677 2.22346,1.00677 0.820804,0 1.57944,-0.247994 2.28563,-0.739463 0.701394,-0.496262 1.29789,-1.21203 1.79416,-2.15197l3.38304 1.63654z"/>
  <path id="1234567" class="fil0" d="M83.9985 69.0787l0 -14.1763 4.09402 0 0 2.12335c0.448608,-0.734807 1.02594,-1.27407 1.73212,-1.61285 0.71098,-0.338784 1.61271,-0.510503 2.71506,-0.510503l0.529538 0 0 4.28971 -0.195547 0c-1.61285,0 -2.7723,0.357818 -3.48807,1.0688 -0.71098,0.715636 -1.0688,1.87522 -1.0688,3.48794l0 5.32989 -4.31833 0z"/>
  <path class="fil0" d="M102.114 54.9132l2.49076 0 0 1.34555c0.0380687,-0.0190343 0.0714814,-0.0476543 0.100101,-0.0858599 0.0287569,-0.0382056 0.0716184,-0.0858599 0.128858,-0.1431 0.0382056,-0.0573769 0.0858599,-0.114617 0.143237,-0.171857 0.0572399,-0.0572399 0.11448,-0.11448 0.17172,-0.17172 0.152685,-0.152685 0.319749,-0.295922 0.501055,-0.429436 0.181305,-0.133651 0.396024,-0.257717 0.644154,-0.372196 0.22896,-0.11448 0.486676,-0.205269 0.773013,-0.271958 0.2862,-0.0668255 0.59157,-0.100238 0.916113,-0.100238l0.916113 -0.0572399 0 2.49076 -0.687153 0c-0.53433,0.0954455 -0.992387,0.238545 -1.37417,0.429436 -0.381782,0.190891 -0.706187,0.429436 -0.973352,0.715773 -0.248131,0.2862 -0.4534,0.586778 -0.615534,0.901734 -0.162271,0.314956 -0.291129,0.634706 -0.386575,0.959111 -0.0762742,0.248131 -0.133514,0.486676 -0.17172,0.715773 -0.0382056,0.22896 -0.0572399,0.448471 -0.0572399,0.658396 -0.0191713,0.229097 -0.02862,0.429436 -0.02862,0.601293 0,0.17172 0,0.333991 0,0.486676l0 6.2412 -2.49076 0 0 -13.7421 0 0z"/>
  <path id="1" class="fil0" d="M112.964 62.3569l6.7565 -3.83631c-0.0382056,-0.0191713 -0.0762742,-0.0429984 -0.11448,-0.0716184 -0.0382056,-0.02862 -0.0764112,-0.0716184 -0.11448,-0.128858 -0.0382056,-0.0382056 -0.081204,-0.0858599 -0.128858,-0.1431 -0.0477912,-0.0572399 -0.100238,-0.114617 -0.157478,-0.171857 -0.0572399,-0.0380687 -0.119273,-0.0810671 -0.186098,-0.128721 -0.0668255,-0.0477912 -0.128858,-0.100238 -0.186098,-0.157478 -0.0764112,-0.0382056 -0.152685,-0.081204 -0.229097,-0.128858 -0.0762742,-0.0477912 -0.162134,-0.0906527 -0.25758,-0.128858 -0.190891,-0.0954455 -0.415195,-0.162271 -0.672774,-0.20034 -0.257717,-0.0382056 -0.548846,-0.0573769 -0.873251,-0.0573769 -0.744393,0 -1.398,0.133651 -1.96108,0.400816 -0.563087,0.267302 -1.03552,0.658533 -1.41717,1.17383 -0.381782,0.515296 -0.667982,1.05935 -0.858873,1.63189 -0.190891,0.572673 -0.286337,1.16424 -0.286337,1.77499 0,0.0191713 0,0.0334128 0,0.0429984 0,0.00958563 0,0.0143784 0,0.0143784 0,0 0,0 0,0 0,0 0,0 0,0 0,0.0190343 0,0.02862 0,0.02862 0,0 0,0 0,0 0,0.553502 0.100238,1.08304 0.300578,1.58889 0.200477,0.505711 0.491469,0.987731 0.873251,1.44579 0.381782,0.458056 0.85408,0.801633 1.41717,1.03059 0.563087,0.229097 1.20724,0.343576 1.93246,0.343576 0.782598,0 1.4362,-0.0906527 1.96108,-0.271958 0.524882,-0.181305 0.920905,-0.453263 1.18821,-0.815874 0.267165,-0.381782 0.510503,-0.830253 0.730014,-1.34569 0.219511,-0.515296 0.415058,-1.09742 0.586915,-1.74637 0,0 0,0 0,0 0,0 0,-0.00958563 0,-0.02862 0,0 0,0 0,0 0,0 0,0 0,0 0,0 0,0 0,0 0,0 0.00944869,-0.00958563 0.02862,-0.02862 0,0 0,-0.00479282 0,-0.0143784 0,-0.00944869 0,-0.0142415 0,-0.0142415l2.49076 0.1431c0,0.0382056 0,0.0716184 0,0.100238 0,0.02862 0.00958563,0.0524471 0.02862,0.0716184 0,0.0380687 0,0.0668255 0,0.0858599 0,0.0190343 0,0.0476543 0,0.0858599 0,0.0191713 0,0.0429984 0,0.0716184 0,0.02862 0.00958563,0.0524471 0.02862,0.0714814 0,0.0382056 0,0.0668255 0,0.0859968 0,0.0190343 0,0.0380687 0,0.0572399 0,0.152685 -0.00958563,0.310164 -0.02862,0.472298 -0.0190343,0.162271 -0.0476543,0.329335 -0.0858599,0.501055 -0.0191713,0.0764112 -0.0429984,0.162271 -0.0716184,0.257717 -0.02862,0.0954455 -0.0524471,0.181305 -0.0716184,0.25758 -0.0380687,0.0954455 -0.0714814,0.186098 -0.100101,0.272095 -0.02862,0.0858599 -0.0620327,0.176513 -0.100238,0.271958 -0.229097,0.477091 -0.534467,0.944732 -0.916113,1.40279 -0.381782,0.458056 -0.849424,0.887493 -1.40293,1.28831 -0.53433,0.400816 -1.15945,0.701394 -1.87522,0.901871 -0.715636,0.20034 -1.51261,0.300578 -2.39052,0.300578 -1.01156,0 -1.94684,-0.157478 -2.80571,-0.472435 -0.858873,-0.31482 -1.63189,-0.79684 -2.3189,-1.44579 -0.706187,-0.667982 -1.23107,-1.41703 -1.57465,-2.24728 -0.343576,-0.830253 -0.515296,-1.75116 -0.515296,-2.76285 0,-1.0688 0.1431,-2.01353 0.429436,-2.8342 0.2862,-0.820804 0.715636,-1.52699 1.28831,-2.1187 0.572536,-0.59157 1.17383,-1.07825 1.80361,-1.46003 0.629913,-0.381782 1.28831,-0.658533 1.97546,-0.830253 0.0762742,-0.0190343 0.147893,-0.0334128 0.214718,-0.0429984 0.0668255,-0.00944869 0.138307,-0.0238271 0.214718,-0.0428615 0.0762742,0 0.147893,-0.00479282 0.214718,-0.0143784 0.0668255,-0.00944869 0.138307,-0.0238271 0.214718,-0.0428615 0.152685,-0.0191713 0.300578,-0.0334128 0.443815,-0.0429984 0.1431,-0.00958563 0.281407,-0.0143784 0.415058,-0.0143784 0.782598,0 1.51261,0.109824 2.19018,0.329335 0.677567,0.219511 1.30255,0.548709 1.87522,0.987731 0.553502,0.438885 1.05456,0.925698 1.50303,1.46003 0.448471,0.534467 0.844631,1.107 1.18807,1.71775l-9.47636 5.12475 -1.11645 -2.00408 0 0z"/>
  <path class="fil0" d="M141.402 54.8609l2.49076 0 0 8.33115c0,0.534467 0.0764112,1.00677 0.229097,1.41717 0.152685,0.410402 0.381645,0.777806 0.687016,1.10221 0.324542,0.305371 0.687153,0.534467 1.08797,0.687153 0.400816,0.152685 0.858873,0.22896 1.37417,0.22896 0.400816,0 0.773013,-0.0668255 1.11659,-0.20034 0.343576,-0.133651 0.639362,-0.343576 0.887493,-0.629913 0.267302,-0.2862 0.486676,-0.586915 0.658533,-0.901734 0.17172,-0.314956 0.295785,-0.644154 0.372196,-0.987731 0.0190343,-0.0764112 0.0334128,-0.14803 0.0428615,-0.214718 0.00958563,-0.0668255 0.0239641,-0.138444 0.0429984,-0.214718 0,-0.0382056 0,-0.0764112 0,-0.114617 0,-0.0380687 0.00958563,-0.0762742 0.02862,-0.11448 0,-0.0382056 0,-0.0762742 0,-0.11448 0,-0.0382056 0,-0.0764112 0,-0.11448l0 -8.15943 2.49076 0 0 7.87309c0,0.0382056 0,0.0716184 0,0.100238 0,0.02862 0,0.0524471 0,0.0714814 0,0.0191713 0,0.0382056 0,0.0572399 0,0.0191713 0.00958563,0.0382056 0.02862,0.0573769 0,0.0190343 0,0.0380687 0,0.0572399 0,0.0190343 0,0.0380687 0,0.0572399 0,0.0190343 0,0.0382056 0,0.0572399 0,0.0190343 0,0.0382056 0,0.0572399 0,0.801633 -0.128858,1.54603 -0.386438,2.23304 -0.257717,0.687153 -0.644154,1.31707 -1.15959,1.8896 -0.515296,0.572536 -1.11645,0.997316 -1.80361,1.27407 -0.687153,0.276751 -1.46017,0.415058 -2.31904,0.415058 -0.839701,0 -1.61271,-0.119273 -2.3189,-0.357818 -0.706187,-0.238682 -1.3361,-0.5965 -1.8896,-1.07359 -0.553502,-0.496262 -0.96856,-1.14521 -1.24531,-1.94684 -0.276751,-0.801633 -0.415195,-1.76554 -0.415195,-2.89157l0 -7.93033 0 0z"/>
  <path id="1" class="fil0" d="M158.551 62.3046l6.7565 -3.83631c-0.0382056,-0.0191713 -0.0762742,-0.0429984 -0.11448,-0.0716184 -0.0382056,-0.02862 -0.0764112,-0.0716184 -0.11448,-0.128858 -0.0382056,-0.0382056 -0.081204,-0.0858599 -0.128858,-0.1431 -0.0477912,-0.0572399 -0.100238,-0.114617 -0.157478,-0.171857 -0.0572399,-0.0380687 -0.119273,-0.0810671 -0.186098,-0.128721 -0.0668255,-0.0477912 -0.128858,-0.100238 -0.186098,-0.157478 -0.0764112,-0.0382056 -0.152685,-0.081204 -0.229097,-0.128858 -0.0762742,-0.0477912 -0.162134,-0.0906527 -0.25758,-0.128858 -0.190891,-0.0954455 -0.415195,-0.162271 -0.672774,-0.20034 -0.257717,-0.0382056 -0.548846,-0.0573769 -0.873251,-0.0573769 -0.744393,0 -1.398,0.133651 -1.96108,0.400816 -0.563087,0.267302 -1.03552,0.658533 -1.41717,1.17383 -0.381782,0.515296 -0.667982,1.05935 -0.858873,1.63189 -0.190891,0.572673 -0.286337,1.16424 -0.286337,1.77499 0,0.0191713 0,0.0334128 0,0.0429984 0,0.00958563 0,0.0143784 0,0.0143784 0,0 0,0 0,0 0,0 0,0 0,0 0,0.0190343 0,0.02862 0,0.02862 0,0 0,0 0,0 0,0.553502 0.100238,1.08304 0.300578,1.58889 0.200477,0.505711 0.491469,0.987731 0.873251,1.44579 0.381782,0.458056 0.85408,0.801633 1.41717,1.03059 0.563087,0.229097 1.20724,0.343576 1.93246,0.343576 0.782598,0 1.4362,-0.0906527 1.96108,-0.271958 0.524882,-0.181305 0.920905,-0.453263 1.18821,-0.815874 0.267165,-0.381782 0.510503,-0.830253 0.730014,-1.34569 0.219511,-0.515296 0.415058,-1.09742 0.586915,-1.74637 0,0 0,0 0,0 0,0 0,-0.00958563 0,-0.02862 0,0 0,0 0,0 0,0 0,0 0,0 0,0 0,0 0,0 0,0 0.00944869,-0.00958563 0.02862,-0.02862 0,0 0,-0.00479282 0,-0.0143784 0,-0.00944869 0,-0.0142415 0,-0.0142415l2.49076 0.1431c0,0.0382056 0,0.0716184 0,0.100238 0,0.02862 0.00958563,0.0524471 0.02862,0.0716184 0,0.0380687 0,0.0668255 0,0.0858599 0,0.0190343 0,0.0476543 0,0.0858599 0,0.0191713 0,0.0429984 0,0.0716184 0,0.02862 0.00958563,0.0524471 0.02862,0.0714814 0,0.0382056 0,0.0668255 0,0.0859968 0,0.0190343 0,0.0380687 0,0.0572399 0,0.152685 -0.00958563,0.310164 -0.02862,0.472298 -0.0190343,0.162271 -0.0476543,0.329335 -0.0858599,0.501055 -0.0191713,0.0764112 -0.0429984,0.162271 -0.0716184,0.257717 -0.02862,0.0954455 -0.0524471,0.181305 -0.0716184,0.25758 -0.0380687,0.0954455 -0.0714814,0.186098 -0.100101,0.272095 -0.02862,0.0858599 -0.0620327,0.176513 -0.100238,0.271958 -0.229097,0.477091 -0.534467,0.944732 -0.916113,1.40279 -0.381782,0.458056 -0.849424,0.887493 -1.40293,1.28831 -0.53433,0.400816 -1.15945,0.701394 -1.87522,0.901871 -0.715636,0.20034 -1.51261,0.300578 -2.39052,0.300578 -1.01156,0 -1.94684,-0.157478 -2.80571,-0.472435 -0.858873,-0.31482 -1.63189,-0.79684 -2.3189,-1.44579 -0.706187,-0.667982 -1.23107,-1.41703 -1.57465,-2.24728 -0.343576,-0.830253 -0.515296,-1.75116 -0.515296,-2.76285 0,-1.0688 0.1431,-2.01353 0.429436,-2.8342 0.2862,-0.820804 0.715636,-1.52699 1.28831,-2.1187 0.572536,-0.59157 1.17383,-1.07825 1.80361,-1.46003 0.629913,-0.381782 1.28831,-0.658533 1.97546,-0.830253 0.0762742,-0.0190343 0.147893,-0.0334128 0.214718,-0.0429984 0.0668255,-0.00944869 0.138307,-0.0238271 0.214718,-0.0428615 0.0762742,0 0.147893,-0.00479282 0.214718,-0.0143784 0.0668255,-0.00944869 0.138307,-0.0238271 0.214718,-0.0428615 0.152685,-0.0191713 0.300578,-0.0334128 0.443815,-0.0429984 0.1431,-0.00958563 0.281407,-0.0143784 0.415058,-0.0143784 0.782598,0 1.51261,0.109824 2.19018,0.329335 0.677567,0.219511 1.30255,0.548709 1.87522,0.987731 0.553502,0.438885 1.05456,0.925698 1.50303,1.46003 0.448471,0.534467 0.844631,1.107 1.18807,1.71775l-9.47636 5.12475 -1.11645 -2.00408 0 0z"/>
  <path id="12" class="fil0" d="M171.177 66.1122l5.84039 0c0.0380687,0.0382056 0.0762742,0.0572399 0.11448,0.0572399 0.0382056,0 0.0764112,0 0.11448,0 0.0382056,0 0.0764112,0 0.114617,0 0.0380687,0 0.0762742,0 0.11448,0 0.0382056,0.0191713 0.0762742,0.02862 0.11448,0.02862 0.0382056,0 0.0764112,0 0.11448,0 0.0382056,0 0.0764112,0 0.114617,0 0.0380687,0 0.0762742,0 0.11448,0 0.22896,0 0.443815,-0.0142415 0.644154,-0.0428615 0.20034,-0.02862 0.396024,-0.081204 0.586915,-0.157478 0.190891,-0.0572399 0.333991,-0.167064 0.429436,-0.329335 0.0954455,-0.162134 0.1431,-0.367404 0.1431,-0.615534 0,-0.267165 -0.0714814,-0.505711 -0.214718,-0.715636 -0.1431,-0.209925 -0.357818,-0.391368 -0.644154,-0.544053 -0.2862,-0.152685 -0.615534,-0.295785 -0.987731,-0.429436 -0.372196,-0.133514 -0.777669,-0.267165 -1.21669,-0.400816 -0.0572399,-0.0190343 -0.11448,-0.0334128 -0.171857,-0.0428615 -0.0572399,-0.00958563 -0.11448,-0.0238271 -0.17172,-0.0429984 -0.0762742,-0.0190343 -0.1431,-0.0334128 -0.20034,-0.0428615 -0.0573769,-0.00958563 -0.114617,-0.0239641 -0.171857,-0.0429984 -0.133514,-0.0382056 -0.262372,-0.0764112 -0.386438,-0.11448 -0.124065,-0.0382056 -0.243338,-0.0764112 -0.357955,-0.114617 -0.610742,-0.152685 -1.15945,-0.353025 -1.64613,-0.601156 -0.486676,-0.248131 -0.920905,-0.524882 -1.30269,-0.830253 -0.362611,-0.324405 -0.634569,-0.701394 -0.815874,-1.13083 -0.181305,-0.429436 -0.271958,-0.920905 -0.271958,-1.47441 0,-0.782598 0.133514,-1.42675 0.400816,-1.93246 0.267165,-0.505847 0.667982,-0.854217 1.20245,-1.04497 0.53433,-0.210062 1.11645,-0.367541 1.74637,-0.472435 0.629776,-0.105031 1.31693,-0.157478 2.06132,-0.157478l5.18186 -0.0572399 0 2.23304 -5.41095 0c-0.343576,0.0382056 -0.663189,0.0764112 -0.959111,0.114617 -0.295785,0.0380687 -0.567743,0.0953086 -0.815874,0.17172 -0.248131,0.0762742 -0.429436,0.190891 -0.543916,0.343576 -0.114617,0.152685 -0.171857,0.343576 -0.171857,0.572536 0,0.248131 0.0620327,0.472435 0.186098,0.672774 0.124065,0.200477 0.310164,0.367404 0.558295,0.501055 0.248131,0.133651 0.510503,0.252924 0.787254,0.357818 0.276751,0.105031 0.56788,0.205269 0.873251,0.300715 0.0954455,0.0190343 0.186098,0.0380687 0.271958,0.0572399 0.0858599,0.0190343 0.167064,0.0380687 0.243338,0.0572399 0.0382056,0.0190343 0.0764112,0.0334128 0.11448,0.0428615 0.0382056,0.00958563 0.0859968,0.0143784 0.143237,0.0143784 0.0382056,0.0190343 0.0762742,0.0334128 0.11448,0.0429984 0.0382056,0.00944869 0.0764112,0.0142415 0.11448,0.0142415 0.0572399,0.0191713 0.114617,0.0382056 0.171857,0.0572399 0.0572399,0.0191713 0.11448,0.0382056 0.17172,0.0572399 0.0382056,0 0.0668255,0.00479282 0.0858599,0.0143784 0.0191713,0.00958563 0.0477912,0.0142415 0.0859968,0.0142415 0.0190343,0.0191713 0.0428615,0.0334128 0.0714814,0.0429984 0.02862,0.00958563 0.052584,0.0143784 0.0716184,0.0143784 0.839838,0.2862 1.55547,0.582122 2.14718,0.887493 0.591707,0.305371 1.04976,0.620327 1.37417,0.944732 0.324542,0.324405 0.56788,0.71098 0.730151,1.15945 0.162134,0.448608 0.243338,0.949525 0.243338,1.50303 -0.0191713,0.629913 -0.119273,1.15959 -0.300578,1.58902 -0.181442,0.429436 -0.434229,0.76822 -0.758771,1.01635 -0.305371,0.248131 -0.634569,0.448471 -0.987731,0.601156 -0.353025,0.152685 -0.720429,0.257717 -1.10221,0.314956 -0.133514,0.0190343 -0.262372,0.02862 -0.386438,0.02862 -0.124065,0 -0.243338,0 -0.357955,0 -0.0572399,0 -0.11448,0 -0.17172,0 -0.0572399,0 -0.11448,0.00958563 -0.17172,0.02862 -0.0573769,0 -0.109824,0 -0.157478,0 -0.0477912,0 -0.100238,0 -0.157478,0 -0.0572399,0 -0.109824,0 -0.157478,0 -0.0477912,0 -0.0906527,0 -0.128858,0 -0.0572399,0 -0.109687,0 -0.157478,0 -0.0476543,0 -0.0906527,0 -0.128858,0 -0.0572399,-0.0190343 -0.109687,-0.02862 -0.157341,-0.02862 -0.0477912,0 -0.0907896,0 -0.128858,0 -0.0382056,0 -0.0764112,0 -0.114617,0 -0.0380687,0 -0.0762742,0 -0.11448,0l-5.61129 0 0 -2.49076 0 0z"/>
  <path id="123" class="fil0" d="M184.919 64.1082l0 -12.6255 2.69123 0 0 3.37825 5.21048 0 0 2.46214 -5.21048 0 0 6.9856c0,0.267165 0.0190343,0.505711 0.0572399,0.715636 0.0382056,0.210062 0.0954455,0.410402 0.17172,0.601293 0.0764112,0.190891 0.243338,0.329198 0.501055,0.415058 0.257717,0.0859968 0.615534,0.128858 1.07359,0.128858l3.17791 -0.0572399 0 2.49076 -3.37825 0c-0.0191713,0 -0.0382056,0 -0.0572399,0 -0.0191713,0 -0.0382056,0 -0.0573769,0 -0.0190343,0 -0.0332758,0 -0.0428615,0 -0.00958563,0 -0.0238271,0.00958563 -0.0429984,0.02862 -0.0190343,0 -0.0382056,0 -0.0572399,0 -0.0190343,0 -0.0382056,0 -0.0572399,0 -0.0190343,0 -0.0334128,0 -0.0429984,0 -0.00944869,0 -0.0238271,0 -0.0428615,0 -0.648947,0 -1.21203,-0.0954455 -1.68913,-0.286337 -0.477228,-0.190754 -0.868458,-0.486676 -1.17383,-0.887493 -0.305371,-0.400816 -0.53926,-0.830253 -0.701394,-1.28831 -0.162271,-0.458056 -0.262509,-0.935147 -0.300715,-1.43141 -0.0190343,-0.0382056 -0.02862,-0.081204 -0.02862,-0.128858 0,-0.0477912 0,-0.100238 0,-0.157478 0,-0.0382056 0,-0.0810671 0,-0.128858 0,-0.0476543 0,-0.100238 0,-0.157478l0 -0.0572399z"/>
  <path id="1234" class="fil0" d="M193.479 61.3884c0,-1.04976 0.181305,-1.99463 0.543916,-2.83433 0.362748,-0.839838 0.897078,-1.57465 1.60327,-2.20456 0.725358,-0.629776 1.49358,-1.10221 2.30466,-1.41703 0.811218,-0.314956 1.6653,-0.472435 2.56238,-0.472435 0.0382056,0 0.0810671,0 0.128858,0 0.0476543,0 0.0906527,0 0.128858,0 0.0380687,0.0190343 0.0810671,0.02862 0.128721,0.02862 0.0477912,0 0.100238,0 0.157478,0 0.0382056,0 0.081204,0 0.128858,0 0.0477912,0 0.100238,0 0.157478,0 0.0382056,0.0190343 0.0810671,0.02862 0.128858,0.02862 0.0476543,0 0.0906527,0 0.128858,0 0.763427,0.11448 1.49344,0.338784 2.19004,0.672774 0.696738,0.333991 1.36951,0.777806 2.01846,1.33131 0.629776,0.572536 1.107,1.28831 1.43141,2.14718 0.324542,0.858873 0.486676,1.86098 0.486676,3.00605 0,0.0764112 0,0.152685 0,0.229097 0,0.0762742 -0.00944869,0.1431 -0.02862,0.20034 0,0.0764112 -0.00465588,0.152685 -0.0142415,0.229097 -0.00958563,0.0762742 -0.0143784,0.152685 -0.0143784,0.22896 -0.0190343,0.152685 -0.0428615,0.305508 -0.0714814,0.458193 -0.02862,0.152685 -0.0620327,0.305371 -0.100238,0.458056 -0.171857,0.687016 -0.434229,1.34076 -0.787391,1.96108 -0.353025,0.620327 -0.806289,1.20724 -1.35979,1.76074 -0.534467,0.553502 -1.17383,0.963767 -1.91822,1.23107 -0.744393,0.267165 -1.57465,0.400816 -2.49076,0.400816 -1.29789,0 -2.41914,-0.176649 -3.36401,-0.529675 -0.944732,-0.353162 -1.71295,-0.892285 -2.30466,-1.61764 -0.59157,-0.725221 -1.03539,-1.52685 -1.33117,-2.40476 -0.295922,-0.878044 -0.443815,-1.82278 -0.443815,-2.83433l0 -0.0572399zm2.71985 0c0,0.152685 0,0.290992 0,0.415058 0,0.124065 0.00944869,0.252924 0.02862,0.386575 0.0190343,0.133514 0.0428615,0.262372 0.0714814,0.386438 0.0287569,0.124065 0.052584,0.252924 0.0716184,0.386438 0.0954455,0.419988 0.248131,0.830253 0.458056,1.23107 0.209925,0.400816 0.467642,0.782598 0.773013,1.14521 0.324542,0.362611 0.725221,0.629913 1.20245,0.801633 0.477091,0.17172 1.04018,0.257717 1.68913,0.257717 0.610742,0 1.18341,-0.0859968 1.71775,-0.257717 0.534467,-0.17172 1.02114,-0.429436 1.46017,-0.773013 0.438885,-0.343576 0.76822,-0.844494 0.987731,-1.50303 0.219374,-0.658533 0.329198,-1.46482 0.329198,-2.41914 0,-0.668119 -0.0954455,-1.27407 -0.286337,-1.81798 -0.190891,-0.543916 -0.477091,-1.02594 -0.858873,-1.44579 -0.381645,-0.400816 -0.85408,-0.706187 -1.41717,-0.916113 -0.56295,-0.209925 -1.20724,-0.314956 -1.93246,-0.314956 -0.687153,0 -1.27872,0.0906527 -1.77499,0.271958 -0.496262,0.181305 -0.906664,0.462849 -1.23107,0.844631 -0.324542,0.362611 -0.586915,0.753841 -0.787391,1.17369 -0.20034,0.419988 -0.338784,0.849424 -0.415058,1.28845 -0.0190343,0.0762742 -0.0382056,0.152685 -0.0572399,0.22896 -0.0191713,0.0764112 -0.02862,0.152685 -0.02862,0.229097 0,0.0762742 0,0.152685 0,0.22896 0,0.0764112 0,0.152685 0,0.229097l0 -0.0572399z"/>
  <path id="12345" class="fil0" d="M209.283 66.1122l5.84039 0c0.0380687,0.0382056 0.0762742,0.0572399 0.11448,0.0572399 0.0382056,0 0.0764112,0 0.11448,0 0.0382056,0 0.0764112,0 0.114617,0 0.0380687,0 0.0762742,0 0.11448,0 0.0382056,0.0191713 0.0762742,0.02862 0.11448,0.02862 0.0382056,0 0.0764112,0 0.11448,0 0.0382056,0 0.0764112,0 0.114617,0 0.0380687,0 0.0762742,0 0.11448,0 0.22896,0 0.443815,-0.0142415 0.644154,-0.0428615 0.20034,-0.02862 0.396024,-0.081204 0.586915,-0.157478 0.190891,-0.0572399 0.333991,-0.167064 0.429436,-0.329335 0.0954455,-0.162134 0.1431,-0.367404 0.1431,-0.615534 0,-0.267165 -0.0714814,-0.505711 -0.214718,-0.715636 -0.1431,-0.209925 -0.357818,-0.391368 -0.644154,-0.544053 -0.2862,-0.152685 -0.615534,-0.295785 -0.987731,-0.429436 -0.372196,-0.133514 -0.777669,-0.267165 -1.21669,-0.400816 -0.0572399,-0.0190343 -0.11448,-0.0334128 -0.171857,-0.0428615 -0.0572399,-0.00958563 -0.11448,-0.0238271 -0.17172,-0.0429984 -0.0762742,-0.0190343 -0.1431,-0.0334128 -0.20034,-0.0428615 -0.0573769,-0.00958563 -0.114617,-0.0239641 -0.171857,-0.0429984 -0.133514,-0.0382056 -0.262372,-0.0764112 -0.386438,-0.11448 -0.124065,-0.0382056 -0.243338,-0.0764112 -0.357955,-0.114617 -0.610742,-0.152685 -1.15945,-0.353025 -1.64613,-0.601156 -0.486676,-0.248131 -0.920905,-0.524882 -1.30269,-0.830253 -0.362611,-0.324405 -0.634569,-0.701394 -0.815874,-1.13083 -0.181305,-0.429436 -0.271958,-0.920905 -0.271958,-1.47441 0,-0.782598 0.133514,-1.42675 0.400816,-1.93246 0.267165,-0.505847 0.667982,-0.854217 1.20245,-1.04497 0.53433,-0.210062 1.11645,-0.367541 1.74637,-0.472435 0.629776,-0.105031 1.31693,-0.157478 2.06132,-0.157478l5.18186 -0.0572399 0 2.23304 -5.41095 0c-0.343576,0.0382056 -0.663189,0.0764112 -0.959111,0.114617 -0.295785,0.0380687 -0.567743,0.0953086 -0.815874,0.17172 -0.248131,0.0762742 -0.429436,0.190891 -0.543916,0.343576 -0.114617,0.152685 -0.171857,0.343576 -0.171857,0.572536 0,0.248131 0.0620327,0.472435 0.186098,0.672774 0.124065,0.200477 0.310164,0.367404 0.558295,0.501055 0.248131,0.133651 0.510503,0.252924 0.787254,0.357818 0.276751,0.105031 0.56788,0.205269 0.873251,0.300715 0.0954455,0.0190343 0.186098,0.0380687 0.271958,0.0572399 0.0858599,0.0190343 0.167064,0.0380687 0.243338,0.0572399 0.0382056,0.0190343 0.0764112,0.0334128 0.11448,0.0428615 0.0382056,0.00958563 0.0859968,0.0143784 0.143237,0.0143784 0.0382056,0.0190343 0.0762742,0.0334128 0.11448,0.0429984 0.0382056,0.00944869 0.0764112,0.0142415 0.11448,0.0142415 0.0572399,0.0191713 0.114617,0.0382056 0.171857,0.0572399 0.0572399,0.0191713 0.11448,0.0382056 0.17172,0.0572399 0.0382056,0 0.0668255,0.00479282 0.0858599,0.0143784 0.0191713,0.00958563 0.0477912,0.0142415 0.0859968,0.0142415 0.0190343,0.0191713 0.0428615,0.0334128 0.0714814,0.0429984 0.02862,0.00958563 0.052584,0.0143784 0.0716184,0.0143784 0.839838,0.2862 1.55547,0.582122 2.14718,0.887493 0.591707,0.305371 1.04976,0.620327 1.37417,0.944732 0.324542,0.324405 0.56788,0.71098 0.730151,1.15945 0.162134,0.448608 0.243338,0.949525 0.243338,1.50303 -0.0191713,0.629913 -0.119273,1.15959 -0.300578,1.58902 -0.181442,0.429436 -0.434229,0.76822 -0.758771,1.01635 -0.305371,0.248131 -0.634569,0.448471 -0.987731,0.601156 -0.353025,0.152685 -0.720429,0.257717 -1.10221,0.314956 -0.133514,0.0190343 -0.262372,0.02862 -0.386438,0.02862 -0.124065,0 -0.243338,0 -0.357955,0 -0.0572399,0 -0.11448,0 -0.17172,0 -0.0572399,0 -0.11448,0.00958563 -0.17172,0.02862 -0.0573769,0 -0.109824,0 -0.157478,0 -0.0477912,0 -0.100238,0 -0.157478,0 -0.0572399,0 -0.109824,0 -0.157478,0 -0.0477912,0 -0.0906527,0 -0.128858,0 -0.0572399,0 -0.109687,0 -0.157478,0 -0.0476543,0 -0.0906527,0 -0.128858,0 -0.0572399,-0.0190343 -0.109687,-0.02862 -0.157341,-0.02862 -0.0477912,0 -0.0907896,0 -0.128858,0 -0.0382056,0 -0.0764112,0 -0.114617,0 -0.0380687,0 -0.0762742,0 -0.11448,0l-5.61129 0 0 -2.49076 0 0z"/>
  <path class="fil0" d="M126.269 69.0832l0 -7.33191c0,-1.04976 0.167749,-1.9997 0.501192,-2.84885 0.333443,-0.848876 0.835319,-1.58916 1.5033,-2.21921 0.667845,-0.629776 1.38375,-1.10248 2.14746,-1.4173 0.763564,-0.314956 1.56547,-0.472572 2.40517,-0.472572 0.171446,0 0.343576,0.00985951 0.515433,0.0287569 0.171446,0.0190343 0.353025,0.0480651 0.543779,0.0859968 0.190754,0.0382056 0.382193,0.0858599 0.57281,0.142963 0.190754,0.0568291 0.384932,0.106264 0.572673,0.171857 0.575549,0.201161 1.117,0.496399 1.63202,0.85901 0.515433,0.362474 1.05551,0.764933 1.48906,1.3172 1.43689,1.82921 1.41224,4.72955 0.052721,6.55849 -0.386575,0.519815 -0.902282,0.8827 -1.38896,1.21683 -0.486539,0.333717 -0.987731,0.578561 -1.50316,0.730151 -0.13324,0.0388903 -0.271958,0.0720292 -0.414921,0.100375 -0.1431,0.028483 -0.282091,0.0524471 -0.415332,0.0713445 -0.133651,0.0190343 -0.267165,0.0335497 -0.400816,0.0429984 -0.133514,0.00944869 -0.267439,0.0165694 -0.40109,0.0145154l-3.83672 -0.0575138 0 -2.46227 2.49117 0c0.0191713,0.0188974 0.0382056,0.0338236 0.057103,0.0428615 0.0188974,0.00958563 0.0382056,0.0142415 0.0575138,0.0142415 0,0 0.00944869,0 0.0283461,0 0.0193082,0 0.0382056,0 0.0575138,0 0.0188974,0 0.0382056,0 0.057103,0 0.0193082,0 0.0383425,0 0.0572399,0 0,0 0.00972257,0 0.0287569,0 0.0191713,0 0.0382056,0 0.057103,0 0.572947,0 1.06935,-0.0524471 1.48906,-0.157204 0.419988,-0.104894 0.759182,-0.277983 1.03073,-0.501192 0.262509,-0.215403 0.496536,-0.439296 0.68729,-0.68729 0.190754,-0.248131 0.332758,-0.506532 0.429436,-0.773013 0.0554597,-0.153233 0.100101,-0.310164 0.128858,-0.472435 0.0814779,-0.468053 0.0662778,-0.772054 -0.0957194,-1.21847 -0.105442,-0.289897 -0.267439,-0.563087 -0.458193,-0.830253 -0.190754,-0.266891 -0.419988,-0.524882 -0.687153,-0.77315 -0.267165,-0.247857 -0.60143,-0.434229 -1.00211,-0.558295 -0.400816,-0.124202 -0.877907,-0.186372 -1.43155,-0.186372 -0.840112,0 -1.52726,0.134199 -2.0616,0.40109 -0.53433,0.267165 -0.898584,0.671268 -1.11673,1.20259 -0.220743,0.537754 -0.396297,1.12138 -0.501192,1.76088 -0.104757,0.639499 -0.157615,0.30852 -0.157615,1.03292l0 7.17224 -2.71999 0z"/>
  <ellipse class="fil1 str0" cx="133.79" cy="28.6898" rx="11.4201" ry="11.6855"/>
  <ellipse class="fil1 str1" cx="133.756" cy="28.6692" rx="10.1953" ry="10.4322"/>
  <g id="_84814176">
   <line id="_84814704" class="fil1 str0" x1="73.9389" y1="1.36938" x2="83.9573" y2= "1.36938" />
   <path id="_84814632" class="fil1 str0" d="M96.7402 14.1392c-4.92688,5.61376 -10.5426,10.4225 -16.7298,14.5643 9.26492,8.23666 19.7876,12.6081 31.5708,13.1149 -3.67445,-6.28283 -6.79115,-13.2632 -7.21976,-23.6037"/>
   <path id="_84814560" class="fil1 str0" d="M119.069 12.1373l-2.15855 2.00189 0 20.2933c0.578014,2.657 1.66872,4.56673 3.50793,5.38398"/>
   <line id="_84814488" class="fil1 str0" x1="119.542" y1="14.1355" x2="147.469" y2= "14.1355" />
   <polyline id="_84814416" class="fil1 str0" points="73.9389,1.36938 83.4509,1.36938 96.7402,14.1392 116.91,14.1392 119.069,12.1373 "/>
   <path id="_84814344" class="fil1 str0" d="M116.91 14.1392l0 20.2933c0.530496,2.70904 1.69994,4.5036 3.50793,5.38398"/>
   <path id="_84814272" class="fil1 str0" d="M96.7402 14.1392c-4.90223,5.62649 -10.5591,10.3893 -16.7298,14.5643 8.95942,7.90171 19.3289,12.6206 31.5708,13.1149 -4.47512,-7.35396 -6.95369,-15.2039 -7.21976,-23.6037l-7.98921 -3.65911 -0.30674 -0.140361 -12.2777 -7.66193 -7.89254 0"/>
   <polyline id="_84814200" class="fil1 str0" points="96.7402,14.1392 83.4509,1.36938 73.9389,1.36938 "/>
  </g>
 </g>
</svg>
