<?xml version="1.0" encoding="UTF-8"?>
<!DOCTYPE svg PUBLIC "-//W3C//DTD SVG 1.1//EN" "http://www.w3.org/Graphics/SVG/1.1/DTD/svg11.dtd">
<!-- Creator: CorelDRAW -->
<svg xmlns="http://www.w3.org/2000/svg" xml:space="preserve" width="134.128mm" height="133.457mm" style="shape-rendering:geometricPrecision; text-rendering:geometricPrecision; image-rendering:optimizeQuality; fill-rule:evenodd; clip-rule:evenodd"
viewBox="0 0 126.366 125.734"
 xmlns:xlink="http://www.w3.org/1999/xlink">
 <defs>
  <style type="text/css">
   <![CDATA[
    .str3 {stroke:#1F1A17;stroke-width:0.659494}
    .str2 {stroke:#1F1A17;stroke-width:0.942134}
    .str0 {stroke:#1F1A17;stroke-width:1.31899}
    .str1 {stroke:#1F1A17;stroke-width:1.88427}
    .str4 {stroke:#DA251D;stroke-width:1.88427}
    .fil1 {fill:none}
    .fil0 {fill:white}
   ]]>
  </style>
 </defs>
 <g id="Capa_x0020_1">
  <metadata id="CorelCorpID_0Corel-Layer"/>
  <rect class="fil0" width="126.366" height="125.734" rx="30.5142" ry="30.5142"/>
  <ellipse class="fil1 str0" cx="114.27" cy="59.3574" rx="1.96678" ry="1.9279"/>
  <ellipse class="fil1 str1" cx="96.8704" cy="85.5242" rx="20.2233" ry="20.2593"/>
  <ellipse class="fil1 str2" cx="96.8097" cy="85.4884" rx="18.0543" ry="18.0865"/>
  <ellipse class="fil1 str3" cx="96.8704" cy="85.5242" rx="2.16854" ry="1.96996"/>
  <path class="fil1 str2" d="M99.7967 83.5537l9.18995 -9.14869c0.79177,0.77321 1.38852,1.71685 1.93505,2.58851 1.39747,2.22947 2.17011,4.67393 2.3592,7.61716l-12.8445 -0.00103635"/>
  <polygon class="fil1 str1" points="63.3794,24.359 66.8599,35.0976 78.1898,35.0758 69.0105,41.6912 72.5328,52.4163 63.3794,45.7659 54.226,52.4163 57.7477,41.6912 48.569,35.0758 59.899,35.0976 "/>
  <path class="fil1 str2" d="M98.4209 82.5296l8.90618 -9.68929c-2.49477,-2.13572 -5.42321,-3.51473 -9.79584,-3.8017l-0.00263798 13.1707"/>
  <path class="fil1 str2" d="M93.6997 83.5537l-9.18995 -9.14869c-0.79177,0.77321 -1.38852,1.71685 -1.93505,2.58851 -1.39747,2.22947 -2.17011,4.67393 -2.3592,7.61716l12.8445 -0.00103635"/>
  <path class="fil1 str2" d="M95.0754 82.5296l-8.90609 -9.68929c2.49477,-2.13572 5.42321,-3.51473 9.79584,-3.8017l0.00263798 13.1707"/>
  <path class="fil1 str2" d="M99.7967 87.6663l9.18995 9.14869c0.79177,-0.77321 1.38852,-1.71685 1.93505,-2.58851 1.39747,-2.22947 2.17011,-4.67393 2.3592,-7.61716l-12.8445 0.00103635"/>
  <path class="fil1 str2" d="M98.4209 88.6904l8.90618 9.68929c-2.49477,2.13572 -5.42321,3.51473 -9.79584,3.8017l-0.00263798 -13.1706"/>
  <path class="fil1 str2" d="M93.6997 87.6663l-9.18995 9.14869c-0.79177,-0.77321 -1.38852,-1.71685 -1.93505,-2.58851 -1.39747,-2.22947 -2.17011,-4.67393 -2.3592,-7.61716l12.8445 0.00103635"/>
  <path class="fil1 str2" d="M95.0754 88.6904l-8.90609 9.68929c2.49477,2.13572 5.42321,3.51473 9.79584,3.8017l0.00263798 -13.1706"/>
  <ellipse class="fil1 str2" cx="96.8701" cy="85.5243" rx="3.64231" ry="3.30877"/>
  <g id="_126869816">
   <line id="_126870392" class="fil1 str4" x1="7.96754" y1="44.2446" x2="22.9472" y2= "44.2446" />
   <path id="_126870872" class="fil1 str4" d="M42.0605 62.9381c-7.36674,8.21767 -15.7634,15.2571 -25.0148,21.32 13.8532,12.0575 29.587,18.4567 47.2054,19.1986 -5.49415,-9.1974 -10.1542,-19.4158 -10.795,-34.5527"/>
   <path id="_126855440" class="fil1 str1" d="M75.4471 60.0075l-3.22766 2.9306 0 29.7066c0.864314,3.8896 2.49534,6.6851 5.24533,7.88142"/>
   <line id="_126858368" class="fil1 str1" x1="76.1536" y1="62.9327" x2="117.912" y2= "62.9327" />
   <polyline id="_126862328" class="fil1 str1" points="7.96754,44.2446 22.1899,44.2446 42.0605,62.9381 72.2194,62.9381 75.4471,60.0075 "/>
   <path id="_126867200" class="fil1 str1" d="M72.2194 62.9381l0 29.7066c0.793371,3.96563 2.54178,6.59277 5.24533,7.88142"/>
   <path id="_126855344" class="fil1 str1" d="M42.0605 62.9381c-7.3298,8.23642 -15.7881,15.2084 -25.0148,21.32 13.3963,11.5671 28.901,18.4749 47.2054,19.1986 -6.69132,-10.7652 -10.3973,-22.2566 -10.7951,-34.5527l-11.9458 -5.35641 -0.458631 -0.205574 -18.3577 -11.216 -11.8013 0"/>
   <polyline id="_117139328" class="fil1 str1" points="42.0605,62.9381 22.1899,44.2446 7.96754,44.2446 "/>
  </g>
 </g>
</svg>
