<?xml version="1.0" encoding="UTF-8"?>
<!DOCTYPE svg PUBLIC "-//W3C//DTD SVG 1.1//EN" "http://www.w3.org/Graphics/SVG/1.1/DTD/svg11.dtd">
<!-- Creator: CorelDRAW -->
<svg xmlns="http://www.w3.org/2000/svg" xml:space="preserve" width="203.759mm" height="48.4148mm" style="shape-rendering:geometricPrecision; text-rendering:geometricPrecision; image-rendering:optimizeQuality; fill-rule:evenodd; clip-rule:evenodd"
viewBox="0 0 209.787 49.8471"
 xmlns:xlink="http://www.w3.org/1999/xlink">
 <defs>
  <style type="text/css">
   <![CDATA[
    .str2 {stroke:#1F1A17;stroke-width:0.360354}
    .str0 {stroke:#1F1A17;stroke-width:2.05917}
    .str1 {stroke:#DA251D;stroke-width:2.05917}
    .fil1 {fill:none}
    .fil0 {fill:#1F1A17;fill-rule:nonzero}
   ]]>
  </style>
 </defs>
 <g id="Capa_x0020_1">
  <metadata id="CorelCorpID_0Corel-Layer"/>
  <path class="fil0" d="M20.6614 36.1212l0 7.1171c0,1.99719 -0.531059,3.5949 -1.59771,4.80229 -1.06212,1.20276 -2.45103,1.80651 -4.17126,1.80651 -0.780734,0 -1.51606,-0.149804 -2.20146,-0.444883 -0.685394,-0.299506 -1.28904,-0.730799 -1.80198,-1.2981 -0.531059,0.55824 -1.13017,0.98943 -1.79292,1.28904 -0.66717,0.304139 -1.34803,0.453944 -2.05155,0.453944 -1.78839,0 -3.2227,-0.594688 -4.30747,-1.78839 -1.08034,-1.1938 -1.62046,-2.80057 -1.62046,-4.82041l0 -7.1171 4.1622 0 0 7.77068c0,0.549283 0.168028,0.998594 0.503878,1.34814 0.33585,0.349441 0.75798,0.526529 1.26186,0.526529 0.517366,0 0.934965,-0.177088 1.26639,-0.526529 0.32679,-0.349544 0.490185,-0.798854 0.490185,-1.34814l0 -7.77068 4.18948 0 0 7.77068c0,0.549283 0.163395,0.998594 0.490185,1.34814 0.33132,0.349441 0.744389,0.526529 1.2528,0.526529 0.512836,0 0.934965,-0.177088 1.26629,-0.526529 0.331423,-0.349544 0.499348,-0.798854 0.499348,-1.34814l0 -7.77068 4.1622 0z"/>
  <path id="1" class="fil0" d="M22.713 32.4764c0,-0.680761 0.240511,-1.26176 0.726166,-1.74298 0.481125,-0.476491 1.06665,-0.717105 1.74751,-0.717105 0.680864,0 1.26639,0.240614 1.74751,0.717105 0.485655,0.481228 0.726269,1.06222 0.726269,1.74298 0,0.680864 -0.240614,1.26639 -0.726269,1.74751 -0.481125,0.485655 -1.06665,0.726269 -1.74751,0.726269 -0.680864,0 -1.26639,-0.240614 -1.74751,-0.726269 -0.485655,-0.481125 -0.726166,-1.06665 -0.726166,-1.74751zm0.31773 17.1301l0 -13.4853 4.30747 0 0 13.4853 -4.30747 0z"/>
  <polygon id="12" class="fil0" points="29.8392,49.6065 29.8392,30.5655 34.1467,30.5655 34.1467,49.6065 "/>
  <polygon id="123" class="fil0" points="36.6476,49.6065 36.6476,30.5655 40.9551,30.5655 40.9551,49.6065 "/>
  <path id="1234" class="fil0" d="M43.1383 32.4764c0,-0.680761 0.240511,-1.26176 0.726166,-1.74298 0.481125,-0.476491 1.06665,-0.717105 1.74751,-0.717105 0.680864,0 1.26639,0.240614 1.74751,0.717105 0.485655,0.481228 0.726269,1.06222 0.726269,1.74298 0,0.680864 -0.240614,1.26639 -0.726269,1.74751 -0.481125,0.485655 -1.06665,0.726269 -1.74751,0.726269 -0.680864,0 -1.26639,-0.240614 -1.74751,-0.726269 -0.485655,-0.481125 -0.726166,-1.06665 -0.726166,-1.74751zm0.31773 17.1301l0 -13.4853 4.30747 0 0 13.4853 -4.30747 0z"/>
  <path id="12345" class="fil0" d="M58.244 49.6065l0 -7.51205c0,-0.630826 -0.181619,-1.14376 -0.54465,-1.53861 -0.363134,-0.394948 -0.835199,-0.590158 -1.41166,-0.590158 -0.571934,0 -1.044,0.195209 -1.41166,0.590158 -0.367664,0.394845 -0.55371,0.907784 -0.55371,1.53861l0 7.51205 -4.21666 0 0 -6.83572c0,-2.11065 0.567301,-3.79 1.69748,-5.03827 1.13028,-1.24816 2.62359,-1.87456 4.48909,-1.87456 1.00765,0 1.95631,0.22239 2.83681,0.671804 0.880603,0.44931 1.62499,1.08477 2.22864,1.90638 0.390418,0.54918 0.671804,1.15736 0.848789,1.82463 0.177088,0.66264 0.267898,1.50237 0.267898,2.51002l0 6.83572 -4.23035 0z"/>
  <path id="123456" class="fil0" d="M78.4016 44.5955c-0.708045,1.67482 -1.70211,2.9685 -2.97756,3.88081 -1.27545,0.912314 -2.72788,1.37079 -4.34835,1.37079 -0.894194,0 -1.75657,-0.177088 -2.58724,-0.526529 -0.826035,-0.349544 -1.56136,-0.853319 -2.20135,-1.507 -0.662743,-0.676334 -1.16652,-1.43431 -1.507,-2.27404 -0.34038,-0.844259 -0.512836,-1.73835 -0.512836,-2.68701 0,-0.948659 0.172455,-1.84285 0.512836,-2.68711 0.340483,-0.839729 0.844259,-1.59771 1.507,-2.27404 0.639989,-0.64452 1.36626,-1.14376 2.18776,-1.48878 0.821505,-0.344911 1.68852,-0.517366 2.60083,-0.517366 1.36626,0 2.59177,0.363031 3.68107,1.08477 1.0894,0.721738 1.98813,1.77469 2.68711,3.15907l-6.52705 4.43915 -1.63405 -2.47378 3.53137 -2.45556c-0.231553,-0.154335 -0.467534,-0.267795 -0.717208,-0.34038 -0.249571,-0.0772188 -0.503775,-0.11346 -0.77157,-0.11346 -0.830668,0 -1.53871,0.31773 -2.12424,0.948659 -0.585524,0.635459 -0.876073,1.41156 -0.876073,2.33304 0,0.939495 0.286018,1.72929 0.86238,2.36475 0.576464,0.639989 1.28008,0.957719 2.11518,0.957719 0.780734,0 1.50247,-0.235981 2.17417,-0.703515 0.667273,-0.472064 1.23457,-1.15293 1.70664,-2.04712l3.21817 1.55694z"/>
  <path id="1234567" class="fil0" d="M79.9041 49.6065l0 -13.4853 3.8944 0 0 2.01984c0.42666,-0.698985 0.97584,-1.21192 1.64764,-1.53418 0.676334,-0.32226 1.53418,-0.485655 2.58271,-0.485655l0.503775 0 0 4.08055 -0.186046 0c-1.53418,0 -2.63718,0.34038 -3.31804,1.01671 -0.676334,0.680864 -1.01671,1.78386 -1.01671,3.31794l0 5.07008 -4.10773 0z"/>
  <path class="fil0" d="M97.1384 36.1317l2.36938 0 0 1.27998c0.0362414,-0.0181207 0.0680555,-0.0454047 0.0952365,-0.081749 0.027284,-0.0362414 0.0681585,-0.081646 0.122623,-0.136111 0.0362414,-0.054465 0.081646,-0.10893 0.136111,-0.163395 0.054465,-0.054465 0.10893,-0.10893 0.163395,-0.163395 0.145274,-0.145274 0.304139,-0.281488 0.476594,-0.408539 0.172558,-0.127051 0.376725,-0.245144 0.612808,-0.354074 0.21786,-0.10893 0.463004,-0.195106 0.735329,-0.258734 0.272325,-0.0635253 0.562771,-0.0952365 0.87144,-0.0952365l0.871543 -0.054465 0 2.36928 -0.653683 0c-0.508306,0.0908093 -0.944129,0.22692 -1.30716,0.408539 -0.363134,0.181516 -0.671804,0.408539 -0.926008,0.680864 -0.235981,0.272325 -0.43119,0.55824 -0.585524,0.857849 -0.154335,0.299609 -0.276855,0.603645 -0.367664,0.912314 -0.0725857,0.235981 -0.127051,0.463004 -0.163395,0.680864 -0.0363443,0.21786 -0.054465,0.42666 -0.054465,0.626399 -0.0181207,0.21786 -0.027181,0.408436 -0.027181,0.571831 0,0.163498 0,0.31773 0,0.463004l0 5.93699 -2.36938 0 0 -13.0722 0 0z"/>
  <path id="1" class="fil0" d="M107.46 43.2125l6.42718 -3.64936c-0.0363443,-0.0181207 -0.0725857,-0.0407715 -0.10893,-0.0680555 -0.0363443,-0.027181 -0.0726886,-0.0680555 -0.10893,-0.12252 -0.0363443,-0.0363443 -0.0772188,-0.081749 -0.122623,-0.136214 -0.0453017,-0.054465 -0.0952365,-0.10893 -0.149702,-0.163395 -0.054465,-0.0363443 -0.11346,-0.0771158 -0.177088,-0.12252 -0.0635253,-0.0454047 -0.12252,-0.0953395 -0.176985,-0.149804 -0.0725857,-0.0363443 -0.145274,-0.0771158 -0.21786,-0.12252 -0.0725857,-0.0454047 -0.154335,-0.0862791 -0.245144,-0.122623 -0.181516,-0.0907064 -0.394845,-0.154232 -0.639989,-0.190576 -0.245041,-0.0363443 -0.521999,-0.054465 -0.830565,-0.054465 -0.708148,0 -1.32991,0.127051 -1.86561,0.381255 -0.53559,0.254204 -0.9849,0.626399 -1.34803,1.11658 -0.363134,0.490185 -0.635459,1.00765 -0.816975,1.5523 -0.181619,0.544753 -0.272325,1.10752 -0.272325,1.68852 0,0.0181207 0,0.0318141 0,0.0408745 0,0.00906034 0,0.0135905 0,0.0135905 0,0 0,0 0,0 0,0 0,0 0,0 0,0.0181207 0,0.027284 0,0.027284 0,0 0,0 0,0 0,0.526529 0.0952365,1.0303 0.285915,1.51143 0.190679,0.481125 0.467534,0.939598 0.830668,1.37532 0.363031,0.43572 0.812445,0.76251 1.34803,0.98037 0.53559,0.217963 1.1484,0.326893 1.83832,0.326893 0.744389,0 1.36616,-0.0862791 1.8655,-0.258734 0.499245,-0.172558 0.87597,-0.43119 1.13017,-0.776203 0.254204,-0.363134 0.485655,-0.789794 0.694454,-1.27998 0.2088,-0.490185 0.394948,-1.044 0.558343,-1.66123 0,0 0,0 0,0 0,0 0,-0.00906034 0,-0.027284 0,0 0,0 0,0 0,0 0,0 0,0 0,0 0,0 0,0 0,0 0.00906034,-0.00906034 0.027181,-0.027181 0,0 0,-0.00453017 0,-0.0136935 0,-0.00906034 0,-0.0135905 0,-0.0135905l2.36938 0.136214c0,0.0362414 0,0.0680555 0,0.0953395 0,0.027181 0.00906034,0.0498319 0.027181,0.0680555 0,0.0362414 0,0.0635253 0,0.081646 0,0.0182236 0,0.0454047 0,0.081749 0,0.0181207 0,0.0408745 0,0.0680555 0,0.027284 0.00906034,0.0499348 0.027284,0.0680555 0,0.0363443 0,0.0636283 0,0.081749 0,0.0181207 0,0.0363443 0,0.054465 0,0.145274 -0.00906034,0.295079 -0.027284,0.44931 -0.0181207,0.154335 -0.0454047,0.313199 -0.081646,0.476594 -0.0182236,0.0726886 -0.0408745,0.154335 -0.0681585,0.245144 -0.027181,0.0908093 -0.0498319,0.172455 -0.0680555,0.245144 -0.0363443,0.0907064 -0.0680555,0.176985 -0.0953395,0.258734 -0.027181,0.081646 -0.0589952,0.167925 -0.0952365,0.258632 -0.217963,0.453944 -0.508409,0.898724 -0.871543,1.33455 -0.363134,0.43572 -0.807915,0.844156 -1.33444,1.22551 -0.508409,0.381255 -1.10299,0.66717 -1.78386,0.857849 -0.680761,0.190576 -1.43884,0.285915 -2.27394,0.285915 -0.962352,0 -1.85191,-0.149804 -2.66899,-0.44931 -0.816975,-0.299609 -1.5523,-0.758083 -2.20588,-1.37532 -0.671804,-0.635459 -1.17105,-1.34814 -1.49784,-2.13783 -0.326893,-0.789794 -0.490288,-1.66587 -0.490288,-2.62812 0,-1.01671 0.136214,-1.91544 0.408539,-2.69617 0.272325,-0.780631 0.680864,-1.45243 1.22551,-2.01531 0.54465,-0.562771 1.11658,-1.02577 1.7157,-1.38891 0.599218,-0.363134 1.22551,-0.626399 1.8792,-0.789794 0.0725857,-0.0181207 0.140641,-0.0317112 0.204269,-0.0407715 0.0635253,-0.0091633 0.131581,-0.0227538 0.204269,-0.0408745 0.0725857,0 0.140641,-0.00453017 0.204167,-0.0136935 0.0636283,-0.00906034 0.131684,-0.0226508 0.204269,-0.0407715 0.145274,-0.0182236 0.286018,-0.0318141 0.422129,-0.0408745 0.136214,-0.00906034 0.267795,-0.0135905 0.394948,-0.0135905 0.744389,0 1.43884,0.1044 2.08336,0.313199 0.64452,0.2088 1.2391,0.521896 1.78375,0.939495 0.526529,0.417599 1.00312,0.880603 1.42978,1.38891 0.42666,0.508409 0.803384,1.05306 1.13028,1.63405l-9.01442 4.87487 -1.06212 -1.90638 0 0z"/>
  <path class="fil0" d="M134.513 36.0819l2.36938 0 0 7.92502c0,0.508409 0.0725857,0.957719 0.21786,1.34803 0.145274,0.390418 0.363134,0.739859 0.65358,1.04853 0.308669,0.290549 0.65358,0.508409 1.03494,0.65358 0.381255,0.145274 0.816975,0.217963 1.30716,0.217963 0.381255,0 0.735329,-0.0636283 1.06212,-0.190679 0.32679,-0.127051 0.608278,-0.32679 0.844259,-0.599115 0.254204,-0.272325 0.463004,-0.558343 0.626399,-0.857849 0.163395,-0.299609 0.281385,-0.612808 0.354074,-0.939598 0.0181207,-0.0725857 0.0317112,-0.140744 0.0407715,-0.204269 0.0091633,-0.0635253 0.0227538,-0.131581 0.0408745,-0.204269 0,-0.0363443 0,-0.0725857 0,-0.10893 0,-0.0363443 0.00906034,-0.0725857 0.027284,-0.10893 0,-0.0363443 0,-0.0725857 0,-0.10893 0,-0.0363443 0,-0.0725857 0,-0.10893l0 -7.76162 2.36928 0 0 7.4893c0,0.0363443 0,0.0680555 0,0.0953395 0,0.027181 0,0.0499348 0,0.0680555 0,0.0181207 0,0.0363443 0,0.054465 0,0.0181207 0.0091633,0.0363443 0.027284,0.054465 0,0.0181207 0,0.0363443 0,0.054465 0,0.0181207 0,0.0363443 0,0.054465 0,0.0181207 0,0.0363443 0,0.054465 0,0.0181207 0,0.0363443 0,0.054465 0,0.76251 -0.12252,1.47066 -0.367664,2.12424 -0.245144,0.65358 -0.612808,1.2528 -1.10299,1.79745 -0.490185,0.54465 -1.06212,0.948659 -1.7157,1.21192 -0.65358,0.263265 -1.38891,0.394845 -2.20599,0.394845 -0.798854,0 -1.53418,-0.11346 -2.20588,-0.34038 -0.671804,-0.22692 -1.27092,-0.567404 -1.79745,-1.02124 -0.526529,-0.472064 -0.921375,-1.0894 -1.18464,-1.85191 -0.263265,-0.762613 -0.394948,-1.67946 -0.394948,-2.75064l0 -7.54376 0 0z"/>
  <path id="1" class="fil0" d="M150.826 43.1626l6.42718 -3.64936c-0.0363443,-0.0181207 -0.0725857,-0.0407715 -0.10893,-0.0680555 -0.0363443,-0.027181 -0.0726886,-0.0680555 -0.10893,-0.12252 -0.0363443,-0.0363443 -0.0772188,-0.081749 -0.122623,-0.136214 -0.0453017,-0.054465 -0.0952365,-0.10893 -0.149702,-0.163395 -0.054465,-0.0363443 -0.11346,-0.0771158 -0.177088,-0.12252 -0.0635253,-0.0454047 -0.12252,-0.0953395 -0.176985,-0.149804 -0.0725857,-0.0363443 -0.145274,-0.0771158 -0.21786,-0.12252 -0.0725857,-0.0454047 -0.154335,-0.0862791 -0.245144,-0.122623 -0.181516,-0.0907064 -0.394845,-0.154232 -0.639989,-0.190576 -0.245041,-0.0363443 -0.521999,-0.054465 -0.830565,-0.054465 -0.708148,0 -1.32991,0.127051 -1.86561,0.381255 -0.53559,0.254204 -0.9849,0.626399 -1.34803,1.11658 -0.363134,0.490185 -0.635459,1.00765 -0.816975,1.5523 -0.181619,0.544753 -0.272325,1.10752 -0.272325,1.68852 0,0.0181207 0,0.0318141 0,0.0408745 0,0.00906034 0,0.0135905 0,0.0135905 0,0 0,0 0,0 0,0 0,0 0,0 0,0.0181207 0,0.027284 0,0.027284 0,0 0,0 0,0 0,0.526529 0.0952365,1.0303 0.285915,1.51143 0.190679,0.481125 0.467534,0.939598 0.830668,1.37532 0.363031,0.43572 0.812445,0.76251 1.34803,0.98037 0.53559,0.217963 1.1484,0.326893 1.83832,0.326893 0.744389,0 1.36616,-0.0862791 1.8655,-0.258734 0.499245,-0.172558 0.87597,-0.43119 1.13017,-0.776203 0.254204,-0.363134 0.485655,-0.789794 0.694454,-1.27998 0.2088,-0.490185 0.394948,-1.044 0.558343,-1.66123 0,0 0,0 0,0 0,0 0,-0.00906034 0,-0.027284 0,0 0,0 0,0 0,0 0,0 0,0 0,0 0,0 0,0 0,0 0.00906034,-0.00906034 0.027181,-0.027181 0,0 0,-0.00453017 0,-0.0136935 0,-0.00906034 0,-0.0135905 0,-0.0135905l2.36938 0.136214c0,0.0362414 0,0.0680555 0,0.0953395 0,0.027181 0.00906034,0.0498319 0.027181,0.0680555 0,0.0362414 0,0.0635253 0,0.081646 0,0.0182236 0,0.0454047 0,0.081749 0,0.0181207 0,0.0408745 0,0.0680555 0,0.027284 0.00906034,0.0499348 0.027284,0.0680555 0,0.0363443 0,0.0636283 0,0.081749 0,0.0181207 0,0.0363443 0,0.054465 0,0.145274 -0.00906034,0.295079 -0.027284,0.44931 -0.0181207,0.154335 -0.0454047,0.313199 -0.081646,0.476594 -0.0182236,0.0726886 -0.0408745,0.154335 -0.0681585,0.245144 -0.027181,0.0908093 -0.0498319,0.172455 -0.0680555,0.245144 -0.0363443,0.0907064 -0.0680555,0.176985 -0.0953395,0.258734 -0.027181,0.081646 -0.0589952,0.167925 -0.0952365,0.258632 -0.217963,0.453944 -0.508409,0.898724 -0.871543,1.33455 -0.363134,0.43572 -0.807915,0.844156 -1.33444,1.22551 -0.508409,0.381255 -1.10299,0.66717 -1.78386,0.857849 -0.680761,0.190576 -1.43884,0.285915 -2.27394,0.285915 -0.962352,0 -1.85191,-0.149804 -2.66899,-0.44931 -0.816975,-0.299609 -1.5523,-0.758083 -2.20588,-1.37532 -0.671804,-0.635459 -1.17105,-1.34814 -1.49784,-2.13783 -0.326893,-0.789794 -0.490288,-1.66587 -0.490288,-2.62812 0,-1.01671 0.136214,-1.91544 0.408539,-2.69617 0.272325,-0.780631 0.680864,-1.45243 1.22551,-2.01531 0.54465,-0.562771 1.11658,-1.02577 1.7157,-1.38891 0.599218,-0.363134 1.22551,-0.626399 1.8792,-0.789794 0.0725857,-0.0181207 0.140641,-0.0317112 0.204269,-0.0407715 0.0635253,-0.0091633 0.131581,-0.0227538 0.204269,-0.0408745 0.0725857,0 0.140641,-0.00453017 0.204167,-0.0136935 0.0636283,-0.00906034 0.131684,-0.0226508 0.204269,-0.0407715 0.145274,-0.0182236 0.286018,-0.0318141 0.422129,-0.0408745 0.136214,-0.00906034 0.267795,-0.0135905 0.394948,-0.0135905 0.744389,0 1.43884,0.1044 2.08336,0.313199 0.64452,0.2088 1.2391,0.521896 1.78375,0.939495 0.526529,0.417599 1.00312,0.880603 1.42978,1.38891 0.42666,0.508409 0.803384,1.05306 1.13028,1.63405l-9.01442 4.87487 -1.06212 -1.90638 0 0z"/>
  <path id="12" class="fil0" d="M162.836 46.7847l5.55574 0c0.0363443,0.0363443 0.0725857,0.054465 0.10893,0.054465 0.0363443,0 0.0725857,0 0.10893,0 0.0363443,0 0.0725857,0 0.10893,0 0.0363443,0 0.0725857,0 0.10893,0 0.0363443,0.0182236 0.0726886,0.027284 0.10893,0.027284 0.0363443,0 0.0726886,0 0.10893,0 0.0363443,0 0.0726886,0 0.10893,0 0.0363443,0 0.0726886,0 0.10893,0 0.21786,0 0.422129,-0.0135905 0.612808,-0.0408745 0.190679,-0.027181 0.376725,-0.0771158 0.55824,-0.149804 0.181619,-0.054465 0.31773,-0.158865 0.408539,-0.313199 0.0908093,-0.154232 0.136214,-0.349441 0.136214,-0.585524 0,-0.254101 -0.0681585,-0.481125 -0.204269,-0.680761 -0.136214,-0.199739 -0.340483,-0.372195 -0.612808,-0.517469 -0.272325,-0.145274 -0.585524,-0.281385 -0.939495,-0.408539 -0.354074,-0.127051 -0.739859,-0.254204 -1.15746,-0.381255 -0.054465,-0.0181207 -0.10893,-0.0318141 -0.163395,-0.0408745 -0.054465,-0.00906034 -0.10893,-0.0226508 -0.163395,-0.0408745 -0.0726886,-0.0181207 -0.136214,-0.0317112 -0.190679,-0.0407715 -0.054465,-0.0091633 -0.10893,-0.0227538 -0.163395,-0.0408745 -0.127051,-0.0363443 -0.249674,-0.0726886 -0.367664,-0.10893 -0.11799,-0.0363443 -0.23145,-0.0726886 -0.34038,-0.10893 -0.580994,-0.145274 -1.10299,-0.335953 -1.566,-0.571934 -0.463004,-0.235981 -0.87597,-0.499245 -1.2391,-0.789794 -0.345014,-0.308669 -0.603748,-0.66717 -0.776203,-1.07571 -0.172455,-0.408539 -0.258734,-0.876073 -0.258734,-1.4026 0,-0.744389 0.127154,-1.35709 0.381255,-1.83822 0.254204,-0.481125 0.635459,-0.812548 1.14387,-0.994063 0.508409,-0.199739 1.06212,-0.349544 1.66123,-0.44931 0.599218,-0.0998696 1.2528,-0.149804 1.96084,-0.149804l4.92934 -0.054465 0 2.12424 -5.1472 0c-0.32679,0.0362414 -0.630929,0.0725857 -0.912314,0.10893 -0.281385,0.0363443 -0.54012,0.0908093 -0.776203,0.163395 -0.235981,0.0725857 -0.408436,0.181516 -0.517366,0.32679 -0.10893,0.145274 -0.163395,0.32679 -0.163395,0.54465 0,0.236084 0.0589952,0.449413 0.176985,0.639989 0.11799,0.190679 0.294976,0.349544 0.531059,0.476594 0.235981,0.127154 0.485655,0.240614 0.748919,0.340483 0.263265,0.0998696 0.54012,0.195106 0.830668,0.285915 0.0907064,0.0181207 0.176985,0.0363443 0.258632,0.054465 0.081749,0.0182236 0.158865,0.0363443 0.231553,0.054465 0.0363443,0.0182236 0.0725857,0.0318141 0.10893,0.0408745 0.0363443,0.00906034 0.081646,0.0135905 0.136111,0.0135905 0.0363443,0.0182236 0.0726886,0.0318141 0.109033,0.0408745 0.0362414,0.00906034 0.0725857,0.0135905 0.10893,0.0135905 0.054465,0.0182236 0.10893,0.0363443 0.163395,0.054465 0.054465,0.0182236 0.10893,0.0363443 0.163395,0.054465 0.0362414,0 0.0635253,0.00453017 0.081646,0.0136935 0.0182236,0.00906034 0.0454047,0.0135905 0.081749,0.0135905 0.0181207,0.0181207 0.0408745,0.0317112 0.0680555,0.0408745 0.027284,0.00906034 0.0499348,0.0135905 0.0680555,0.0135905 0.798854,0.272325 1.47972,0.55371 2.04259,0.844259 0.562771,0.290446 0.998594,0.590055 1.30716,0.898724 0.308669,0.308566 0.540223,0.676231 0.694557,1.10289 0.154232,0.42666 0.23145,0.903254 0.23145,1.42978 -0.0181207,0.599218 -0.11346,1.10299 -0.285915,1.51153 -0.172558,0.408539 -0.413069,0.730799 -0.721738,0.966779 -0.290549,0.236084 -0.603645,0.42666 -0.939598,0.571934 -0.33585,0.145274 -0.685394,0.245041 -1.04853,0.299506 -0.127051,0.0182236 -0.249571,0.027284 -0.367561,0.027284 -0.118093,0 -0.231553,0 -0.340483,0 -0.054465,0 -0.10893,0 -0.163395,0 -0.054465,0 -0.10893,0.00906034 -0.163395,0.027284 -0.054465,0 -0.1044,0 -0.149804,0 -0.0454047,0 -0.0953395,0 -0.149804,0 -0.054465,0 -0.1044,0 -0.149702,0 -0.0454047,0 -0.0862791,0 -0.122623,0 -0.054465,0 -0.1044,0 -0.149804,0 -0.0453017,0 -0.0861762,0 -0.12252,0 -0.054465,-0.0182236 -0.1044,-0.027284 -0.149804,-0.027284 -0.0454047,0 -0.0861762,0 -0.12252,0 -0.0363443,0 -0.0725857,0 -0.10893,0 -0.0363443,0 -0.0725857,0 -0.10893,0l-5.33788 0 0 -2.36938 0 0z"/>
  <path id="123" class="fil0" d="M175.908 44.8783l0 -12.0101 2.56006 0 0 3.21364 4.95652 0 0 2.3421 -4.95652 0 0 6.64504c0,0.254204 0.0181207,0.481125 0.054465,0.680864 0.0362414,0.199739 0.0907064,0.390315 0.163395,0.571934 0.0725857,0.181516 0.23145,0.313199 0.476594,0.394845 0.245041,0.081749 0.585524,0.12252 1.02124,0.12252l3.02296 -0.054465 0 2.36938 -3.21364 0c-0.0181207,0 -0.0362414,0 -0.054465,0 -0.0181207,0 -0.0362414,0 -0.054465,0 -0.0181207,0 -0.0317112,0 -0.0408745,0 -0.00906034,0 -0.0226508,0.00906034 -0.0407715,0.027284 -0.0182236,0 -0.0363443,0 -0.054465,0 -0.0182236,0 -0.0363443,0 -0.054465,0 -0.0182236,0 -0.0318141,0 -0.0408745,0 -0.00906034,0 -0.0227538,0 -0.0408745,0 -0.617339,0 -1.15293,-0.0908093 -1.60677,-0.272428 -0.453944,-0.181516 -0.826138,-0.462901 -1.11658,-0.844259 -0.290549,-0.381255 -0.512939,-0.789691 -0.667273,-1.22551 -0.154335,-0.43572 -0.249571,-0.889561 -0.285915,-1.36162 -0.0182236,-0.0363443 -0.027284,-0.0772188 -0.027284,-0.122623 0,-0.0453017 0,-0.0952365 0,-0.149702 0,-0.0363443 0,-0.0772188 0,-0.122623 0,-0.0454047 0,-0.0952365 0,-0.149804l0 -0.054465z"/>
  <path id="1234" class="fil0" d="M184.051 42.2912c0,-0.998594 0.172455,-1.89732 0.517469,-2.69617 0.344911,-0.798854 0.853319,-1.49784 1.52502,-2.09706 0.689924,-0.599115 1.42072,-1.04843 2.1924,-1.34803 0.77157,-0.299609 1.58412,-0.44931 2.43744,-0.44931 0.0362414,0 0.0771158,0 0.12252,0 0.0454047,0 0.0862791,0 0.12252,0 0.0363443,0.0181207 0.0772188,0.027181 0.122623,0.027181 0.0453017,0 0.0952365,0 0.149702,0 0.0363443,0 0.0772188,0 0.122623,0 0.0453017,0 0.0952365,0 0.149702,0 0.0363443,0.0181207 0.0772188,0.027284 0.122623,0.027284 0.0454047,0 0.0861762,0 0.12252,0 0.726269,0.10893 1.42072,0.32226 2.08336,0.639989 0.662743,0.31773 1.30273,0.739859 1.91997,1.26639 0.599218,0.54465 1.05306,1.22551 1.36173,2.04249 0.308669,0.816975 0.463004,1.77016 0.463004,2.85957 0,0.0725857 0,0.145274 0,0.21786 0,0.0725857 -0.00906034,0.136214 -0.027284,0.190679 0,0.0725857 -0.00453017,0.145171 -0.0135905,0.21786 -0.00906034,0.0725857 -0.0135905,0.145171 -0.0135905,0.21786 -0.0182236,0.145171 -0.0408745,0.290446 -0.0680555,0.43572 -0.027284,0.145274 -0.0590981,0.290446 -0.0953395,0.43572 -0.163395,0.65358 -0.413069,1.27545 -0.748919,1.8655 -0.335953,0.590055 -0.767143,1.1484 -1.29367,1.67493 -0.508306,0.526529 -1.11658,0.916845 -1.82463,1.17105 -0.708045,0.254204 -1.49784,0.381255 -2.36938,0.381255 -1.23457,0 -2.30122,-0.167925 -3.19995,-0.503775 -0.898724,-0.335953 -1.62952,-0.848789 -2.19229,-1.53871 -0.562874,-0.689924 -0.985003,-1.45254 -1.26639,-2.28763 -0.281385,-0.835199 -0.422129,-1.73392 -0.422129,-2.69617l0 -0.054465zm2.58724 0c0,0.145171 0,0.276855 0,0.394845 0,0.11799 0.00906034,0.240614 0.027181,0.367664 0.0181207,0.127051 0.0408745,0.249674 0.0680555,0.367664 0.027284,0.11799 0.0499348,0.240614 0.0681585,0.367664 0.0907064,0.399376 0.235981,0.789794 0.43572,1.17105 0.199739,0.381255 0.44478,0.744389 0.735329,1.0894 0.308669,0.344911 0.689924,0.599115 1.14376,0.76251 0.453944,0.163395 0.989533,0.245041 1.60687,0.245041 0.580994,0 1.12564,-0.081646 1.63395,-0.245041 0.508409,-0.163395 0.971413,-0.408539 1.38901,-0.735329 0.417496,-0.32679 0.730696,-0.803384 0.939495,-1.42978 0.2088,-0.626399 0.313199,-1.39344 0.313199,-2.30122 0,-0.635459 -0.0908093,-1.21192 -0.272325,-1.72939 -0.181516,-0.517469 -0.453944,-0.97584 -0.816975,-1.37532 -0.363134,-0.381255 -0.812548,-0.671701 -1.34814,-0.87144 -0.53559,-0.199739 -1.1483,-0.299609 -1.83822,-0.299609 -0.653683,0 -1.21645,0.0862791 -1.68852,0.258734 -0.472064,0.172455 -0.86238,0.44025 -1.17105,0.803384 -0.308669,0.345014 -0.558343,0.717208 -0.748919,1.11658 -0.190679,0.399479 -0.32226,0.807915 -0.394948,1.22551 -0.0181207,0.0726886 -0.0363443,0.145274 -0.054465,0.21786 -0.0181207,0.0726886 -0.027181,0.145274 -0.027181,0.217963 0,0.0725857 0,0.145171 0,0.21786 0,0.0725857 0,0.145171 0,0.21786l0 -0.054465z"/>
  <path id="12345" class="fil0" d="M199.084 46.7847l5.55574 0c0.0363443,0.0363443 0.0725857,0.054465 0.10893,0.054465 0.0363443,0 0.0725857,0 0.10893,0 0.0363443,0 0.0725857,0 0.10893,0 0.0363443,0 0.0725857,0 0.10893,0 0.0363443,0.0182236 0.0726886,0.027284 0.10893,0.027284 0.0363443,0 0.0726886,0 0.10893,0 0.0363443,0 0.0726886,0 0.10893,0 0.0363443,0 0.0726886,0 0.10893,0 0.21786,0 0.422129,-0.0135905 0.612808,-0.0408745 0.190679,-0.027181 0.376725,-0.0771158 0.55824,-0.149804 0.181619,-0.054465 0.31773,-0.158865 0.408539,-0.313199 0.0908093,-0.154232 0.136214,-0.349441 0.136214,-0.585524 0,-0.254101 -0.0681585,-0.481125 -0.204269,-0.680761 -0.136214,-0.199739 -0.340483,-0.372195 -0.612808,-0.517469 -0.272325,-0.145274 -0.585524,-0.281385 -0.939495,-0.408539 -0.354074,-0.127051 -0.739859,-0.254204 -1.15746,-0.381255 -0.054465,-0.0181207 -0.10893,-0.0318141 -0.163395,-0.0408745 -0.054465,-0.00906034 -0.10893,-0.0226508 -0.163395,-0.0408745 -0.0726886,-0.0181207 -0.136214,-0.0317112 -0.190679,-0.0407715 -0.054465,-0.0091633 -0.10893,-0.0227538 -0.163395,-0.0408745 -0.127051,-0.0363443 -0.249674,-0.0726886 -0.367664,-0.10893 -0.11799,-0.0363443 -0.23145,-0.0726886 -0.34038,-0.10893 -0.580994,-0.145274 -1.10299,-0.335953 -1.566,-0.571934 -0.463004,-0.235981 -0.87597,-0.499245 -1.2391,-0.789794 -0.345014,-0.308669 -0.603748,-0.66717 -0.776203,-1.07571 -0.172455,-0.408539 -0.258734,-0.876073 -0.258734,-1.4026 0,-0.744389 0.127154,-1.35709 0.381255,-1.83822 0.254204,-0.481125 0.635459,-0.812548 1.14387,-0.994063 0.508409,-0.199739 1.06212,-0.349544 1.66123,-0.44931 0.599218,-0.0998696 1.2528,-0.149804 1.96084,-0.149804l4.92934 -0.054465 0 2.12424 -5.1472 0c-0.32679,0.0362414 -0.630929,0.0725857 -0.912314,0.10893 -0.281385,0.0363443 -0.54012,0.0908093 -0.776203,0.163395 -0.235981,0.0725857 -0.408436,0.181516 -0.517366,0.32679 -0.10893,0.145274 -0.163395,0.32679 -0.163395,0.54465 0,0.236084 0.0589952,0.449413 0.176985,0.639989 0.11799,0.190679 0.294976,0.349544 0.531059,0.476594 0.235981,0.127154 0.485655,0.240614 0.748919,0.340483 0.263265,0.0998696 0.54012,0.195106 0.830668,0.285915 0.0907064,0.0181207 0.176985,0.0363443 0.258632,0.054465 0.081749,0.0182236 0.158865,0.0363443 0.231553,0.054465 0.0363443,0.0182236 0.0725857,0.0318141 0.10893,0.0408745 0.0363443,0.00906034 0.081646,0.0135905 0.136111,0.0135905 0.0363443,0.0182236 0.0726886,0.0318141 0.109033,0.0408745 0.0362414,0.00906034 0.0725857,0.0135905 0.10893,0.0135905 0.054465,0.0182236 0.10893,0.0363443 0.163395,0.054465 0.054465,0.0182236 0.10893,0.0363443 0.163395,0.054465 0.0362414,0 0.0635253,0.00453017 0.081646,0.0136935 0.0182236,0.00906034 0.0454047,0.0135905 0.081749,0.0135905 0.0181207,0.0181207 0.0408745,0.0317112 0.0680555,0.0408745 0.027284,0.00906034 0.0499348,0.0135905 0.0680555,0.0135905 0.798854,0.272325 1.47972,0.55371 2.04259,0.844259 0.562771,0.290446 0.998594,0.590055 1.30716,0.898724 0.308669,0.308566 0.540223,0.676231 0.694557,1.10289 0.154232,0.42666 0.23145,0.903254 0.23145,1.42978 -0.0181207,0.599218 -0.11346,1.10299 -0.285915,1.51153 -0.172558,0.408539 -0.413069,0.730799 -0.721738,0.966779 -0.290549,0.236084 -0.603645,0.42666 -0.939598,0.571934 -0.33585,0.145274 -0.685394,0.245041 -1.04853,0.299506 -0.127051,0.0182236 -0.249571,0.027284 -0.367561,0.027284 -0.118093,0 -0.231553,0 -0.340483,0 -0.054465,0 -0.10893,0 -0.163395,0 -0.054465,0 -0.10893,0.00906034 -0.163395,0.027284 -0.054465,0 -0.1044,0 -0.149804,0 -0.0454047,0 -0.0953395,0 -0.149804,0 -0.054465,0 -0.1044,0 -0.149702,0 -0.0454047,0 -0.0862791,0 -0.122623,0 -0.054465,0 -0.1044,0 -0.149804,0 -0.0453017,0 -0.0861762,0 -0.12252,0 -0.054465,-0.0182236 -0.1044,-0.027284 -0.149804,-0.027284 -0.0454047,0 -0.0861762,0 -0.12252,0 -0.0363443,0 -0.0725857,0 -0.10893,0 -0.0363443,0 -0.0725857,0 -0.10893,0l-5.33788 0 0 -2.36938 0 0z"/>
  <path class="fil0" d="M120.117 49.6108l0 -6.97461c0,-0.998594 0.159483,-1.90226 0.476697,-2.71007 0.317215,-0.807503 0.794633,-1.51174 1.42999,-2.11106 0.635459,-0.599115 1.31653,-1.04884 2.0429,-1.34834 0.726372,-0.299506 1.48919,-0.449413 2.28804,-0.449413 0.163086,0 0.32679,0.00936921 0.490288,0.0273869 0.163086,0.0180177 0.33585,0.0456106 0.517263,0.081646 0.181413,0.0363443 0.363546,0.081749 0.544959,0.136111 0.181516,0.0540532 0.36612,0.101002 0.54465,0.163395 0.547533,0.1914 1.06263,0.47227 1.55261,0.817181 0.490288,0.344911 1.00405,0.72771 1.4165,1.253 1.36688,1.7402 1.3434,4.49918 0.0501407,6.23897 -0.367664,0.494509 -0.858261,0.839626 -1.32127,1.15756 -0.462901,0.317524 -0.939701,0.550416 -1.42999,0.694557 -0.126742,0.0369621 -0.258632,0.0684673 -0.394743,0.0955454 -0.136111,0.0269751 -0.26831,0.0498319 -0.395051,0.0678496 -0.127051,0.0180177 -0.254101,0.0318141 -0.381255,0.0408745 -0.127051,0.00895738 -0.25441,0.0157526 -0.381564,0.0137964l-3.64977 -0.0546709 0 -2.34241 2.36969 0c0.0184296,0.0180177 0.0364473,0.032226 0.054465,0.0408745 0.0180177,0.00906034 0.0363443,0.0134876 0.0546709,0.0134876 0,0 0.00895738,0 0.0269751,0 0.0183266,0 0.0363443,0 0.0546709,0 0.0180177,0 0.0363443,0 0.054362,0 0.0184296,0 0.0364473,0 0.054465,0 0,0 0.00926626,0 0.027284,0 0.0183266,0 0.0363443,0 0.054362,0 0.544959,0 1.01723,-0.0498319 1.4165,-0.149599 0.399582,-0.0996637 0.722253,-0.264397 0.980576,-0.476697 0.249674,-0.20499 0.47227,-0.417908 0.653683,-0.653786 0.181516,-0.236084 0.316597,-0.481845 0.408642,-0.735432 0.0527147,-0.145686 0.0952365,-0.294976 0.12252,-0.449413 0.0775277,-0.445192 0.0631135,-0.734402 -0.0910152,-1.15911 -0.100384,-0.275723 -0.254513,-0.53559 -0.435926,-0.789794 -0.181413,-0.253792 -0.399582,-0.499245 -0.653683,-0.735432 -0.254204,-0.235775 -0.572037,-0.413069 -0.953292,-0.531162 -0.381152,-0.11799 -0.835096,-0.177191 -1.36173,-0.177191 -0.799163,0 -1.45285,0.127668 -1.96115,0.381461 -0.508306,0.254204 -0.854864,0.638651 -1.06232,1.14407 -0.210035,0.511497 -0.377034,1.06675 -0.4768,1.67513 -0.0996637,0.608381 -0.149907,0.293431 -0.149907,0.982532l0 6.82274 -2.58745 0z"/>
  <ellipse class="fil1 str0" cx="120.354" cy="19.6592" rx="7.6029" ry="7.61644"/>
  <g id="_90047920">
   <line id="_97445096" class="fil1 str1" x1="80.5173" y1="1.02907" x2="87.1869" y2= "1.02907" />
   <path id="_97381776" class="fil1 str1" d="M95.6972 9.35233c-3.28005,3.65894 -7.01867,6.7932 -11.1378,9.49276 6.16813,5.36856 13.1736,8.21783 21.0181,8.54812 -2.44619,-4.09507 -4.52111,-8.6448 -4.80641,-15.3845"/>
   <path id="_97381872" class="fil1 str0" d="M110.562 8.04754l-1.43709 1.30479 0 13.2269c0.384756,1.73186 1.11102,2.97663 2.33541,3.50923"/>
   <line id="_97382784" class="fil1 str0" x1="110.877" y1="9.34996" x2="129.47" y2= "9.34996" />
   <polyline id="_97382832" class="fil1 str0" points="80.5173,1.02907 86.8497,1.02907 95.6972,9.35233 109.125,9.35233 110.562,8.04754 "/>
   <path id="_90047848" class="fil1 str0" d="M109.125 9.35233l0 13.2269c0.35325,1.76574 1.13172,2.93545 2.33541,3.50923"/>
   <path id="_90047968" class="fil1 str0" d="M95.6972 9.35233c-3.26358,3.66728 -7.02969,6.77157 -11.1378,9.49276 5.96469,5.15019 12.8682,8.22596 21.0182,8.54812 -2.97931,-4.79313 -4.62942,-9.90975 -4.80651,-15.3845l-5.31883 -2.38493 -0.204269 -0.091633 -8.17376 -4.99389 -5.25448 0"/>
   <polyline id="_90046192" class="fil1 str0" points="95.6972,9.35233 86.8497,1.02907 80.5173,1.02907 "/>
  </g>
  <ellipse class="fil1 str2" cx="120.354" cy="19.6592" rx="6.17747" ry="6.18845"/>
 </g>
</svg>
