<?xml version="1.0" encoding="UTF-8"?>
<!DOCTYPE svg PUBLIC "-//W3C//DTD SVG 1.1//EN" "http://www.w3.org/Graphics/SVG/1.1/DTD/svg11.dtd">
<!-- Creator: CorelDRAW -->
<svg xmlns="http://www.w3.org/2000/svg" xml:space="preserve" width="205.82mm" height="22.3082mm" style="shape-rendering:geometricPrecision; text-rendering:geometricPrecision; image-rendering:optimizeQuality; fill-rule:evenodd; clip-rule:evenodd"
viewBox="0 0 204.497 22.1648"
 xmlns:xlink="http://www.w3.org/1999/xlink">
 <defs>
  <style type="text/css">
   <![CDATA[
    .str1 {stroke:#1F1A17;stroke-width:1.391}
    .str0 {stroke:#1F1A17;stroke-width:1.98714}
    .str2 {stroke:#DA251D;stroke-width:1.98714}
    .fil1 {fill:none}
    .fil0 {fill:#1F1A17;fill-rule:nonzero}
   ]]>
  </style>
 </defs>
 <g id="Capa_x0020_1">
  <metadata id="CorelCorpID_0Corel-Layer"/>
  <path class="fil0" d="M60.2441 8.16577l0 5.42858c0,1.52324 -0.405079,2.74196 -1.21872,3.6629 -0.810059,0.917365 -1.8695,1.37789 -3.18162,1.37789 -0.595448,0 -1.15632,-0.114261 -1.67914,-0.339305 -0.522718,-0.228522 -0.983239,-0.557394 -1.37441,-0.990194 -0.405079,0.425845 -0.862122,0.754817 -1.36755,0.983239 -0.508907,0.231999 -1.02825,0.34626 -1.56488,0.34626 -1.36407,0 -2.4581,-0.453566 -3.28554,-1.36407 -0.823969,-0.910509 -1.2359,-2.13608 -1.2359,-3.67671l0 -5.42858 3.17476 0 0 5.92705c0,0.418989 0.128071,0.761672 0.384214,1.02825 0.256242,0.266575 0.578159,0.401602 0.962473,0.401602 0.394647,0 0.713186,-0.135026 0.965951,-0.401602 0.249287,-0.266575 0.373881,-0.609258 0.373881,-1.02825l0 -5.92705 3.19553 0 0 5.92705c0,0.418989 0.124594,0.761672 0.373881,1.02825 0.252765,0.266575 0.567826,0.401602 0.955518,0.401602 0.391269,0 0.713186,-0.135026 0.965951,-0.401602 0.252765,-0.266575 0.380836,-0.609258 0.380836,-1.02825l0 -5.92705 3.17476 0z"/>
  <path id="1" class="fil0" d="M61.8089 5.38576c0,-0.51934 0.183513,-0.962473 0.553916,-1.3295 0.367025,-0.363548 0.813636,-0.546961 1.33298,-0.546961 0.519241,0 0.965851,0.183413 1.33288,0.546961 0.370404,0.367025 0.553916,0.810158 0.553916,1.3295 0,0.519241 -0.183513,0.965851 -0.553916,1.33288 -0.367025,0.370404 -0.813636,0.553916 -1.33288,0.553916 -0.51934,0 -0.965951,-0.183513 -1.33298,-0.553916 -0.370404,-0.367025 -0.553916,-0.813636 -0.553916,-1.33288zm0.242332 13.0659l0 -10.2859 3.28554 0 0 10.2859 -3.28554 0z"/>
  <polygon id="12" class="fil0" points="67.2443,18.4516 67.2443,3.92819 70.5299,3.92819 70.5299,18.4516 "/>
  <polygon id="123" class="fil0" points="72.4374,18.4516 72.4374,3.92819 75.723,3.92819 75.723,18.4516 "/>
  <path id="1234" class="fil0" d="M77.3882 5.38576c0,-0.51934 0.183513,-0.962473 0.553916,-1.3295 0.367025,-0.363548 0.813636,-0.546961 1.33298,-0.546961 0.519241,0 0.965851,0.183413 1.33288,0.546961 0.370404,0.367025 0.553916,0.810158 0.553916,1.3295 0,0.519241 -0.183513,0.965851 -0.553916,1.33288 -0.367025,0.370404 -0.813636,0.553916 -1.33288,0.553916 -0.51934,0 -0.965951,-0.183513 -1.33298,-0.553916 -0.370404,-0.367025 -0.553916,-0.813636 -0.553916,-1.33288zm0.242332 13.0659l0 -10.2859 3.28554 0 0 10.2859 -3.28554 0z"/>
  <path id="12345" class="fil0" d="M88.9101 18.4516l0 -5.72973c0,-0.481286 -0.138504,-0.872455 -0.415512,-1.17371 -0.276908,-0.301152 -0.636979,-0.449989 -1.07673,-0.449989 -0.436178,0 -0.796248,0.148837 -1.07663,0.449989 -0.280485,0.301251 -0.422367,0.69242 -0.422367,1.17371l0 5.72973 -3.21629 0 0 -5.21387c0,-1.60988 0.432701,-2.8909 1.29482,-3.84294 0.862023,-0.952041 2.00105,-1.42985 3.42395,-1.42985 0.768627,0 1.49215,0.169603 2.1638,0.512385 0.671655,0.342782 1.23948,0.827447 1.6999,1.45409 0.297773,0.41889 0.512385,0.882789 0.647411,1.3917 0.135026,0.505529 0.204278,1.14599 0.204278,1.91461l0 5.21387 -3.22662 0z"/>
  <path id="123456" class="fil0" d="M104.285 14.6295c-0.540106,1.27753 -1.2983,2.26425 -2.27121,2.96015 -0.972806,0.695798 -2.08064,1.04554 -3.31664,1.04554 -0.681988,0 -1.33983,-0.135026 -1.97333,-0.401602 -0.630123,-0.266575 -1.19099,-0.650889 -1.67914,-1.14946 -0.505529,-0.515863 -0.889744,-1.09402 -1.14946,-1.73448 -0.25962,-0.643934 -0.391169,-1.32602 -0.391169,-2.04954 0,-0.723618 0.131549,-1.40561 0.391169,-2.04954 0.25972,-0.640556 0.643934,-1.21872 1.14946,-1.73458 0.488142,-0.49152 1.04206,-0.872356 1.6687,-1.13555 0.626646,-0.263098 1.28787,-0.394647 1.98377,-0.394647 1.04206,0 1.97691,0.277008 2.80773,0.827447 0.830924,0.550439 1.51639,1.35364 2.04954,2.40961l-4.97839 3.38589 -1.24644 -1.88679 2.69357 -1.87298c-0.176558,-0.117738 -0.356593,-0.204278 -0.547061,-0.25972 -0.190368,-0.0588195 -0.384314,-0.0865401 -0.588493,-0.0865401 -0.633601,0 -1.17371,0.242332 -1.62032,0.723618 -0.446611,0.484664 -0.668177,1.07673 -0.668177,1.77949 0,0.716663 0.218089,1.31907 0.657844,1.80373 0.439656,0.488142 0.976284,0.730474 1.61326,0.730474 0.595547,0 1.14599,-0.179936 1.65837,-0.536529 0.508907,-0.36007 0.941707,-0.87941 1.30178,-1.5614l2.45462 1.18742z"/>
  <path id="1234567" class="fil0" d="M105.431 18.4516l0 -10.2859 2.97048 0 0 1.54063c0.325494,-0.533151 0.744384,-0.924419 1.25677,-1.17023 0.515863,-0.24581 1.17013,-0.370404 1.96995,-0.370404l0.384214 0 0 3.11246 -0.141882 0c-1.17023,0 -2.01149,0.25962 -2.53083,0.775483 -0.515863,0.519241 -0.775483,1.3606 -0.775483,2.53073l0 3.86718 -3.13323 0z"/>
  <path class="fil0" d="M118.575 8.17362l1.80721 0 0 0.976284c0.0276213,-0.0138106 0.0518645,-0.0345763 0.0726301,-0.062297 0.020865,-0.0277207 0.0519638,-0.062297 0.0934951,-0.103828 0.0277207,-0.0416307 0.062297,-0.083162 0.103928,-0.124693 0.0415313,-0.0415313 0.0830626,-0.0830626 0.124594,-0.124594 0.110783,-0.110783 0.231999,-0.214711 0.363548,-0.311584 0.131549,-0.0969726 0.287341,-0.18699 0.467376,-0.270053 0.166125,-0.0830626 0.353115,-0.148936 0.560871,-0.197323 0.207657,-0.0484863 0.429223,-0.0727295 0.6647,-0.0727295l0.6647 -0.0415313 0 1.80721 -0.498574 0c-0.387692,0.069252 -0.720042,0.17308 -0.997049,0.311584 -0.277008,0.138504 -0.512385,0.311584 -0.706231,0.51934 -0.180035,0.207657 -0.328972,0.425746 -0.446611,0.654267 -0.117738,0.228522 -0.211233,0.460521 -0.280485,0.695898 -0.055342,0.180035 -0.0968733,0.353115 -0.124594,0.51934 -0.0277207,0.166125 -0.0415313,0.325395 -0.0415313,0.477709 -0.01391,0.166225 -0.0207657,0.311584 -0.0207657,0.436277 0,0.124594 0,0.242332 0,0.353115l0 4.5284 -1.80721 0 0 -9.97079 0 0z"/>
  <path id="1" class="fil0" d="M126.448 13.5745l4.90228 -2.78349c-0.0277207,-0.01391 -0.055342,-0.0311982 -0.0830626,-0.0519638 -0.0277207,-0.0207657 -0.0554413,-0.0519638 -0.0830626,-0.0934951 -0.0277207,-0.0277207 -0.0589188,-0.062297 -0.0934951,-0.103828 -0.0346757,-0.0415313 -0.0727295,-0.083162 -0.114261,-0.124693 -0.0415313,-0.0276213 -0.0865401,-0.0588195 -0.135026,-0.0933958 -0.0484863,-0.0346757 -0.0934951,-0.0727295 -0.135026,-0.114261 -0.0554413,-0.0277207 -0.110783,-0.0589188 -0.166225,-0.0934951 -0.055342,-0.0346757 -0.117639,-0.0657745 -0.186891,-0.0934951 -0.138504,-0.069252 -0.301251,-0.117738 -0.488142,-0.14536 -0.18699,-0.0277207 -0.398224,-0.0416307 -0.633601,-0.0416307 -0.540106,0 -1.01434,0.0969726 -1.42289,0.290818 -0.408557,0.193945 -0.751339,0.477809 -1.02825,0.85169 -0.277008,0.373881 -0.484664,0.768627 -0.623168,1.18404 -0.138504,0.415512 -0.207756,0.844735 -0.207756,1.28787 0,0.01391 0,0.0242432 0,0.0311982 0,0.006955 0,0.0104325 0,0.0104325 0,0 0,0 0,0 0,0 0,0 0,0 0,0.0138106 0,0.0207657 0,0.0207657 0,0 0,0 0,0 0,0.401602 0.0727295,0.785816 0.218089,1.15284 0.145459,0.366926 0.356593,0.716663 0.633601,1.04901 0.277008,0.33235 0.619691,0.581637 1.02825,0.747762 0.408557,0.166225 0.875933,0.249287 1.40213,0.249287 0.567826,0 1.04206,-0.0657745 1.42289,-0.197323 0.380836,-0.131549 0.668177,-0.328872 0.862122,-0.59197 0.193846,-0.277008 0.370404,-0.602403 0.529673,-0.976383 0.15927,-0.373881 0.301152,-0.796248 0.425845,-1.2671 0,0 0,0 0,0 0,0 0,-0.006955 0,-0.0207657 0,0 0,0 0,0 0,0 0,0 0,0 0,0 0,0 0,0 0,0 0.00685565,-0.006955 0.0207657,-0.0207657 0,0 0,-0.0034775 0,-0.0104325 0,-0.00685565 0,-0.0103331 0,-0.0103331l1.80721 0.103828c0,0.0277207 0,0.0519638 0,0.0727295 0,0.0207657 0.006955,0.0380538 0.0207657,0.0519638 0,0.0276213 0,0.0484863 0,0.062297 0,0.0138106 0,0.0345763 0,0.062297 0,0.01391 0,0.0311982 0,0.0519638 0,0.0207657 0.006955,0.0380538 0.0207657,0.0518645 0,0.0277207 0,0.0484863 0,0.0623963 0,0.0138106 0,0.0276213 0,0.0415313 0,0.110783 -0.006955,0.225044 -0.0207657,0.342683 -0.0138106,0.117738 -0.0345763,0.238954 -0.062297,0.363548 -0.01391,0.0554413 -0.0311982,0.117738 -0.0519638,0.18699 -0.0207657,0.069252 -0.0380538,0.131549 -0.0519638,0.186891 -0.0276213,0.069252 -0.0518645,0.135026 -0.0726301,0.197423 -0.0207657,0.062297 -0.0450088,0.128071 -0.0727295,0.197323 -0.166225,0.34616 -0.387791,0.685465 -0.6647,1.01781 -0.277008,0.33235 -0.616313,0.643934 -1.01791,0.934752 -0.387692,0.290818 -0.841257,0.508907 -1.3606,0.654366 -0.519241,0.14536 -1.0975,0.218089 -1.73448,0.218089 -0.733952,0 -1.41256,-0.114261 -2.03573,-0.342782 -0.623168,-0.228422 -1.18404,-0.578159 -1.68251,-1.04901 -0.512385,-0.484664 -0.893221,-1.02815 -1.14251,-1.63055 -0.249287,-0.602403 -0.373881,-1.27058 -0.373881,-2.00463 0,-0.775483 0.103828,-1.46095 0.311584,-2.0564 0.207657,-0.595547 0.519241,-1.10793 0.934752,-1.53725 0.415412,-0.429223 0.85169,-0.782338 1.30863,-1.05935 0.457043,-0.277008 0.934752,-0.477809 1.43333,-0.602403 0.055342,-0.0138106 0.107306,-0.0242432 0.155792,-0.0311982 0.0484863,-0.00685565 0.100351,-0.0172882 0.155792,-0.0310988 0.055342,0 0.107306,-0.0034775 0.155792,-0.0104325 0.0484863,-0.00685565 0.100351,-0.0172882 0.155792,-0.0310988 0.110783,-0.01391 0.218089,-0.0242432 0.322017,-0.0311982 0.103828,-0.006955 0.204179,-0.0104325 0.301152,-0.0104325 0.567826,0 1.0975,0.0796845 1.58912,0.238954 0.491619,0.15927 0.945086,0.398124 1.3606,0.716663 0.401602,0.31844 0.76515,0.671655 1.09054,1.05935 0.325395,0.387791 0.612835,0.803203 0.862023,1.24634l-6.87572 3.71834 -0.810059 -1.45409 0 0z"/>
  <path class="fil0" d="M147.081 8.13566l1.80721 0 0 6.04479c0,0.387791 0.0554413,0.730474 0.166225,1.02825 0.110783,0.297773 0.276908,0.564349 0.498475,0.799726 0.235477,0.221567 0.498574,0.387791 0.789393,0.498574 0.290818,0.110783 0.623168,0.166125 0.997049,0.166125 0.290818,0 0.560871,-0.0484863 0.810158,-0.14536 0.249287,-0.0969726 0.463899,-0.249287 0.643934,-0.457043 0.193945,-0.207657 0.353115,-0.425845 0.477809,-0.654267 0.124594,-0.228522 0.214612,-0.467376 0.270053,-0.716663 0.0138106,-0.0554413 0.0242432,-0.107405 0.0310988,-0.155792 0.006955,-0.0484863 0.0173875,-0.10045 0.0311982,-0.155792 0,-0.0277207 0,-0.0554413 0,-0.083162 0,-0.0276213 0.006955,-0.055342 0.0207657,-0.0830626 0,-0.0277207 0,-0.055342 0,-0.0830626 0,-0.0277207 0,-0.0554413 0,-0.0830626l0 -5.9202 1.80721 0 0 5.71244c0,0.0277207 0,0.0519638 0,0.0727295 0,0.0207657 0,0.0380538 0,0.0518645 0,0.01391 0,0.0277207 0,0.0415313 0,0.01391 0.006955,0.0277207 0.0207657,0.0416307 0,0.0138106 0,0.0276213 0,0.0415313 0,0.0138106 0,0.0276213 0,0.0415313 0,0.0138106 0,0.0277207 0,0.0415313 0,0.0138106 0,0.0277207 0,0.0415313 0,0.581637 -0.0934951,1.12174 -0.280386,1.62022 -0.18699,0.498574 -0.467376,0.955617 -0.841357,1.37103 -0.373881,0.415412 -0.810059,0.723618 -1.30863,0.924419 -0.498574,0.200801 -1.05945,0.301152 -1.68261,0.301152 -0.609258,0 -1.17013,-0.0865401 -1.68251,-0.25962 -0.512385,-0.17318 -0.969428,-0.4328 -1.37103,-0.77896 -0.401602,-0.36007 -0.702753,-0.830924 -0.903554,-1.41256 -0.200801,-0.581637 -0.301251,-1.28101 -0.301251,-2.09803l0 -5.75397 0 0z"/>
  <path id="1" class="fil0" d="M159.524 13.5365l4.90228 -2.78349c-0.0277207,-0.01391 -0.055342,-0.0311982 -0.0830626,-0.0519638 -0.0277207,-0.0207657 -0.0554413,-0.0519638 -0.0830626,-0.0934951 -0.0277207,-0.0277207 -0.0589188,-0.062297 -0.0934951,-0.103828 -0.0346757,-0.0415313 -0.0727295,-0.083162 -0.114261,-0.124693 -0.0415313,-0.0276213 -0.0865401,-0.0588195 -0.135026,-0.0933958 -0.0484863,-0.0346757 -0.0934951,-0.0727295 -0.135026,-0.114261 -0.0554413,-0.0277207 -0.110783,-0.0589188 -0.166225,-0.0934951 -0.055342,-0.0346757 -0.117639,-0.0657745 -0.186891,-0.0934951 -0.138504,-0.069252 -0.301251,-0.117738 -0.488142,-0.14536 -0.18699,-0.0277207 -0.398224,-0.0416307 -0.633601,-0.0416307 -0.540106,0 -1.01434,0.0969726 -1.42289,0.290818 -0.408557,0.193945 -0.751339,0.477809 -1.02825,0.85169 -0.277008,0.373881 -0.484664,0.768627 -0.623168,1.18404 -0.138504,0.415512 -0.207756,0.844735 -0.207756,1.28787 0,0.01391 0,0.0242432 0,0.0311982 0,0.006955 0,0.0104325 0,0.0104325 0,0 0,0 0,0 0,0 0,0 0,0 0,0.0138106 0,0.0207657 0,0.0207657 0,0 0,0 0,0 0,0.401602 0.0727295,0.785816 0.218089,1.15284 0.145459,0.366926 0.356593,0.716663 0.633601,1.04901 0.277008,0.33235 0.619691,0.581637 1.02825,0.747762 0.408557,0.166225 0.875933,0.249287 1.40213,0.249287 0.567826,0 1.04206,-0.0657745 1.42289,-0.197323 0.380836,-0.131549 0.668177,-0.328872 0.862122,-0.59197 0.193846,-0.277008 0.370404,-0.602403 0.529673,-0.976383 0.15927,-0.373881 0.301152,-0.796248 0.425845,-1.2671 0,0 0,0 0,0 0,0 0,-0.006955 0,-0.0207657 0,0 0,0 0,0 0,0 0,0 0,0 0,0 0,0 0,0 0,0 0.00685565,-0.006955 0.0207657,-0.0207657 0,0 0,-0.0034775 0,-0.0104325 0,-0.00685565 0,-0.0103331 0,-0.0103331l1.80721 0.103828c0,0.0277207 0,0.0519638 0,0.0727295 0,0.0207657 0.006955,0.0380538 0.0207657,0.0519638 0,0.0276213 0,0.0484863 0,0.062297 0,0.0138106 0,0.0345763 0,0.062297 0,0.01391 0,0.0311982 0,0.0519638 0,0.0207657 0.006955,0.0380538 0.0207657,0.0518645 0,0.0277207 0,0.0484863 0,0.0623963 0,0.0138106 0,0.0276213 0,0.0415313 0,0.110783 -0.006955,0.225044 -0.0207657,0.342683 -0.0138106,0.117738 -0.0345763,0.238954 -0.062297,0.363548 -0.01391,0.0554413 -0.0311982,0.117738 -0.0519638,0.18699 -0.0207657,0.069252 -0.0380538,0.131549 -0.0519638,0.186891 -0.0276213,0.069252 -0.0518645,0.135026 -0.0726301,0.197423 -0.0207657,0.062297 -0.0450088,0.128071 -0.0727295,0.197323 -0.166225,0.34616 -0.387791,0.685465 -0.6647,1.01781 -0.277008,0.33235 -0.616313,0.643934 -1.01791,0.934752 -0.387692,0.290818 -0.841257,0.508907 -1.3606,0.654366 -0.519241,0.14536 -1.0975,0.218089 -1.73448,0.218089 -0.733952,0 -1.41256,-0.114261 -2.03573,-0.342782 -0.623168,-0.228422 -1.18404,-0.578159 -1.68251,-1.04901 -0.512385,-0.484664 -0.893221,-1.02815 -1.14251,-1.63055 -0.249287,-0.602403 -0.373881,-1.27058 -0.373881,-2.00463 0,-0.775483 0.103828,-1.46095 0.311584,-2.0564 0.207657,-0.595547 0.519241,-1.10793 0.934752,-1.53725 0.415412,-0.429223 0.85169,-0.782338 1.30863,-1.05935 0.457043,-0.277008 0.934752,-0.477809 1.43333,-0.602403 0.055342,-0.0138106 0.107306,-0.0242432 0.155792,-0.0311982 0.0484863,-0.00685565 0.100351,-0.0172882 0.155792,-0.0310988 0.055342,0 0.107306,-0.0034775 0.155792,-0.0104325 0.0484863,-0.00685565 0.100351,-0.0172882 0.155792,-0.0310988 0.110783,-0.01391 0.218089,-0.0242432 0.322017,-0.0311982 0.103828,-0.006955 0.204179,-0.0104325 0.301152,-0.0104325 0.567826,0 1.0975,0.0796845 1.58912,0.238954 0.491619,0.15927 0.945086,0.398124 1.3606,0.716663 0.401602,0.31844 0.76515,0.671655 1.09054,1.05935 0.325395,0.387791 0.612835,0.803203 0.862023,1.24634l-6.87572 3.71834 -0.810059 -1.45409 0 0z"/>
  <path id="12" class="fil0" d="M168.685 16.2992l4.23758 0c0.0276213,0.0277207 0.055342,0.0415313 0.0830626,0.0415313 0.0277207,0 0.0554413,0 0.0830626,0 0.0277207,0 0.0554413,0 0.083162,0 0.0276213,0 0.055342,0 0.0830626,0 0.0277207,0.01391 0.055342,0.0207657 0.0830626,0.0207657 0.0277207,0 0.0554413,0 0.0830626,0 0.0277207,0 0.0554413,0 0.083162,0 0.0276213,0 0.055342,0 0.0830626,0 0.166125,0 0.322017,-0.0103331 0.467376,-0.0310988 0.14536,-0.0207657 0.287341,-0.0589188 0.425845,-0.114261 0.138504,-0.0415313 0.242332,-0.121216 0.311584,-0.238954 0.069252,-0.117639 0.103828,-0.266575 0.103828,-0.446611 0,-0.193846 -0.0518645,-0.366926 -0.155792,-0.519241 -0.103828,-0.152315 -0.25962,-0.283963 -0.467376,-0.394746 -0.207657,-0.110783 -0.446611,-0.214612 -0.716663,-0.311584 -0.270053,-0.0968733 -0.564249,-0.193846 -0.882789,-0.290818 -0.0415313,-0.0138106 -0.0830626,-0.0242432 -0.124693,-0.0310988 -0.0415313,-0.006955 -0.0830626,-0.0172882 -0.124594,-0.0311982 -0.055342,-0.0138106 -0.103828,-0.0242432 -0.14536,-0.0310988 -0.0416307,-0.006955 -0.083162,-0.0173875 -0.124693,-0.0311982 -0.0968733,-0.0277207 -0.190368,-0.0554413 -0.280386,-0.0830626 -0.0900176,-0.0277207 -0.176558,-0.0554413 -0.25972,-0.083162 -0.443133,-0.110783 -0.841257,-0.256143 -1.19437,-0.436178 -0.353115,-0.180035 -0.668177,-0.380836 -0.945185,-0.602403 -0.263098,-0.235377 -0.460421,-0.508907 -0.59197,-0.820492 -0.131549,-0.311584 -0.197323,-0.668177 -0.197323,-1.06978 0,-0.567826 0.0968733,-1.0352 0.290818,-1.40213 0.193846,-0.367025 0.484664,-0.61979 0.872455,-0.758195 0.387692,-0.152414 0.810059,-0.266675 1.2671,-0.342782 0.456944,-0.076207 0.955518,-0.114261 1.49562,-0.114261l3.75978 -0.0415313 0 1.62022 -3.926 0c-0.249287,0.0277207 -0.481187,0.0554413 -0.695898,0.083162 -0.214612,0.0276213 -0.411935,0.0691526 -0.59197,0.124594 -0.180035,0.055342 -0.311584,0.138504 -0.394647,0.249287 -0.083162,0.110783 -0.124693,0.249287 -0.124693,0.415412 0,0.180035 0.0450088,0.342782 0.135026,0.488142 0.0900176,0.145459 0.225044,0.266575 0.405079,0.363548 0.180035,0.0969726 0.370404,0.183513 0.571204,0.25962 0.200801,0.076207 0.412034,0.148936 0.633601,0.218188 0.069252,0.0138106 0.135026,0.0276213 0.197323,0.0415313 0.062297,0.0138106 0.121216,0.0276213 0.176558,0.0415313 0.0277207,0.0138106 0.0554413,0.0242432 0.0830626,0.0310988 0.0277207,0.006955 0.0623963,0.0104325 0.103928,0.0104325 0.0277207,0.0138106 0.055342,0.0242432 0.0830626,0.0311982 0.0277207,0.00685565 0.0554413,0.0103331 0.0830626,0.0103331 0.0415313,0.01391 0.083162,0.0277207 0.124693,0.0415313 0.0415313,0.01391 0.0830626,0.0277207 0.124594,0.0415313 0.0277207,0 0.0484863,0.0034775 0.062297,0.0104325 0.01391,0.006955 0.0346757,0.0103331 0.0623963,0.0103331 0.0138106,0.01391 0.0310988,0.0242432 0.0518645,0.0311982 0.0207657,0.006955 0.0381532,0.0104325 0.0519638,0.0104325 0.609358,0.207657 1.1286,0.422367 1.55792,0.643934 0.429322,0.221567 0.761672,0.450088 0.997049,0.685465 0.235477,0.235377 0.412034,0.515863 0.529773,0.841257 0.117639,0.325494 0.176558,0.688943 0.176558,1.09054 -0.01391,0.457043 -0.0865401,0.841357 -0.218089,1.15294 -0.131648,0.311584 -0.315062,0.557394 -0.550538,0.737429 -0.221567,0.180035 -0.460421,0.325395 -0.716663,0.436178 -0.256143,0.110783 -0.522718,0.18699 -0.799726,0.228522 -0.0968733,0.0138106 -0.190368,0.0207657 -0.280386,0.0207657 -0.0900176,0 -0.176558,0 -0.25972,0 -0.0415313,0 -0.0830626,0 -0.124594,0 -0.0415313,0 -0.0830626,0.006955 -0.124594,0.0207657 -0.0416307,0 -0.0796845,0 -0.114261,0 -0.0346757,0 -0.0727295,0 -0.114261,0 -0.0415313,0 -0.0796845,0 -0.114261,0 -0.0346757,0 -0.0657745,0 -0.0934951,0 -0.0415313,0 -0.0795851,0 -0.114261,0 -0.0345763,0 -0.0657745,0 -0.0934951,0 -0.0415313,-0.0138106 -0.0795851,-0.0207657 -0.114161,-0.0207657 -0.0346757,0 -0.0658738,0 -0.0934951,0 -0.0277207,0 -0.0554413,0 -0.083162,0 -0.0276213,0 -0.055342,0 -0.0830626,0l-4.07136 0 0 -1.80721 0 0z"/>
  <path id="123" class="fil0" d="M178.655 14.8452l0 -9.16063 1.95267 0 0 2.45114 3.78054 0 0 1.78644 -3.78054 0 0 5.06851c0,0.193846 0.0138106,0.366926 0.0415313,0.519241 0.0277207,0.152414 0.069252,0.297773 0.124594,0.436277 0.0554413,0.138504 0.176558,0.238855 0.363548,0.301152 0.18699,0.0623963 0.446611,0.0934951 0.77896,0.0934951l2.30578 -0.0415313 0 1.80721 -2.45114 0c-0.01391,0 -0.0277207,0 -0.0415313,0 -0.01391,0 -0.0277207,0 -0.0416307,0 -0.0138106,0 -0.0241438,0 -0.0310988,0 -0.006955,0 -0.0172882,0.006955 -0.0311982,0.0207657 -0.0138106,0 -0.0277207,0 -0.0415313,0 -0.0138106,0 -0.0277207,0 -0.0415313,0 -0.0138106,0 -0.0242432,0 -0.0311982,0 -0.00685565,0 -0.0172882,0 -0.0310988,0 -0.470854,0 -0.87941,-0.069252 -1.22557,-0.207756 -0.34626,-0.138405 -0.630123,-0.353115 -0.85169,-0.643934 -0.221567,-0.290818 -0.391269,-0.602403 -0.508907,-0.934752 -0.117738,-0.33235 -0.190468,-0.67851 -0.218188,-1.03858 -0.0138106,-0.0277207 -0.0207657,-0.0589188 -0.0207657,-0.0934951 0,-0.0346757 0,-0.0727295 0,-0.114261 0,-0.0277207 0,-0.0588195 0,-0.0934951 0,-0.0345763 0,-0.0727295 0,-0.114261l0 -0.0415313z"/>
  <path id="1234" class="fil0" d="M184.866 12.8718c0,-0.761672 0.131549,-1.44724 0.394647,-2.0565 0.263197,-0.609358 0.650889,-1.14251 1.16327,-1.59955 0.526295,-0.456944 1.08369,-0.799726 1.67218,-1.02815 0.588592,-0.228522 1.20828,-0.342782 1.85917,-0.342782 0.0277207,0 0.0588195,0 0.0934951,0 0.0345763,0 0.0657745,0 0.0934951,0 0.0276213,0.0138106 0.0588195,0.0207657 0.0933958,0.0207657 0.0346757,0 0.0727295,0 0.114261,0 0.0277207,0 0.0589188,0 0.0934951,0 0.0346757,0 0.0727295,0 0.114261,0 0.0277207,0.0138106 0.0588195,0.0207657 0.0934951,0.0207657 0.0345763,0 0.0657745,0 0.0934951,0 0.553916,0.0830626 1.08359,0.24581 1.58902,0.488142 0.505529,0.242332 0.993671,0.564349 1.46452,0.965951 0.456944,0.415412 0.803203,0.934752 1.03858,1.55792 0.235477,0.623168 0.353115,1.35026 0.353115,2.18109 0,0.0554413 0,0.110783 0,0.166225 0,0.055342 -0.00685565,0.103828 -0.0207657,0.14536 0,0.0554413 -0.00337814,0.110783 -0.0103331,0.166225 -0.006955,0.055342 -0.0104325,0.110783 -0.0104325,0.166125 -0.0138106,0.110783 -0.0310988,0.221666 -0.0518645,0.332449 -0.0207657,0.110783 -0.0450088,0.221567 -0.0727295,0.33235 -0.124693,0.498475 -0.315062,0.972806 -0.571304,1.42289 -0.256143,0.450088 -0.585015,0.875933 -0.986617,1.27753 -0.387791,0.401602 -0.85169,0.699276 -1.3918,0.893221 -0.540106,0.193846 -1.14251,0.290818 -1.80721,0.290818 -0.941707,0 -1.75524,-0.128171 -2.44081,-0.384314 -0.685465,-0.256242 -1.24286,-0.647411 -1.67218,-1.17371 -0.429223,-0.526196 -0.75124,-1.10783 -0.965851,-1.74481 -0.214711,-0.637078 -0.322017,-1.32254 -0.322017,-2.0565l0 -0.0415313zm1.97343 0c0,0.110783 0,0.211134 0,0.301152 0,0.0900176 0.00685565,0.183513 0.0207657,0.280485 0.0138106,0.0968733 0.0310988,0.190368 0.0518645,0.280386 0.020865,0.0900176 0.0381532,0.183513 0.0519638,0.280386 0.069252,0.304728 0.180035,0.602403 0.33235,0.893221 0.152315,0.290818 0.339305,0.567826 0.560871,0.830924 0.235477,0.263098 0.526196,0.457043 0.872455,0.581637 0.34616,0.124594 0.754717,0.18699 1.22557,0.18699 0.443133,0 0.858645,-0.0623963 1.24634,-0.18699 0.387791,-0.124594 0.740907,-0.311584 1.05945,-0.560871 0.31844,-0.249287 0.557394,-0.612736 0.716663,-1.09054 0.15917,-0.477809 0.238855,-1.06282 0.238855,-1.75524 0,-0.484764 -0.069252,-0.924419 -0.207756,-1.31907 -0.138504,-0.394647 -0.34616,-0.744384 -0.623168,-1.04901 -0.276908,-0.290818 -0.619691,-0.512385 -1.02825,-0.6647 -0.408457,-0.152315 -0.875933,-0.228522 -1.40213,-0.228522 -0.498574,0 -0.927797,0.0657745 -1.28787,0.197323 -0.36007,0.131549 -0.657844,0.335827 -0.893221,0.612835 -0.235477,0.263098 -0.425845,0.546961 -0.571304,0.85159 -0.14536,0.304728 -0.24581,0.616313 -0.301152,0.934852 -0.0138106,0.055342 -0.0277207,0.110783 -0.0415313,0.166125 -0.01391,0.0554413 -0.0207657,0.110783 -0.0207657,0.166225 0,0.055342 0,0.110783 0,0.166125 0,0.0554413 0,0.110783 0,0.166225l0 -0.0415313z"/>
  <path id="12345" class="fil0" d="M196.333 16.2992l4.23758 0c0.0276213,0.0277207 0.055342,0.0415313 0.0830626,0.0415313 0.0277207,0 0.0554413,0 0.0830626,0 0.0277207,0 0.0554413,0 0.083162,0 0.0276213,0 0.055342,0 0.0830626,0 0.0277207,0.01391 0.055342,0.0207657 0.0830626,0.0207657 0.0277207,0 0.0554413,0 0.0830626,0 0.0277207,0 0.0554413,0 0.083162,0 0.0276213,0 0.055342,0 0.0830626,0 0.166125,0 0.322017,-0.0103331 0.467376,-0.0310988 0.14536,-0.0207657 0.287341,-0.0589188 0.425845,-0.114261 0.138504,-0.0415313 0.242332,-0.121216 0.311584,-0.238954 0.069252,-0.117639 0.103828,-0.266575 0.103828,-0.446611 0,-0.193846 -0.0518645,-0.366926 -0.155792,-0.519241 -0.103828,-0.152315 -0.25962,-0.283963 -0.467376,-0.394746 -0.207657,-0.110783 -0.446611,-0.214612 -0.716663,-0.311584 -0.270053,-0.0968733 -0.564249,-0.193846 -0.882789,-0.290818 -0.0415313,-0.0138106 -0.0830626,-0.0242432 -0.124693,-0.0310988 -0.0415313,-0.006955 -0.0830626,-0.0172882 -0.124594,-0.0311982 -0.055342,-0.0138106 -0.103828,-0.0242432 -0.14536,-0.0310988 -0.0416307,-0.006955 -0.083162,-0.0173875 -0.124693,-0.0311982 -0.0968733,-0.0277207 -0.190368,-0.0554413 -0.280386,-0.0830626 -0.0900176,-0.0277207 -0.176558,-0.0554413 -0.25972,-0.083162 -0.443133,-0.110783 -0.841257,-0.256143 -1.19437,-0.436178 -0.353115,-0.180035 -0.668177,-0.380836 -0.945185,-0.602403 -0.263098,-0.235377 -0.460421,-0.508907 -0.59197,-0.820492 -0.131549,-0.311584 -0.197323,-0.668177 -0.197323,-1.06978 0,-0.567826 0.0968733,-1.0352 0.290818,-1.40213 0.193846,-0.367025 0.484664,-0.61979 0.872455,-0.758195 0.387692,-0.152414 0.810059,-0.266675 1.2671,-0.342782 0.456944,-0.076207 0.955518,-0.114261 1.49562,-0.114261l3.75978 -0.0415313 0 1.62022 -3.926 0c-0.249287,0.0277207 -0.481187,0.0554413 -0.695898,0.083162 -0.214612,0.0276213 -0.411935,0.0691526 -0.59197,0.124594 -0.180035,0.055342 -0.311584,0.138504 -0.394647,0.249287 -0.083162,0.110783 -0.124693,0.249287 -0.124693,0.415412 0,0.180035 0.0450088,0.342782 0.135026,0.488142 0.0900176,0.145459 0.225044,0.266575 0.405079,0.363548 0.180035,0.0969726 0.370404,0.183513 0.571204,0.25962 0.200801,0.076207 0.412034,0.148936 0.633601,0.218188 0.069252,0.0138106 0.135026,0.0276213 0.197323,0.0415313 0.062297,0.0138106 0.121216,0.0276213 0.176558,0.0415313 0.0277207,0.0138106 0.0554413,0.0242432 0.0830626,0.0310988 0.0277207,0.006955 0.0623963,0.0104325 0.103928,0.0104325 0.0277207,0.0138106 0.055342,0.0242432 0.0830626,0.0311982 0.0277207,0.00685565 0.0554413,0.0103331 0.0830626,0.0103331 0.0415313,0.01391 0.083162,0.0277207 0.124693,0.0415313 0.0415313,0.01391 0.0830626,0.0277207 0.124594,0.0415313 0.0277207,0 0.0484863,0.0034775 0.062297,0.0104325 0.01391,0.006955 0.0346757,0.0103331 0.0623963,0.0103331 0.0138106,0.01391 0.0310988,0.0242432 0.0518645,0.0311982 0.0207657,0.006955 0.0381532,0.0104325 0.0519638,0.0104325 0.609358,0.207657 1.1286,0.422367 1.55792,0.643934 0.429322,0.221567 0.761672,0.450088 0.997049,0.685465 0.235477,0.235377 0.412034,0.515863 0.529773,0.841257 0.117639,0.325494 0.176558,0.688943 0.176558,1.09054 -0.01391,0.457043 -0.0865401,0.841357 -0.218089,1.15294 -0.131648,0.311584 -0.315062,0.557394 -0.550538,0.737429 -0.221567,0.180035 -0.460421,0.325395 -0.716663,0.436178 -0.256143,0.110783 -0.522718,0.18699 -0.799726,0.228522 -0.0968733,0.0138106 -0.190368,0.0207657 -0.280386,0.0207657 -0.0900176,0 -0.176558,0 -0.25972,0 -0.0415313,0 -0.0830626,0 -0.124594,0 -0.0415313,0 -0.0830626,0.006955 -0.124594,0.0207657 -0.0416307,0 -0.0796845,0 -0.114261,0 -0.0346757,0 -0.0727295,0 -0.114261,0 -0.0415313,0 -0.0796845,0 -0.114261,0 -0.0346757,0 -0.0657745,0 -0.0934951,0 -0.0415313,0 -0.0795851,0 -0.114261,0 -0.0345763,0 -0.0657745,0 -0.0934951,0 -0.0415313,-0.0138106 -0.0795851,-0.0207657 -0.114161,-0.0207657 -0.0346757,0 -0.0658738,0 -0.0934951,0 -0.0277207,0 -0.0554413,0 -0.083162,0 -0.0276213,0 -0.055342,0 -0.0830626,0l-4.07136 0 0 -1.80721 0 0z"/>
  <path class="fil0" d="M136.101 18.4549l0 -5.31978c0,-0.761672 0.121713,-1.45091 0.363647,-2.06703 0.241935,-0.615915 0.606079,-1.15304 1.09074,-1.61018 0.484565,-0.456944 1.004,-0.799925 1.55812,-1.02835 0.554016,-0.228522 1.13585,-0.342882 1.74511,-0.342882 0.124395,0 0.249287,0.00715372 0.37398,0.020865 0.124395,0.0138106 0.256143,0.0348744 0.394547,0.0623963 0.138405,0.0277207 0.277306,0.062297 0.415611,0.103729 0.138405,0.0412332 0.279293,0.0771012 0.415512,0.124693 0.417598,0.145956 0.810457,0.36017 1.18414,0.623268 0.37398,0.262998 0.765845,0.555009 1.08041,0.955717 1.04255,1.32721 1.02467,3.4316 0.0382525,4.75861 -0.280485,0.37716 -0.654664,0.640456 -1.00778,0.882888 -0.353016,0.242133 -0.716663,0.419784 -1.09064,0.529773 -0.0966745,0.0282174 -0.197323,0.0522619 -0.301052,0.0728288 -0.103828,0.0206663 -0.204676,0.0380538 -0.30135,0.0517651 -0.0969726,0.0138106 -0.193846,0.0243425 -0.290818,0.0311982 -0.0968733,0.00685565 -0.194045,0.0120222 -0.291017,0.0105319l-2.78379 -0.04173 0 -1.78654 1.80751 0c0.01391,0.0137113 0.0277207,0.0245412 0.0414319,0.0310988 0.0137113,0.006955 0.0277207,0.0103331 0.04173,0.0103331 0,0 0.00685565,0 0.0205669,0 0.0140094,0 0.0277207,0 0.04173,0 0.0137113,0 0.0277207,0 0.0414319,0 0.0140094,0 0.02782,0 0.0415313,0 0,0 0.00705436,0 0.020865,0 0.01391,0 0.0277207,0 0.0414319,0 0.41571,0 0.77588,-0.0380538 1.08041,-0.114062 0.304728,-0.0761076 0.550836,-0.201695 0.747862,-0.363647 0.190468,-0.156289 0.360269,-0.318738 0.498674,-0.498674 0.138405,-0.180035 0.241438,-0.367522 0.311584,-0.560871 0.0402397,-0.111181 0.0726301,-0.225044 0.0934951,-0.342782 0.0591175,-0.339603 0.0480889,-0.560176 -0.0694507,-0.88408 -0.076505,-0.210339 -0.194045,-0.408557 -0.332449,-0.602403 -0.138405,-0.193647 -0.304728,-0.380836 -0.498574,-0.560971 -0.193846,-0.179837 -0.436377,-0.315062 -0.727096,-0.405079 -0.290818,-0.090117 -0.636979,-0.135225 -1.03868,-0.135225 -0.609556,0 -1.10813,0.09737 -1.49582,0.291017 -0.387692,0.193846 -0.651982,0.487049 -0.810258,0.872555 -0.160164,0.390176 -0.28754,0.813636 -0.363647,1.27763 -0.0760082,0.463998 -0.11436,0.223852 -0.11436,0.749451l0 5.20393 -1.97353 0z"/>
  <g id="_112444704">
   <ellipse id="_112445400" class="fil1 str0" cx="30.3845" cy="15.1992" rx="5.79893" ry="5.80926"/>
   <ellipse id="_112445328" class="fil1 str1" cx="30.3671" cy="15.189" rx="5.17698" ry="5.1862"/>
   <g>
    <line id="_112445256" class="fil1 str2" x1="0" y1="0.989598" x2="5.08709" y2= "0.989598" />
    <path id="_112445184" class="fil1 str2" d="M11.5781 7.33793c-2.50171,2.79074 -5.35327,5.18138 -8.49514,7.24036 4.70466,4.09481 10.0479,6.26795 16.0312,6.51992 -1.86583,-3.12349 -3.44849,-6.59364 -3.66608,-11.7342"/>
    <path id="_112445112" class="fil1 str0" d="M22.9163 6.34266l-1.09621 0.995261 0 10.0884c0.293501,1.32095 0.847417,2.27031 1.78137,2.67658"/>
    <line id="_112445040" class="fil1 str0" x1="23.1562" y1="7.33604" x2="37.3374" y2= "7.33604" />
    <polyline id="_112444968" class="fil1 str0" points="0,0.989598 4.82995,0.989598 11.5781,7.33793 21.8201,7.33793 22.9162,6.34266 "/>
    <path id="_112444896" class="fil1 str0" d="M21.8201 7.33793l0 10.0884c0.269457,1.34679 0.863215,2.23891 1.78137,2.67658"/>
    <path id="_112444824" class="fil1 str0" d="M11.5781 7.33793c-2.4892,2.7971 -5.36171,5.16479 -8.49514,7.24036 4.54947,3.92819 9.8149,6.27411 16.0312,6.51992 -2.2724,-3.65595 -3.53096,-7.5584 -3.66608,-11.7342l-4.05675 -1.81903 -0.155792 -0.0698481 -6.23437 -3.80906 -4.00777 0"/>
    <polyline id="_112444752" class="fil1 str0" points="11.5781,7.33793 4.82995,0.989598 0,0.989598 "/>
   </g>
  </g>
 </g>
</svg>
