<?xml version="1.0" encoding="UTF-8"?>
<!DOCTYPE svg PUBLIC "-//W3C//DTD SVG 1.1//EN" "http://www.w3.org/Graphics/SVG/1.1/DTD/svg11.dtd">
<!-- Creator: CorelDRAW -->
<svg xmlns="http://www.w3.org/2000/svg" xml:space="preserve" width="205.82mm" height="22.3123mm" style="shape-rendering:geometricPrecision; text-rendering:geometricPrecision; image-rendering:optimizeQuality; fill-rule:evenodd; clip-rule:evenodd"
viewBox="0 0 212.089 22.992"
 xmlns:xlink="http://www.w3.org/1999/xlink">
 <defs>
  <style type="text/css">
   <![CDATA[
    .str1 {stroke:white;stroke-width:0.515231}
    .str0 {stroke:white;stroke-width:2.06092}
    .fil1 {fill:none}
    .fil0 {fill:white;fill-rule:nonzero}
   ]]>
  </style>
 </defs>
 <g id="Capa_x0020_1">
  <metadata id="CorelCorpID_0Corel-Layer"/>
  <path class="fil0" d="M62.4809 8.47308l0 5.63014c0,1.5798 -0.420119,2.84377 -1.26397,3.7989 -0.840136,0.951426 -1.93892,1.42905 -3.29975,1.42905 -0.617556,0 -1.19925,-0.118503 -1.74148,-0.351903 -0.542126,-0.237006 -1.01975,-0.578089 -1.42544,-1.02696 -0.420119,0.441656 -0.894132,0.782842 -1.41833,1.01975 -0.527803,0.240613 -1.06643,0.359116 -1.62298,0.359116 -1.41472,0 -2.54936,-0.470406 -3.40753,-1.41472 -0.854562,-0.944316 -1.28179,-2.21539 -1.28179,-3.81323l0 -5.63014 3.29264 0 0 6.14712c0,0.434546 0.132827,0.789952 0.39848,1.06643 0.265756,0.276473 0.599626,0.416513 0.998209,0.416513 0.4093,0 0.739666,-0.14004 1.00182,-0.416513 0.258543,-0.276473 0.387763,-0.63188 0.387763,-1.06643l0 -6.14712 3.31417 0 0 6.14712c0,0.434546 0.12922,0.789952 0.387763,1.06643 0.26215,0.276473 0.588909,0.416513 0.990996,0.416513 0.405796,0 0.739666,-0.14004 1.00182,-0.416513 0.26215,-0.276473 0.394976,-0.63188 0.394976,-1.06643l0 -6.14712 3.29264 0z"/>
  <path id="1" class="fil0" d="M64.1038 5.58985c0,-0.538623 0.190326,-0.998209 0.574483,-1.37886 0.380653,-0.377046 0.843846,-0.56727 1.38247,-0.56727 0.53852,0 1.00171,0.190223 1.38237,0.56727 0.384156,0.380653 0.574483,0.840239 0.574483,1.37886 0,0.53852 -0.190326,1.00171 -0.574483,1.38237 -0.380653,0.384156 -0.843846,0.574483 -1.38237,0.574483 -0.538623,0 -1.00182,-0.190326 -1.38247,-0.574483 -0.384156,-0.380653 -0.574483,-0.843846 -0.574483,-1.38237zm0.25133 13.551l0 -10.6678 3.40753 0 0 10.6678 -3.40753 0z"/>
  <polygon id="12" class="fil0" points="69.7411,19.1408 69.7411,4.07816 73.1486,4.07816 73.1486,19.1408 "/>
  <polygon id="123" class="fil0" points="75.127,19.1408 75.127,4.07816 78.5345,4.07816 78.5345,19.1408 "/>
  <path id="1234" class="fil0" d="M80.2616 5.58985c0,-0.538623 0.190326,-0.998209 0.574483,-1.37886 0.380653,-0.377046 0.843846,-0.56727 1.38247,-0.56727 0.53852,0 1.00171,0.190223 1.38237,0.56727 0.384156,0.380653 0.574483,0.840239 0.574483,1.37886 0,0.53852 -0.190326,1.00171 -0.574483,1.38237 -0.380653,0.384156 -0.843846,0.574483 -1.38237,0.574483 -0.538623,0 -1.00182,-0.190326 -1.38247,-0.574483 -0.384156,-0.380653 -0.574483,-0.843846 -0.574483,-1.38237zm0.25133 13.551l0 -10.6678 3.40753 0 0 10.6678 -3.40753 0z"/>
  <path id="12345" class="fil0" d="M92.2112 19.1408l0 -5.94247c0,-0.499156 -0.143646,-0.904849 -0.430939,-1.21729 -0.28719,-0.312333 -0.660629,-0.466696 -1.11671,-0.466696 -0.452373,0 -0.825813,0.154363 -1.11661,0.466696 -0.2909,0.312436 -0.43805,0.718129 -0.43805,1.21729l0 5.94247 -3.33571 0 0 -5.40745c0,-1.66966 0.448766,-2.99823 1.3429,-3.98562 0.894029,-0.987389 2.07535,-1.48294 3.55108,-1.48294 0.797166,0 1.54755,0.1759 2.24414,0.531409 0.696593,0.35551 1.2855,0.858169 1.76302,1.50808 0.30883,0.434443 0.531409,0.915566 0.671449,1.44337 0.14004,0.524299 0.211863,1.18854 0.211863,1.9857l0 5.40745 -3.34643 0z"/>
  <path id="123456" class="fil0" d="M108.157 15.1768c-0.560159,1.32497 -1.34651,2.34832 -2.35553,3.07006 -1.00893,0.721633 -2.15789,1.08436 -3.43979,1.08436 -0.707309,0 -1.38958,-0.14004 -2.0466,-0.416513 -0.653519,-0.276473 -1.23522,-0.675056 -1.74148,-1.19214 -0.524299,-0.535016 -0.922779,-1.13464 -1.19214,-1.79888 -0.26926,-0.667843 -0.405693,-1.37526 -0.405693,-2.12564 0,-0.750486 0.136433,-1.4578 0.405693,-2.12564 0.269363,-0.664339 0.667843,-1.26397 1.19214,-1.79898 0.506266,-0.50977 1.08075,-0.904746 1.73066,-1.17772 0.649913,-0.272866 1.33569,-0.4093 2.05742,-0.4093 1.08075,0 2.05031,0.287293 2.91198,0.858169 0.861776,0.570876 1.57269,1.4039 2.12564,2.49908l-5.16323 3.51161 -1.29271 -1.95685 2.79358 -1.94252c-0.183113,-0.12211 -0.369833,-0.211863 -0.567373,-0.269363 -0.197437,-0.0610034 -0.398583,-0.0897533 -0.610343,-0.0897533 -0.657126,0 -1.21729,0.25133 -1.68048,0.750486 -0.463193,0.50266 -0.692986,1.11671 -0.692986,1.84556 0,0.743272 0.226186,1.36804 0.682269,1.8707 0.45598,0.506266 1.01253,0.757596 1.67316,0.757596 0.617659,0 1.18854,-0.186617 1.71994,-0.55645 0.527803,-0.37344 0.976672,-0.912062 1.35011,-1.61937l2.54576 1.23151z"/>
  <path id="1234567" class="fil0" d="M109.346 19.1408l0 -10.6678 3.08077 0 0 1.59783c0.337579,-0.552946 0.772022,-0.958742 1.30343,-1.21368 0.535016,-0.254936 1.21358,-0.384156 2.0431,-0.384156l0.39848 0 0 3.22803 -0.14715 0c-1.21368,0 -2.08617,0.26926 -2.62479,0.804276 -0.535016,0.53852 -0.804276,1.41112 -0.804276,2.62469l0 4.01077 -3.24956 0z"/>
  <path class="fil0" d="M122.977 8.48122l1.87431 0 0 1.01253c0.0286469,-0.0143234 0.0537901,-0.0358601 0.0753268,-0.06461 0.0216397,-0.0287499 0.0538932,-0.06461 0.0969665,-0.107683 0.0287499,-0.0431764 0.06461,-0.0862497 0.107786,-0.129323 0.0430733,-0.0430733 0.0861467,-0.0861467 0.12922,-0.12922 0.114897,-0.114897 0.240613,-0.222683 0.377046,-0.323153 0.136433,-0.100573 0.29801,-0.193933 0.484729,-0.28008 0.172293,-0.0861467 0.366226,-0.154466 0.581696,-0.20465 0.215367,-0.0502866 0.44516,-0.0754298 0.689379,-0.0754298l0.689379 -0.0430733 0 1.87431 -0.517086 0c-0.402086,0.0718232 -0.746776,0.179507 -1.03407,0.323153 -0.287293,0.143646 -0.531409,0.323153 -0.732453,0.538623 -0.18672,0.215367 -0.341186,0.441553 -0.463193,0.678559 -0.12211,0.237006 -0.219076,0.477619 -0.2909,0.721736 -0.0573968,0.18672 -0.10047,0.366226 -0.12922,0.538623 -0.0287499,0.172293 -0.0430733,0.337476 -0.0430733,0.495446 -0.0144265,0.172396 -0.0215367,0.323153 -0.0215367,0.452476 0,0.12922 0,0.25133 0,0.366226l0 4.69654 -1.87431 0 0 -10.341 0 0z"/>
  <path id="1" class="fil0" d="M131.142 14.0826l5.0843 -2.88684c-0.0287499,-0.0144265 -0.0573968,-0.0323565 -0.0861467,-0.0538932 -0.0287499,-0.0215367 -0.0574998,-0.0538932 -0.0861467,-0.0969665 -0.0287499,-0.0287499 -0.0611064,-0.06461 -0.0969665,-0.107683 -0.0359631,-0.0430733 -0.0754298,-0.0862497 -0.118503,-0.129323 -0.0430733,-0.0286469 -0.0897533,-0.0610034 -0.14004,-0.0968635 -0.0502866,-0.0359631 -0.0969665,-0.0754298 -0.14004,-0.118503 -0.0574998,-0.0287499 -0.114897,-0.0611064 -0.172396,-0.0969665 -0.0573968,-0.0359631 -0.122007,-0.0682166 -0.19383,-0.0969665 -0.143646,-0.0718232 -0.312436,-0.12211 -0.506266,-0.150757 -0.193933,-0.0287499 -0.413009,-0.0431764 -0.657126,-0.0431764 -0.560159,0 -1.052,0.100573 -1.47573,0.301616 -0.423726,0.201146 -0.779236,0.495549 -1.06643,0.883312 -0.287293,0.387763 -0.50266,0.797166 -0.646306,1.228 -0.143646,0.430939 -0.21547,0.876099 -0.21547,1.33569 0,0.0144265 0,0.0251433 0,0.0323565 0,0.00721324 0,0.0108199 0,0.0108199 0,0 0,0 0,0 0,0 0,0 0,0 0,0.0143234 0,0.0215367 0,0.0215367 0,0 0,0 0,0 0,0.416513 0.0754298,0.814993 0.226186,1.19565 0.15086,0.38055 0.369833,0.743272 0.657126,1.08796 0.287293,0.34469 0.642699,0.603233 1.06643,0.775526 0.423726,0.172396 0.908456,0.258543 1.45419,0.258543 0.588909,0 1.08075,-0.0682166 1.47573,-0.20465 0.394976,-0.136433 0.692986,-0.341083 0.894132,-0.613949 0.201043,-0.287293 0.384156,-0.624769 0.549339,-1.01264 0.165183,-0.387763 0.312333,-0.825813 0.441656,-1.31415 0,0 0,0 0,0 0,0 0,-0.00721324 0,-0.0215367 0,0 0,0 0,0 0,0 0,0 0,0 0,0 0,0 0,0 0,0 0.00711019,-0.00721324 0.0215367,-0.0215367 0,0 0,-0.00360662 0,-0.0108199 0,-0.00711019 0,-0.0107168 0,-0.0107168l1.87431 0.107683c0,0.0287499 0,0.0538932 0,0.0754298 0,0.0215367 0.00721324,0.0394667 0.0215367,0.0538932 0,0.0286469 0,0.0502866 0,0.06461 0,0.0143234 0,0.0358601 0,0.06461 0,0.0144265 0,0.0323565 0,0.0538932 0,0.0215367 0.00721324,0.0394667 0.0215367,0.0537901 0,0.0287499 0,0.0502866 0,0.064713 0,0.0143234 0,0.0286469 0,0.0430733 0,0.114897 -0.00721324,0.2334 -0.0215367,0.355406 -0.0143234,0.12211 -0.0358601,0.247826 -0.06461,0.377046 -0.0144265,0.0574998 -0.0323565,0.12211 -0.0538932,0.193933 -0.0215367,0.0718232 -0.0394667,0.136433 -0.0538932,0.19383 -0.0286469,0.0718232 -0.0537901,0.14004 -0.0753268,0.204753 -0.0215367,0.06461 -0.0466799,0.132827 -0.0754298,0.20465 -0.172396,0.359013 -0.402189,0.710916 -0.689379,1.05561 -0.287293,0.34469 -0.639196,0.667843 -1.05571,0.969459 -0.402086,0.301616 -0.872492,0.527803 -1.41112,0.678662 -0.53852,0.150757 -1.13825,0.226186 -1.79888,0.226186 -0.761203,0 -1.46501,-0.118503 -2.11131,-0.35551 -0.646306,-0.236903 -1.228,-0.599626 -1.74498,-1.08796 -0.531409,-0.50266 -0.926386,-1.06632 -1.18493,-1.69109 -0.258543,-0.624769 -0.387763,-1.31776 -0.387763,-2.07906 0,-0.804276 0.107683,-1.51519 0.323153,-2.13275 0.215367,-0.617659 0.53852,-1.14907 0.969459,-1.59433 0.430836,-0.44516 0.883312,-0.811386 1.35722,-1.09868 0.474013,-0.287293 0.969459,-0.495549 1.48654,-0.624769 0.0573968,-0.0143234 0.11129,-0.0251433 0.161576,-0.0323565 0.0502866,-0.00711019 0.104077,-0.01793 0.161576,-0.0322535 0.0573968,0 0.11129,-0.00360662 0.161576,-0.0108199 0.0502866,-0.00711019 0.104077,-0.01793 0.161576,-0.0322535 0.114897,-0.0144265 0.226186,-0.0251433 0.333973,-0.0323565 0.107683,-0.00721324 0.21176,-0.0108199 0.312333,-0.0108199 0.588909,0 1.13825,0.0826431 1.64812,0.247826 0.509873,0.165183 0.980176,0.412906 1.41112,0.743272 0.416513,0.330263 0.793559,0.696593 1.13104,1.09868 0.337476,0.402189 0.635589,0.833026 0.894029,1.29261l-7.13101 3.8564 -0.840136 -1.50808 0 0z"/>
  <path class="fil0" d="M152.542 8.44186l1.87431 0 0 6.26923c0,0.402189 0.0574998,0.757596 0.172396,1.06643 0.114897,0.30883 0.28719,0.585303 0.516983,0.829419 0.24422,0.229793 0.517086,0.402189 0.818702,0.517086 0.301616,0.114897 0.646306,0.172293 1.03407,0.172293 0.301616,0 0.581696,-0.0502866 0.840239,-0.150757 0.258543,-0.100573 0.481123,-0.258543 0.667843,-0.474013 0.201146,-0.215367 0.366226,-0.441656 0.495549,-0.678559 0.12922,-0.237006 0.22258,-0.484729 0.28008,-0.743272 0.0143234,-0.0574998 0.0251433,-0.111393 0.0322535,-0.161576 0.00721324,-0.0502866 0.0180331,-0.10418 0.0323565,-0.161576 0,-0.0287499 0,-0.0574998 0,-0.0862497 0,-0.0286469 0.00721324,-0.0573968 0.0215367,-0.0861467 0,-0.0287499 0,-0.0573968 0,-0.0861467 0,-0.0287499 0,-0.0574998 0,-0.0861467l0 -6.14001 1.87431 0 0 5.92454c0,0.0287499 0,0.0538932 0,0.0754298 0,0.0215367 0,0.0394667 0,0.0537901 0,0.0144265 0,0.0287499 0,0.0430733 0,0.0144265 0.00721324,0.0287499 0.0215367,0.0431764 0,0.0143234 0,0.0286469 0,0.0430733 0,0.0143234 0,0.0286469 0,0.0430733 0,0.0143234 0,0.0287499 0,0.0430733 0,0.0143234 0,0.0287499 0,0.0430733 0,0.603233 -0.0969665,1.16339 -0.290796,1.68037 -0.193933,0.517086 -0.484729,0.991099 -0.872596,1.42193 -0.387763,0.430836 -0.840136,0.750486 -1.35722,0.958742 -0.517086,0.208256 -1.09878,0.312333 -1.74509,0.312333 -0.63188,0 -1.21358,-0.0897533 -1.74498,-0.26926 -0.531409,-0.17961 -1.00542,-0.448869 -1.42193,-0.807882 -0.416513,-0.37344 -0.728846,-0.861776 -0.937102,-1.46501 -0.208256,-0.603233 -0.312436,-1.32858 -0.312436,-2.17592l0 -5.96761 0 0z"/>
  <path id="1" class="fil0" d="M165.447 14.0432l5.0843 -2.88684c-0.0287499,-0.0144265 -0.0573968,-0.0323565 -0.0861467,-0.0538932 -0.0287499,-0.0215367 -0.0574998,-0.0538932 -0.0861467,-0.0969665 -0.0287499,-0.0287499 -0.0611064,-0.06461 -0.0969665,-0.107683 -0.0359631,-0.0430733 -0.0754298,-0.0862497 -0.118503,-0.129323 -0.0430733,-0.0286469 -0.0897533,-0.0610034 -0.14004,-0.0968635 -0.0502866,-0.0359631 -0.0969665,-0.0754298 -0.14004,-0.118503 -0.0574998,-0.0287499 -0.114897,-0.0611064 -0.172396,-0.0969665 -0.0573968,-0.0359631 -0.122007,-0.0682166 -0.19383,-0.0969665 -0.143646,-0.0718232 -0.312436,-0.12211 -0.506266,-0.150757 -0.193933,-0.0287499 -0.413009,-0.0431764 -0.657126,-0.0431764 -0.560159,0 -1.052,0.100573 -1.47573,0.301616 -0.423726,0.201146 -0.779236,0.495549 -1.06643,0.883312 -0.287293,0.387763 -0.50266,0.797166 -0.646306,1.228 -0.143646,0.430939 -0.21547,0.876099 -0.21547,1.33569 0,0.0144265 0,0.0251433 0,0.0323565 0,0.00721324 0,0.0108199 0,0.0108199 0,0 0,0 0,0 0,0 0,0 0,0 0,0.0143234 0,0.0215367 0,0.0215367 0,0 0,0 0,0 0,0.416513 0.0754298,0.814993 0.226186,1.19565 0.15086,0.38055 0.369833,0.743272 0.657126,1.08796 0.287293,0.34469 0.642699,0.603233 1.06643,0.775526 0.423726,0.172396 0.908456,0.258543 1.45419,0.258543 0.588909,0 1.08075,-0.0682166 1.47573,-0.20465 0.394976,-0.136433 0.692986,-0.341083 0.894132,-0.613949 0.201043,-0.287293 0.384156,-0.624769 0.549339,-1.01264 0.165183,-0.387763 0.312333,-0.825813 0.441656,-1.31415 0,0 0,0 0,0 0,0 0,-0.00721324 0,-0.0215367 0,0 0,0 0,0 0,0 0,0 0,0 0,0 0,0 0,0 0,0 0.00711019,-0.00721324 0.0215367,-0.0215367 0,0 0,-0.00360662 0,-0.0108199 0,-0.00711019 0,-0.0107168 0,-0.0107168l1.87431 0.107683c0,0.0287499 0,0.0538932 0,0.0754298 0,0.0215367 0.00721324,0.0394667 0.0215367,0.0538932 0,0.0286469 0,0.0502866 0,0.06461 0,0.0143234 0,0.0358601 0,0.06461 0,0.0144265 0,0.0323565 0,0.0538932 0,0.0215367 0.00721324,0.0394667 0.0215367,0.0537901 0,0.0287499 0,0.0502866 0,0.064713 0,0.0143234 0,0.0286469 0,0.0430733 0,0.114897 -0.00721324,0.2334 -0.0215367,0.355406 -0.0143234,0.12211 -0.0358601,0.247826 -0.06461,0.377046 -0.0144265,0.0574998 -0.0323565,0.12211 -0.0538932,0.193933 -0.0215367,0.0718232 -0.0394667,0.136433 -0.0538932,0.19383 -0.0286469,0.0718232 -0.0537901,0.14004 -0.0753268,0.204753 -0.0215367,0.06461 -0.0466799,0.132827 -0.0754298,0.20465 -0.172396,0.359013 -0.402189,0.710916 -0.689379,1.05561 -0.287293,0.34469 -0.639196,0.667843 -1.05571,0.969459 -0.402086,0.301616 -0.872492,0.527803 -1.41112,0.678662 -0.53852,0.150757 -1.13825,0.226186 -1.79888,0.226186 -0.761203,0 -1.46501,-0.118503 -2.11131,-0.35551 -0.646306,-0.236903 -1.228,-0.599626 -1.74498,-1.08796 -0.531409,-0.50266 -0.926386,-1.06632 -1.18493,-1.69109 -0.258543,-0.624769 -0.387763,-1.31776 -0.387763,-2.07906 0,-0.804276 0.107683,-1.51519 0.323153,-2.13275 0.215367,-0.617659 0.53852,-1.14907 0.969459,-1.59433 0.430836,-0.44516 0.883312,-0.811386 1.35722,-1.09868 0.474013,-0.287293 0.969459,-0.495549 1.48654,-0.624769 0.0573968,-0.0143234 0.11129,-0.0251433 0.161576,-0.0323565 0.0502866,-0.00711019 0.104077,-0.01793 0.161576,-0.0322535 0.0573968,0 0.11129,-0.00360662 0.161576,-0.0108199 0.0502866,-0.00711019 0.104077,-0.01793 0.161576,-0.0322535 0.114897,-0.0144265 0.226186,-0.0251433 0.333973,-0.0323565 0.107683,-0.00721324 0.21176,-0.0108199 0.312333,-0.0108199 0.588909,0 1.13825,0.0826431 1.64812,0.247826 0.509873,0.165183 0.980176,0.412906 1.41112,0.743272 0.416513,0.330263 0.793559,0.696593 1.13104,1.09868 0.337476,0.402189 0.635589,0.833026 0.894029,1.29261l-7.13101 3.8564 -0.840136 -1.50808 0 0z"/>
  <path id="12" class="fil0" d="M174.948 16.9085l4.39492 0c0.0286469,0.0287499 0.0573968,0.0430733 0.0861467,0.0430733 0.0287499,0 0.0574998,0 0.0861467,0 0.0287499,0 0.0574998,0 0.0862497,0 0.0286469,0 0.0573968,0 0.0861467,0 0.0287499,0.0144265 0.0573968,0.0215367 0.0861467,0.0215367 0.0287499,0 0.0574998,0 0.0861467,0 0.0287499,0 0.0574998,0 0.0862497,0 0.0286469,0 0.0573968,0 0.0861467,0 0.172293,0 0.333973,-0.0107168 0.484729,-0.0322535 0.150757,-0.0215367 0.29801,-0.0611064 0.441656,-0.118503 0.143646,-0.0430733 0.25133,-0.125716 0.323153,-0.247826 0.0718232,-0.122007 0.107683,-0.276473 0.107683,-0.463193 0,-0.201043 -0.0537901,-0.38055 -0.161576,-0.53852 -0.107683,-0.15797 -0.26926,-0.294506 -0.484729,-0.409403 -0.215367,-0.114897 -0.463193,-0.22258 -0.743272,-0.323153 -0.28008,-0.10047 -0.5852,-0.201043 -0.915566,-0.301616 -0.0430733,-0.0143234 -0.0861467,-0.0251433 -0.129323,-0.0322535 -0.0430733,-0.00721324 -0.0861467,-0.01793 -0.12922,-0.0323565 -0.0573968,-0.0143234 -0.107683,-0.0251433 -0.150757,-0.0322535 -0.0431764,-0.00721324 -0.0862497,-0.0180331 -0.129323,-0.0323565 -0.10047,-0.0287499 -0.197437,-0.0574998 -0.290796,-0.0861467 -0.0933599,-0.0287499 -0.183113,-0.0574998 -0.269363,-0.0862497 -0.459586,-0.114897 -0.872492,-0.265653 -1.23872,-0.452373 -0.366226,-0.18672 -0.692986,-0.394976 -0.980279,-0.624769 -0.272866,-0.244117 -0.477516,-0.527803 -0.613949,-0.850956 -0.136433,-0.323153 -0.20465,-0.692986 -0.20465,-1.1095 0,-0.588909 0.10047,-1.07364 0.301616,-1.45419 0.201043,-0.380653 0.50266,-0.642802 0.904849,-0.786346 0.402086,-0.158073 0.840136,-0.276576 1.31415,-0.35551 0.47391,-0.0790365 0.990996,-0.118503 1.55115,-0.118503l3.89937 -0.0430733 0 1.68037 -4.07177 0c-0.258543,0.0287499 -0.499053,0.0574998 -0.721736,0.0862497 -0.22258,0.0286469 -0.42723,0.0717202 -0.613949,0.12922 -0.18672,0.0573968 -0.323153,0.143646 -0.4093,0.258543 -0.0862497,0.114897 -0.129323,0.258543 -0.129323,0.430836 0,0.18672 0.0466799,0.35551 0.14004,0.506266 0.0933599,0.15086 0.2334,0.276473 0.420119,0.377046 0.18672,0.100573 0.384156,0.190326 0.592413,0.26926 0.208256,0.0790365 0.427333,0.154466 0.657126,0.22629 0.0718232,0.0143234 0.14004,0.0286469 0.20465,0.0430733 0.06461,0.0143234 0.125716,0.0286469 0.183113,0.0430733 0.0287499,0.0143234 0.0574998,0.0251433 0.0861467,0.0322535 0.0287499,0.00721324 0.064713,0.0108199 0.107786,0.0108199 0.0287499,0.0143234 0.0573968,0.0251433 0.0861467,0.0323565 0.0287499,0.00711019 0.0574998,0.0107168 0.0861467,0.0107168 0.0430733,0.0144265 0.0862497,0.0287499 0.129323,0.0430733 0.0430733,0.0144265 0.0861467,0.0287499 0.12922,0.0430733 0.0287499,0 0.0502866,0.00360662 0.06461,0.0108199 0.0144265,0.00721324 0.0359631,0.0107168 0.064713,0.0107168 0.0143234,0.0144265 0.0322535,0.0251433 0.0537901,0.0323565 0.0215367,0.00721324 0.0395698,0.0108199 0.0538932,0.0108199 0.631983,0.215367 1.1705,0.43805 1.61576,0.667843 0.445263,0.229793 0.789952,0.466799 1.03407,0.710916 0.24422,0.244117 0.427333,0.535016 0.549443,0.872492 0.122007,0.337579 0.183113,0.714523 0.183113,1.13104 -0.0144265,0.474013 -0.0897533,0.872596 -0.226186,1.19575 -0.136536,0.323153 -0.32676,0.578089 -0.570979,0.764809 -0.229793,0.18672 -0.477516,0.337476 -0.743272,0.452373 -0.265653,0.114897 -0.542126,0.193933 -0.829419,0.237006 -0.10047,0.0143234 -0.197437,0.0215367 -0.290796,0.0215367 -0.0933599,0 -0.183113,0 -0.269363,0 -0.0430733,0 -0.0861467,0 -0.12922,0 -0.0430733,0 -0.0861467,0.00721324 -0.12922,0.0215367 -0.0431764,0 -0.0826431,0 -0.118503,0 -0.0359631,0 -0.0754298,0 -0.118503,0 -0.0430733,0 -0.0826431,0 -0.118503,0 -0.0359631,0 -0.0682166,0 -0.0969665,0 -0.0430733,0 -0.08254,0 -0.118503,0 -0.0358601,0 -0.0682166,0 -0.0969665,0 -0.0430733,-0.0143234 -0.08254,-0.0215367 -0.1184,-0.0215367 -0.0359631,0 -0.0683197,0 -0.0969665,0 -0.0287499,0 -0.0574998,0 -0.0862497,0 -0.0286469,0 -0.0573968,0 -0.0861467,0l-4.22253 0 0 -1.87431 0 0z"/>
  <path id="123" class="fil0" d="M185.289 15.4005l0 -9.50076 2.02517 0 0 2.54215 3.92091 0 0 1.85277 -3.92091 0 0 5.2567c0,0.201043 0.0143234,0.38055 0.0430733,0.53852 0.0287499,0.158073 0.0718232,0.30883 0.12922,0.452476 0.0574998,0.143646 0.183113,0.247723 0.377046,0.312333 0.193933,0.064713 0.463193,0.0969665 0.807882,0.0969665l2.39139 -0.0430733 0 1.87431 -2.54215 0c-0.0144265,0 -0.0287499,0 -0.0430733,0 -0.0144265,0 -0.0287499,0 -0.0431764,0 -0.0143234,0 -0.0250402,0 -0.0322535,0 -0.00721324,0 -0.01793,0.00721324 -0.0323565,0.0215367 -0.0143234,0 -0.0287499,0 -0.0430733,0 -0.0143234,0 -0.0287499,0 -0.0430733,0 -0.0143234,0 -0.0251433,0 -0.0323565,0 -0.00711019,0 -0.01793,0 -0.0322535,0 -0.488336,0 -0.912062,-0.0718232 -1.27108,-0.21547 -0.359116,-0.143543 -0.653519,-0.366226 -0.883312,-0.667843 -0.229793,-0.301616 -0.405796,-0.624769 -0.527803,-0.969459 -0.12211,-0.34469 -0.19754,-0.703703 -0.22629,-1.07714 -0.0143234,-0.0287499 -0.0215367,-0.0611064 -0.0215367,-0.0969665 0,-0.0359631 0,-0.0754298 0,-0.118503 0,-0.0287499 0,-0.0610034 0,-0.0969665 0,-0.0358601 0,-0.0754298 0,-0.118503l0 -0.0430733z"/>
  <path id="1234" class="fil0" d="M191.73 13.3539c0,-0.789952 0.136433,-1.50097 0.4093,-2.13285 0.272969,-0.631983 0.675056,-1.18493 1.20647,-1.65894 0.545836,-0.47391 1.12393,-0.829419 1.73427,-1.06632 0.610446,-0.237006 1.25315,-0.35551 1.9282,-0.35551 0.0287499,0 0.0610034,0 0.0969665,0 0.0358601,0 0.0682166,0 0.0969665,0 0.0286469,0.0143234 0.0610034,0.0215367 0.0968635,0.0215367 0.0359631,0 0.0754298,0 0.118503,0 0.0287499,0 0.0611064,0 0.0969665,0 0.0359631,0 0.0754298,0 0.118503,0 0.0287499,0.0143234 0.0610034,0.0215367 0.0969665,0.0215367 0.0358601,0 0.0682166,0 0.0969665,0 0.574483,0.0861467 1.12382,0.254936 1.64802,0.506266 0.524299,0.25133 1.03057,0.585303 1.5189,1.00182 0.47391,0.430836 0.833026,0.969459 1.07714,1.61576 0.24422,0.646306 0.366226,1.4004 0.366226,2.26207 0,0.0574998 0,0.114897 0,0.172396 0,0.0573968 -0.00711019,0.107683 -0.0215367,0.150757 0,0.0574998 -0.00350357,0.114897 -0.0107168,0.172396 -0.00721324,0.0573968 -0.0108199,0.114897 -0.0108199,0.172293 -0.0143234,0.114897 -0.0322535,0.229896 -0.0537901,0.344793 -0.0215367,0.114897 -0.0466799,0.229793 -0.0754298,0.34469 -0.129323,0.516983 -0.32676,1.00893 -0.592516,1.47573 -0.265653,0.466799 -0.606736,0.908456 -1.02325,1.32497 -0.402189,0.416513 -0.883312,0.725239 -1.44347,0.926386 -0.560159,0.201043 -1.18493,0.301616 -1.87431,0.301616 -0.976672,0 -1.82041,-0.13293 -2.53143,-0.398583 -0.710916,-0.265756 -1.28901,-0.671449 -1.73427,-1.21729 -0.44516,-0.545733 -0.779133,-1.14897 -1.00171,-1.80959 -0.222683,-0.660732 -0.333973,-1.37165 -0.333973,-2.13285l0 -0.0430733zm2.0467 0c0,0.114897 0,0.218973 0,0.312333 0,0.0933599 0.00711019,0.190326 0.0215367,0.2909 0.0143234,0.10047 0.0322535,0.197437 0.0537901,0.290796 0.0216397,0.0933599 0.0395698,0.190326 0.0538932,0.290796 0.0718232,0.316043 0.18672,0.624769 0.34469,0.926386 0.15797,0.301616 0.351903,0.588909 0.581696,0.861776 0.24422,0.272866 0.545733,0.474013 0.904849,0.603233 0.359013,0.12922 0.782739,0.193933 1.27108,0.193933 0.459586,0 0.890526,-0.064713 1.29261,-0.193933 0.402189,-0.12922 0.768416,-0.323153 1.09878,-0.581696 0.330263,-0.258543 0.578089,-0.635486 0.743272,-1.13104 0.16508,-0.495549 0.247723,-1.10229 0.247723,-1.82041 0,-0.502763 -0.0718232,-0.958742 -0.21547,-1.36804 -0.143646,-0.4093 -0.359013,-0.772022 -0.646306,-1.08796 -0.28719,-0.301616 -0.642699,-0.531409 -1.06643,-0.689379 -0.423623,-0.15797 -0.908456,-0.237006 -1.45419,-0.237006 -0.517086,0 -0.962246,0.0682166 -1.33569,0.20465 -0.37344,0.136433 -0.682269,0.348296 -0.926386,0.635589 -0.24422,0.272866 -0.441656,0.56727 -0.592516,0.883209 -0.150757,0.316043 -0.254936,0.639196 -0.312333,0.969562 -0.0143234,0.0573968 -0.0287499,0.114897 -0.0430733,0.172293 -0.0144265,0.0574998 -0.0215367,0.114897 -0.0215367,0.172396 0,0.0573968 0,0.114897 0,0.172293 0,0.0574998 0,0.114897 0,0.172396l0 -0.0430733z"/>
  <path id="12345" class="fil0" d="M203.623 16.9085l4.39492 0c0.0286469,0.0287499 0.0573968,0.0430733 0.0861467,0.0430733 0.0287499,0 0.0574998,0 0.0861467,0 0.0287499,0 0.0574998,0 0.0862497,0 0.0286469,0 0.0573968,0 0.0861467,0 0.0287499,0.0144265 0.0573968,0.0215367 0.0861467,0.0215367 0.0287499,0 0.0574998,0 0.0861467,0 0.0287499,0 0.0574998,0 0.0862497,0 0.0286469,0 0.0573968,0 0.0861467,0 0.172293,0 0.333973,-0.0107168 0.484729,-0.0322535 0.150757,-0.0215367 0.29801,-0.0611064 0.441656,-0.118503 0.143646,-0.0430733 0.25133,-0.125716 0.323153,-0.247826 0.0718232,-0.122007 0.107683,-0.276473 0.107683,-0.463193 0,-0.201043 -0.0537901,-0.38055 -0.161576,-0.53852 -0.107683,-0.15797 -0.26926,-0.294506 -0.484729,-0.409403 -0.215367,-0.114897 -0.463193,-0.22258 -0.743272,-0.323153 -0.28008,-0.10047 -0.5852,-0.201043 -0.915566,-0.301616 -0.0430733,-0.0143234 -0.0861467,-0.0251433 -0.129323,-0.0322535 -0.0430733,-0.00721324 -0.0861467,-0.01793 -0.12922,-0.0323565 -0.0573968,-0.0143234 -0.107683,-0.0251433 -0.150757,-0.0322535 -0.0431764,-0.00721324 -0.0862497,-0.0180331 -0.129323,-0.0323565 -0.10047,-0.0287499 -0.197437,-0.0574998 -0.290796,-0.0861467 -0.0933599,-0.0287499 -0.183113,-0.0574998 -0.269363,-0.0862497 -0.459586,-0.114897 -0.872492,-0.265653 -1.23872,-0.452373 -0.366226,-0.18672 -0.692986,-0.394976 -0.980279,-0.624769 -0.272866,-0.244117 -0.477516,-0.527803 -0.613949,-0.850956 -0.136433,-0.323153 -0.20465,-0.692986 -0.20465,-1.1095 0,-0.588909 0.10047,-1.07364 0.301616,-1.45419 0.201043,-0.380653 0.50266,-0.642802 0.904849,-0.786346 0.402086,-0.158073 0.840136,-0.276576 1.31415,-0.35551 0.47391,-0.0790365 0.990996,-0.118503 1.55115,-0.118503l3.89937 -0.0430733 0 1.68037 -4.07177 0c-0.258543,0.0287499 -0.499053,0.0574998 -0.721736,0.0862497 -0.22258,0.0286469 -0.42723,0.0717202 -0.613949,0.12922 -0.18672,0.0573968 -0.323153,0.143646 -0.4093,0.258543 -0.0862497,0.114897 -0.129323,0.258543 -0.129323,0.430836 0,0.18672 0.0466799,0.35551 0.14004,0.506266 0.0933599,0.15086 0.2334,0.276473 0.420119,0.377046 0.18672,0.100573 0.384156,0.190326 0.592413,0.26926 0.208256,0.0790365 0.427333,0.154466 0.657126,0.22629 0.0718232,0.0143234 0.14004,0.0286469 0.20465,0.0430733 0.06461,0.0143234 0.125716,0.0286469 0.183113,0.0430733 0.0287499,0.0143234 0.0574998,0.0251433 0.0861467,0.0322535 0.0287499,0.00721324 0.064713,0.0108199 0.107786,0.0108199 0.0287499,0.0143234 0.0573968,0.0251433 0.0861467,0.0323565 0.0287499,0.00711019 0.0574998,0.0107168 0.0861467,0.0107168 0.0430733,0.0144265 0.0862497,0.0287499 0.129323,0.0430733 0.0430733,0.0144265 0.0861467,0.0287499 0.12922,0.0430733 0.0287499,0 0.0502866,0.00360662 0.06461,0.0108199 0.0144265,0.00721324 0.0359631,0.0107168 0.064713,0.0107168 0.0143234,0.0144265 0.0322535,0.0251433 0.0537901,0.0323565 0.0215367,0.00721324 0.0395698,0.0108199 0.0538932,0.0108199 0.631983,0.215367 1.1705,0.43805 1.61576,0.667843 0.445263,0.229793 0.789952,0.466799 1.03407,0.710916 0.24422,0.244117 0.427333,0.535016 0.549443,0.872492 0.122007,0.337579 0.183113,0.714523 0.183113,1.13104 -0.0144265,0.474013 -0.0897533,0.872596 -0.226186,1.19575 -0.136536,0.323153 -0.32676,0.578089 -0.570979,0.764809 -0.229793,0.18672 -0.477516,0.337476 -0.743272,0.452373 -0.265653,0.114897 -0.542126,0.193933 -0.829419,0.237006 -0.10047,0.0143234 -0.197437,0.0215367 -0.290796,0.0215367 -0.0933599,0 -0.183113,0 -0.269363,0 -0.0430733,0 -0.0861467,0 -0.12922,0 -0.0430733,0 -0.0861467,0.00721324 -0.12922,0.0215367 -0.0431764,0 -0.0826431,0 -0.118503,0 -0.0359631,0 -0.0754298,0 -0.118503,0 -0.0430733,0 -0.0826431,0 -0.118503,0 -0.0359631,0 -0.0682166,0 -0.0969665,0 -0.0430733,0 -0.08254,0 -0.118503,0 -0.0358601,0 -0.0682166,0 -0.0969665,0 -0.0430733,-0.0143234 -0.08254,-0.0215367 -0.1184,-0.0215367 -0.0359631,0 -0.0683197,0 -0.0969665,0 -0.0287499,0 -0.0574998,0 -0.0862497,0 -0.0286469,0 -0.0573968,0 -0.0861467,0l-4.22253 0 0 -1.87431 0 0z"/>
  <path class="fil0" d="M141.154 19.1442l0 -5.5173c0,-0.789952 0.126232,-1.50478 0.377149,-2.14377 0.250918,-0.638784 0.628582,-1.19585 1.13124,-1.66997 0.502556,-0.47391 1.04128,-0.829625 1.61597,-1.06653 0.574586,-0.237006 1.17802,-0.355613 1.8099,-0.355613 0.129014,0 0.258543,0.00741933 0.387866,0.0216397 0.129014,0.0143234 0.265653,0.0361692 0.409197,0.064713 0.143543,0.0287499 0.287602,0.06461 0.431042,0.10758 0.143543,0.0427642 0.289663,0.0799639 0.430939,0.129323 0.433103,0.151375 0.840548,0.373543 1.22811,0.646409 0.387866,0.272763 0.79428,0.575616 1.12052,0.991202 1.08126,1.37649 1.06272,3.55901 0.0396728,4.9353 -0.2909,0.391164 -0.678972,0.664236 -1.0452,0.915669 -0.366123,0.251124 -0.743272,0.43537 -1.13114,0.549443 -0.100264,0.0292651 -0.20465,0.0542023 -0.31223,0.0755329 -0.107683,0.0214336 -0.212275,0.0394667 -0.312539,0.0536871 -0.100573,0.0143234 -0.201043,0.0252463 -0.301616,0.0323565 -0.10047,0.00711019 -0.201249,0.0124686 -0.301822,0.0109229l-2.88715 -0.0432794 0 -1.85287 1.87462 0c0.0144265,0.0142204 0.0287499,0.0254524 0.0429703,0.0322535 0.0142204,0.00721324 0.0287499,0.0107168 0.0432794,0.0107168 0,0 0.00711019,0 0.0213306,0 0.0145295,0 0.0287499,0 0.0432794,0 0.0142204,0 0.0287499,0 0.0429703,0 0.0145295,0 0.0288529,0 0.0430733,0 0,0 0.00731628,0 0.0216397,0 0.0144265,0 0.0287499,0 0.0429703,0 0.431145,0 0.804688,-0.0394667 1.12052,-0.118297 0.316043,-0.0789334 0.571288,-0.209184 0.775629,-0.377149 0.19754,-0.162092 0.373646,-0.330572 0.517189,-0.517189 0.143543,-0.18672 0.250402,-0.381168 0.323153,-0.581696 0.0417337,-0.115309 0.0753268,-0.2334 0.0969665,-0.35551 0.0613125,-0.352212 0.0498744,-0.580975 -0.0720293,-0.916905 -0.0793456,-0.218149 -0.201249,-0.423726 -0.344793,-0.624769 -0.143543,-0.200837 -0.316043,-0.394976 -0.517086,-0.581799 -0.201043,-0.186514 -0.452579,-0.32676 -0.754092,-0.420119 -0.301616,-0.0934629 -0.660629,-0.140246 -1.07725,-0.140246 -0.632189,0 -1.14927,0.100985 -1.55136,0.301822 -0.402086,0.201043 -0.676189,0.505133 -0.840342,0.904952 -0.166111,0.404663 -0.298216,0.843846 -0.377149,1.32507 -0.0788304,0.481226 -0.118606,0.232163 -0.118606,0.777278l0 5.39715 -2.04681 0z"/>
  <ellipse class="fil1 str0" cx="31.5127" cy="15.7677" rx="6.01424" ry="6.02495"/>
  <ellipse class="fil1 str1" cx="31.4947" cy="15.7571" rx="4.63706" ry="4.64533"/>
  <g id="_95557016">
   <line id="_95557544" class="fil1 str0" x1="0" y1="1.03046" x2="5.27597" y2= "1.03046" />
   <path id="_95557472" class="fil1 str0" d="M12.008 7.6145c-2.5946,2.89436 -5.55203,5.37376 -8.81056,7.50919 4.87934,4.24684 10.421,6.50067 16.6264,6.762 -1.93511,-3.23946 -3.57653,-6.83846 -3.8022,-12.1699"/>
   <path id="_95557400" class="fil1 str0" d="M23.7672 6.58228l-1.13691 1.03221 0 10.463c0.304399,1.37 0.878881,2.35461 1.84752,2.77596"/>
   <line id="_95557328" class="fil1 str0" x1="24.016" y1="7.61254" x2="38.7237" y2= "7.61254" />
   <polyline id="_95557256" class="fil1 str0" points="0,1.03046 5.00928,1.03046 12.008,7.6145 22.6303,7.6145 23.7671,6.58228 "/>
   <path id="_95557184" class="fil1 str0" d="M22.6303 7.6145l0 10.463c0.279461,1.39679 0.895266,2.32204 1.84752,2.77596"/>
   <path id="_95557112" class="fil1 str0" d="M12.008 7.6145c-2.58162,2.90096 -5.56079,5.35655 -8.81056,7.50919 4.71838,4.07404 10.1793,6.50706 16.6264,6.762 -2.35677,-3.79169 -3.66206,-7.83904 -3.8022,-12.1699l-4.20738 -1.88657 -0.161576 -0.0724415 -6.46584 -3.95048 -4.15658 0"/>
   <polyline id="_95557040" class="fil1 str0" points="12.008,7.6145 5.00928,1.03046 0,1.03046 "/>
  </g>
 </g>
</svg>
